M48
;Layer_Color=9474304
;FILE_FORMAT=2:4
INCH,LZ
;TYPE=PLATED
T1F00S00C0.0118
T3F00S00C0.0394
T4F00S00C0.0472
T5F00S00C0.0709
;TYPE=NON_PLATED
T6F00S00C0.1181
%
T01
X00183Y00068
X00195Y00102
X001941Y00134
X00178Y00169
X0015Y0019
X00323Y00099
X004111Y001011
X004855
X00331Y00351
X00284Y00354
X00584Y00105
X00665
X00745
X008144Y001057
X00882Y00105
X00961
X0104
X011212Y001054
X011985
X01284Y00104
X01369Y00098
X014533Y000968
X015307Y001025
X01624Y00103
X01717Y00101
X0185Y00106
X01854Y00142
X01872Y00174
X01904Y00193
X01868Y0007
X01631Y00355
X015042Y003635
X00977Y00253
X00931
X00886Y00254
X009164Y004398
Y004792
X009557
Y004398
X0073Y00586
X00592Y00691
X0077Y00889
X0081Y00883
X00812Y01014
X00811Y01042
X00861
X00863Y01014
X00682Y01006
X00725Y01204
X00726Y01258
X007386Y013179
X00812Y01331
X009668Y013262
X010186Y012966
X01033Y0125
X01034Y01202
X01028Y01141
X010636Y01122
X01064Y0109
X01293Y00905
X013975Y008625
X01522Y00854
X01637Y008524
X017597Y008544
X018744Y008584
X01979Y008926
X019931Y009651
X019951Y010939
X020012Y011924
X020032Y012951
X019951Y013896
X019971Y014963
X01997Y01605
X01993Y01712
X01995Y01824
X01983Y01915
X0185Y01926
X01851Y01841
X01771Y01832
X01721
X01688Y01721
X01503Y01719
X01521Y01832
X0147
X01557Y01624
Y01508
X01779Y01261
X01839Y01119
X013955Y007176
X01341Y00638
X01344Y00519
X014967Y005095
Y005489
X015361
Y005095
X01398Y0041
X011607Y006511
X01117Y00722
X0051Y00695
X004378Y006965
X00376Y00702
X00332Y00609
X00294
X00268Y00742
X00265Y00779
X00218Y0079
X0026Y00888
X002624Y009726
X002704Y010833
X002624Y01186
X002664Y012826
X002624Y013571
X002543Y014537
Y015564
X00316Y0167
Y01706
X00306Y01739
X00269Y01742
X00146Y01851
Y01945
Y02031
X001494Y021107
X00156Y02201
X002261Y022846
X00174Y02388
X00192Y02422
X00195Y02464
X00138Y02367
X00099Y02366
X0031Y0236
X004195Y024218
X00401Y02257
X00363Y0222
X00362Y02167
X00395Y0213
X007329Y021207
X00734Y02211
X00815Y02224
X00813Y02161
X00864Y02113
X0093Y02112
X00996
X009848Y021732
X00976Y0223
X009136Y022301
X009005Y021765
X01083Y0222
X01126Y02256
X0117Y02222
X011677Y023391
X01277Y022596
X012472Y024516
X01488Y02432
X01543Y02431
X01544Y02531
X01492Y02529
X0149Y02358
X01487Y02281
X01553Y02192
X01584Y0216
X01613Y02127
X016155Y022065
X01614Y02252
X01864Y02268
X01902Y02233
X01865Y02191
X01983Y021542
X019871Y020436
X01889Y02375
X01864Y024
X01854Y02435
X018578Y024692
X0187Y02496
X01621Y01954
T03
X01416Y02482
X01516
X01616
T04
X019164Y003292
Y006492
T05
X000998Y01098
X00462Y011708
Y013598
Y015487
X000998Y016216
T06
X001181Y001181
X019291
X001181Y024409
X019291
M30
