G04*
G04 #@! TF.GenerationSoftware,Altium Limited,Altium Designer,22.1.2 (22)*
G04*
G04 Layer_Color=65535*
%FSLAX24Y24*%
%MOIN*%
G70*
G04*
G04 #@! TF.SameCoordinates,162C4C40-B8F5-4961-9C55-0291AD4F2388*
G04*
G04*
G04 #@! TF.FilePolarity,Positive*
G04*
G01*
G75*
%ADD10C,0.0100*%
%ADD11C,0.0150*%
%ADD12C,0.0098*%
%ADD13C,0.0236*%
%ADD14C,0.0118*%
%ADD15C,0.0079*%
%ADD16C,0.0080*%
%ADD17C,0.0060*%
%ADD18C,0.0050*%
D10*
X1270Y13998D02*
G03*
X1270Y13198I124J-400D01*
G01*
X1570Y13998D02*
G03*
X1570Y13198I0J-400D01*
G01*
X1195Y14248D02*
X1745D01*
Y15548D01*
X1195D02*
X1745D01*
X1195Y14248D02*
Y15548D01*
X1220Y11598D02*
X1770D01*
Y12898D01*
X1220D02*
X1770D01*
X1220Y11598D02*
Y12898D01*
X1666Y16354D02*
X2856D01*
X376Y11257D02*
Y15939D01*
X1666Y10842D02*
X2860D01*
X-2230Y12583D02*
X-2230Y13548D01*
X-2230Y12583D02*
X376D01*
X-2233Y13548D02*
X373D01*
X1270Y13198D02*
X1658D01*
X1270Y13998D02*
X1658D01*
X1893Y13198D02*
Y13998D01*
X2420D02*
Y16354D01*
X1570Y13998D02*
X2420D01*
X1570Y13198D02*
X2455D01*
Y10842D02*
Y13198D01*
X2860Y10842D02*
Y16354D01*
X10846Y17381D02*
X11396D01*
Y17681D01*
X5326Y17381D02*
X5896D01*
X5326D02*
Y17681D01*
X11396Y22551D02*
Y25371D01*
X5326Y25381D02*
X11396D01*
X5326Y22561D02*
Y25381D01*
X6002Y24715D02*
X6292D01*
Y23395D02*
Y24715D01*
Y23395D02*
X7032D01*
Y24715D01*
X7772D01*
Y23395D02*
Y24715D01*
Y23395D02*
X8512D01*
Y24715D01*
X9252D01*
Y23395D02*
Y24715D01*
Y23395D02*
X9982D01*
Y24715D01*
X10722D01*
Y22945D02*
Y24715D01*
X10922Y22885D02*
X11380D01*
X5332D02*
X10922D01*
X8170Y11580D02*
X9430D01*
X8175Y12830D02*
X9435D01*
X1185Y3041D02*
X1673D01*
X1166Y6506D02*
X1654D01*
X-350Y3037D02*
X182D01*
X-350Y6506D02*
X194D01*
X-350Y3037D02*
Y6510D01*
D11*
X5066Y22681D02*
G03*
X5066Y22681I-60J0D01*
G01*
D12*
X17320Y20695D02*
G03*
X17320Y20695I-49J0D01*
G01*
X16015Y12062D02*
G03*
X16015Y12062I-49J0D01*
G01*
X18406Y6492D02*
G03*
X18406Y6492I-49J0D01*
G01*
Y3292D02*
G03*
X18406Y3292I-49J0D01*
G01*
D13*
X16499Y12987D02*
G03*
X16499Y12987I-118J0D01*
G01*
D14*
X18272Y19322D02*
G03*
X18272Y19322I-59J0D01*
G01*
X18561Y20052D02*
G03*
X18561Y20052I-59J0D01*
G01*
X8330Y5636D02*
G03*
X8330Y5636I-59J0D01*
G01*
X9117Y5345D02*
G03*
X9117Y5345I-59J0D01*
G01*
X14133Y6333D02*
G03*
X14133Y6333I-59J0D01*
G01*
X14920Y6042D02*
G03*
X14920Y6042I-59J0D01*
G01*
D15*
X9010Y11045D02*
G03*
X9010Y11045I-39J0D01*
G01*
X10143Y3410D02*
X10379D01*
X10143Y2780D02*
X10379D01*
X10143D02*
Y3410D01*
X10217Y2780D02*
Y3410D01*
X8243Y2780D02*
X8479D01*
X8243Y3410D02*
X8479D01*
Y2780D02*
Y3410D01*
X8404Y2780D02*
Y3410D01*
X18703Y18926D02*
X19018D01*
X18113Y12594D02*
Y14168D01*
X15987Y12594D02*
Y14168D01*
X18113D01*
X15987Y12594D02*
X18113D01*
X15987Y17121D02*
Y17279D01*
X15087Y17121D02*
Y17279D01*
X13660Y25320D02*
X16660D01*
X13660Y24320D02*
Y25320D01*
Y24320D02*
X16660D01*
Y25320D01*
X15130Y20638D02*
Y20953D01*
X18969Y22143D02*
Y22457D01*
X15303Y21865D02*
X15618D01*
X18703Y18765D02*
X19018D01*
X5030Y21538D02*
Y21853D01*
X3691Y22038D02*
Y22353D01*
X16569Y15246D02*
Y15561D01*
X15231Y15746D02*
Y16061D01*
X9205Y9847D02*
X9717D01*
X9905D02*
X10417D01*
X7098Y11212D02*
X7610D01*
X6643Y3680D02*
X6879D01*
X6643Y4310D02*
X6879D01*
X18849Y4935D02*
X19479D01*
X18849Y5010D02*
X19479D01*
X18849Y4774D02*
Y5010D01*
X19479Y4774D02*
Y5010D01*
X18613Y5941D02*
X19715D01*
X19715Y5941D02*
Y7043D01*
X18613D02*
X19715D01*
X18613Y5941D02*
Y7043D01*
Y2741D02*
X19715D01*
X19715Y2741D02*
Y3843D01*
X18613D02*
X19715D01*
X18613Y2741D02*
Y3843D01*
X18262Y4786D02*
Y5298D01*
X2852Y5344D02*
Y5856D01*
X4359Y3739D02*
Y4251D01*
D16*
X16764Y3842D02*
Y4642D01*
Y3842D02*
X18264D01*
Y4642D01*
X16764D02*
X18264D01*
X1750Y17300D02*
X3050D01*
Y16700D02*
Y17300D01*
X1750Y16700D02*
X3050D01*
X1750D02*
Y17300D01*
X9130Y6598D02*
Y6992D01*
Y5998D02*
Y6392D01*
X10611Y6495D02*
Y7095D01*
X9311D02*
X10611D01*
X9311Y6495D02*
Y7095D01*
Y6495D02*
X10611D01*
Y5895D02*
Y6495D01*
X9311D02*
X10611D01*
X9311Y5895D02*
Y6495D01*
Y5895D02*
X10611D01*
X15881Y23485D02*
X17181D01*
Y22885D02*
Y23485D01*
X15881Y22885D02*
X17181D01*
X15881D02*
Y23485D01*
X14581D02*
X15881D01*
Y22885D02*
Y23485D01*
X14581Y22885D02*
X15881D01*
X14581D02*
Y23485D01*
X16560Y21290D02*
Y22590D01*
X17160D01*
Y21290D02*
Y22590D01*
X16560Y21290D02*
X17160D01*
X15811Y21195D02*
X17111D01*
Y20595D02*
Y21195D01*
X15811Y20595D02*
X17111D01*
X15811D02*
Y21195D01*
X14461Y21145D02*
Y22445D01*
X15061D01*
Y21145D02*
Y22445D01*
X14461Y21145D02*
X15061D01*
X13861D02*
Y22445D01*
X14461D01*
Y21145D02*
Y22445D01*
X13861Y21145D02*
X14461D01*
X17900Y15253D02*
Y16553D01*
X17300Y15253D02*
X17900D01*
X17300D02*
Y16553D01*
X17900D01*
X17300Y15253D02*
Y16553D01*
X16700Y15253D02*
X17300D01*
X16700D02*
Y16553D01*
X17300D01*
X15750Y10903D02*
X17050D01*
X15750D02*
Y11503D01*
X17050D01*
Y10903D02*
Y11503D01*
Y10903D02*
X18350D01*
X17050D02*
Y11503D01*
X18350D01*
Y10903D02*
Y11503D01*
X14450Y14003D02*
X15750D01*
Y13403D02*
Y14003D01*
X14450Y13403D02*
X15750D01*
X14450D02*
Y14003D01*
Y13403D02*
X15750D01*
Y12803D02*
Y13403D01*
X14450Y12803D02*
X15750D01*
X14450D02*
Y13403D01*
X10811Y9895D02*
Y10495D01*
Y9895D02*
X12111D01*
Y10495D01*
X10811D02*
X12111D01*
X9071Y9495D02*
X10371D01*
Y8895D02*
Y9495D01*
X9071Y8895D02*
X10371D01*
X9071D02*
Y9495D01*
X7771D02*
X9071D01*
Y8895D02*
Y9495D01*
X7771Y8895D02*
X9071D01*
X7771D02*
Y9495D01*
X7000Y4450D02*
Y5750D01*
X7600D01*
Y4450D02*
Y5750D01*
X7000Y4450D02*
X7600D01*
X1048Y7799D02*
X2548D01*
Y6999D02*
Y7799D01*
X1048Y6999D02*
X2548D01*
X1048D02*
Y7799D01*
X2862Y4396D02*
X4362D01*
X2862D02*
Y5196D01*
X4362D01*
Y4396D02*
Y5196D01*
D17*
X17781Y21009D02*
X18140D01*
X17360Y21581D02*
X17766D01*
X17360Y21009D02*
Y21581D01*
X18155D02*
X18562D01*
Y21009D02*
Y21581D01*
X18462Y18223D02*
Y19618D01*
X14465Y18223D02*
X18462D01*
X14465D02*
Y19618D01*
X18462D01*
X8762Y3601D02*
Y5590D01*
Y3601D02*
X9960D01*
Y5590D01*
X8762D02*
X9960D01*
X14565Y4298D02*
Y6287D01*
Y4298D02*
X15763D01*
Y6287D01*
X14565D02*
X15763D01*
X15257Y24140D02*
X14990D01*
Y23740D01*
X15257D01*
X14990Y23940D02*
X15123D01*
X15390D02*
X15656D01*
X17197Y25050D02*
X16930D01*
Y24650D01*
X17197D01*
X16930Y24850D02*
X17063D01*
X17330D02*
X17596D01*
X17463Y24983D02*
Y24717D01*
X12317Y10400D02*
Y10000D01*
X12583D01*
X12917D02*
Y10400D01*
X12717Y10200D01*
X12983D01*
X19831Y4426D02*
X19764Y4359D01*
Y4226D01*
X19831Y4159D01*
X20097D01*
X20164Y4226D01*
Y4359D01*
X20097Y4426D01*
X19764Y4559D02*
X20164D01*
Y4759D01*
X20097Y4826D01*
X20030D01*
X19964Y4759D01*
Y4559D01*
Y4759D01*
X19897Y4826D01*
X19831D01*
X19764Y4759D01*
Y4559D01*
X20164Y4959D02*
X19897D01*
X19764Y5092D01*
X19897Y5225D01*
X20164D01*
X19964D01*
Y4959D01*
X19764Y5359D02*
Y5625D01*
Y5492D01*
X20164D01*
X18517Y14181D02*
Y13848D01*
X18583Y13781D01*
X18717D01*
X18783Y13848D01*
Y14181D01*
X19183D02*
X19050Y14114D01*
X18917Y13981D01*
Y13848D01*
X18983Y13781D01*
X19117D01*
X19183Y13848D01*
Y13914D01*
X19117Y13981D01*
X18917D01*
X13440Y18901D02*
Y18568D01*
X13507Y18501D01*
X13640D01*
X13707Y18568D01*
Y18901D01*
X14106D02*
X13840D01*
Y18701D01*
X13973Y18767D01*
X14040D01*
X14106Y18701D01*
Y18568D01*
X14040Y18501D01*
X13907D01*
X13840Y18568D01*
X2987Y20360D02*
Y20027D01*
X3053Y19960D01*
X3187D01*
X3253Y20027D01*
Y20360D01*
X3587Y19960D02*
Y20360D01*
X3387Y20160D01*
X3653D01*
X6927Y9495D02*
Y9162D01*
X6994Y9095D01*
X7127D01*
X7194Y9162D01*
Y9495D01*
X7327Y9429D02*
X7394Y9495D01*
X7527D01*
X7594Y9429D01*
Y9362D01*
X7527Y9295D01*
X7461D01*
X7527D01*
X7594Y9229D01*
Y9162D01*
X7527Y9095D01*
X7394D01*
X7327Y9162D01*
X13711Y7115D02*
Y6782D01*
X13777Y6715D01*
X13911D01*
X13977Y6782D01*
Y7115D01*
X14377Y6715D02*
X14110D01*
X14377Y6982D01*
Y7049D01*
X14310Y7115D01*
X14177D01*
X14110Y7049D01*
X11194Y4095D02*
Y3762D01*
X11261Y3695D01*
X11394D01*
X11461Y3762D01*
Y4095D01*
X11594Y3695D02*
X11727D01*
X11661D01*
Y4095D01*
X11594Y4029D01*
X2400Y10333D02*
X2333Y10400D01*
X2200D01*
X2133Y10333D01*
Y10267D01*
X2200Y10200D01*
X2333D01*
X2400Y10133D01*
Y10067D01*
X2333Y10000D01*
X2200D01*
X2133Y10067D01*
X2533Y10400D02*
Y10000D01*
X2667Y10133D01*
X2800Y10000D01*
Y10400D01*
X2933Y10000D02*
X3067D01*
X3000D01*
Y10400D01*
X2933Y10333D01*
X17900Y9603D02*
X17500D01*
Y9803D01*
X17567Y9870D01*
X17700D01*
X17767Y9803D01*
Y9603D01*
Y9737D02*
X17900Y9870D01*
Y10003D02*
Y10136D01*
Y10070D01*
X17500D01*
X17567Y10003D01*
X17833Y10336D02*
X17900Y10403D01*
Y10536D01*
X17833Y10603D01*
X17567D01*
X17500Y10536D01*
Y10403D01*
X17567Y10336D01*
X17633D01*
X17700Y10403D01*
Y10603D01*
X16500Y9603D02*
X16100D01*
Y9803D01*
X16167Y9870D01*
X16300D01*
X16367Y9803D01*
Y9603D01*
Y9737D02*
X16500Y9870D01*
Y10003D02*
Y10136D01*
Y10070D01*
X16100D01*
X16167Y10003D01*
Y10336D02*
X16100Y10403D01*
Y10536D01*
X16167Y10603D01*
X16233D01*
X16300Y10536D01*
X16367Y10603D01*
X16433D01*
X16500Y10536D01*
Y10403D01*
X16433Y10336D01*
X16367D01*
X16300Y10403D01*
X16233Y10336D01*
X16167D01*
X16300Y10403D02*
Y10536D01*
X13200Y12903D02*
Y13303D01*
X13400D01*
X13467Y13236D01*
Y13103D01*
X13400Y13037D01*
X13200D01*
X13333D02*
X13467Y12903D01*
X13600D02*
X13733D01*
X13667D01*
Y13303D01*
X13600Y13236D01*
X13933Y13303D02*
X14200D01*
Y13236D01*
X13933Y12970D01*
Y12903D01*
X18300Y15303D02*
Y15703D01*
X18500D01*
X18567Y15636D01*
Y15503D01*
X18500Y15437D01*
X18300D01*
X18433D02*
X18567Y15303D01*
X18700D02*
X18833D01*
X18767D01*
Y15703D01*
X18700Y15636D01*
X19300Y15703D02*
X19167Y15636D01*
X19033Y15503D01*
Y15370D01*
X19100Y15303D01*
X19233D01*
X19300Y15370D01*
Y15437D01*
X19233Y15503D01*
X19033D01*
X18300Y16003D02*
Y16403D01*
X18500D01*
X18567Y16336D01*
Y16203D01*
X18500Y16136D01*
X18300D01*
X18433D02*
X18567Y16003D01*
X18700D02*
X18833D01*
X18767D01*
Y16403D01*
X18700Y16336D01*
X19300Y16403D02*
X19033D01*
Y16203D01*
X19167Y16270D01*
X19233D01*
X19300Y16203D01*
Y16070D01*
X19233Y16003D01*
X19100D01*
X19033Y16070D01*
X13200Y13603D02*
Y14003D01*
X13400D01*
X13467Y13936D01*
Y13803D01*
X13400Y13736D01*
X13200D01*
X13333D02*
X13467Y13603D01*
X13600D02*
X13733D01*
X13667D01*
Y14003D01*
X13600Y13936D01*
X14133Y13603D02*
Y14003D01*
X13933Y13803D01*
X14200D01*
X13170Y23200D02*
Y23600D01*
X13370D01*
X13437Y23533D01*
Y23400D01*
X13370Y23333D01*
X13170D01*
X13303D02*
X13437Y23200D01*
X13570D02*
X13703D01*
X13637D01*
Y23600D01*
X13570Y23533D01*
X13903D02*
X13970Y23600D01*
X14103D01*
X14170Y23533D01*
Y23467D01*
X14103Y23400D01*
X14037D01*
X14103D01*
X14170Y23333D01*
Y23267D01*
X14103Y23200D01*
X13970D01*
X13903Y23267D01*
X17110Y23690D02*
Y24090D01*
X17310D01*
X17377Y24023D01*
Y23890D01*
X17310Y23823D01*
X17110D01*
X17243D02*
X17377Y23690D01*
X17510D02*
X17643D01*
X17577D01*
Y24090D01*
X17510Y24023D01*
X18110Y23690D02*
X17843D01*
X18110Y23957D01*
Y24023D01*
X18043Y24090D01*
X17910D01*
X17843Y24023D01*
X13187Y22620D02*
Y23020D01*
X13387D01*
X13453Y22953D01*
Y22820D01*
X13387Y22753D01*
X13187D01*
X13320D02*
X13453Y22620D01*
X13587D02*
X13720D01*
X13653D01*
Y23020D01*
X13587Y22953D01*
X13920Y22620D02*
X14053D01*
X13987D01*
Y23020D01*
X13920Y22953D01*
X12561Y21695D02*
Y22095D01*
X12761D01*
X12827Y22029D01*
Y21895D01*
X12761Y21829D01*
X12561D01*
X12694D02*
X12827Y21695D01*
X12961D02*
X13094D01*
X13027D01*
Y22095D01*
X12961Y22029D01*
X13294D02*
X13361Y22095D01*
X13494D01*
X13560Y22029D01*
Y21762D01*
X13494Y21695D01*
X13361D01*
X13294Y21762D01*
Y22029D01*
X15960Y22063D02*
X16360D01*
Y21863D01*
X16293Y21797D01*
X16160D01*
X16093Y21863D01*
Y22063D01*
Y21930D02*
X15960Y21797D01*
X16027Y21663D02*
X15960Y21597D01*
Y21463D01*
X16027Y21397D01*
X16293D01*
X16360Y21463D01*
Y21597D01*
X16293Y21663D01*
X16227D01*
X16160Y21597D01*
Y21397D01*
X17427Y22840D02*
Y23240D01*
X17627D01*
X17693Y23173D01*
Y23040D01*
X17627Y22973D01*
X17427D01*
X17560D02*
X17693Y22840D01*
X17827Y23173D02*
X17893Y23240D01*
X18027D01*
X18093Y23173D01*
Y23107D01*
X18027Y23040D01*
X18093Y22973D01*
Y22907D01*
X18027Y22840D01*
X17893D01*
X17827Y22907D01*
Y22973D01*
X17893Y23040D01*
X17827Y23107D01*
Y23173D01*
X17893Y23040D02*
X18027D01*
X8087Y8295D02*
Y8695D01*
X8287D01*
X8354Y8629D01*
Y8495D01*
X8287Y8429D01*
X8087D01*
X8221D02*
X8354Y8295D01*
X8487Y8695D02*
X8754D01*
Y8629D01*
X8487Y8362D01*
Y8295D01*
X9487D02*
Y8695D01*
X9687D01*
X9754Y8629D01*
Y8495D01*
X9687Y8429D01*
X9487D01*
X9621D02*
X9754Y8295D01*
X10154Y8695D02*
X10021Y8629D01*
X9887Y8495D01*
Y8362D01*
X9954Y8295D01*
X10087D01*
X10154Y8362D01*
Y8429D01*
X10087Y8495D01*
X9887D01*
X15887Y3830D02*
Y4230D01*
X16087D01*
X16153Y4163D01*
Y4030D01*
X16087Y3963D01*
X15887D01*
X16020D02*
X16153Y3830D01*
X16553Y4230D02*
X16287D01*
Y4030D01*
X16420Y4097D01*
X16487D01*
X16553Y4030D01*
Y3897D01*
X16487Y3830D01*
X16353D01*
X16287Y3897D01*
X6106Y5205D02*
Y5605D01*
X6306D01*
X6373Y5538D01*
Y5405D01*
X6306Y5338D01*
X6106D01*
X6239D02*
X6373Y5205D01*
X6706D02*
Y5605D01*
X6506Y5405D01*
X6773D01*
X10827Y5995D02*
Y6395D01*
X11027D01*
X11094Y6329D01*
Y6195D01*
X11027Y6129D01*
X10827D01*
X10961D02*
X11094Y5995D01*
X11227Y6329D02*
X11294Y6395D01*
X11427D01*
X11494Y6329D01*
Y6262D01*
X11427Y6195D01*
X11361D01*
X11427D01*
X11494Y6129D01*
Y6062D01*
X11427Y5995D01*
X11294D01*
X11227Y6062D01*
X10827Y6695D02*
Y7095D01*
X11027D01*
X11094Y7029D01*
Y6895D01*
X11027Y6829D01*
X10827D01*
X10961D02*
X11094Y6695D01*
X11494D02*
X11227D01*
X11494Y6962D01*
Y7029D01*
X11427Y7095D01*
X11294D01*
X11227Y7029D01*
X6194Y4595D02*
Y4995D01*
X6394D01*
X6461Y4929D01*
Y4795D01*
X6394Y4729D01*
X6194D01*
X6327D02*
X6461Y4595D01*
X6594D02*
X6727D01*
X6661D01*
Y4995D01*
X6594Y4929D01*
X19161Y21162D02*
Y21429D01*
X19094Y21495D01*
X18961D01*
X18894Y21429D01*
Y21162D01*
X18961Y21095D01*
X19094D01*
X19027Y21229D02*
X19161Y21095D01*
X19094D02*
X19161Y21162D01*
X19294Y21095D02*
X19427D01*
X19361D01*
Y21495D01*
X19294Y21429D01*
X12777Y24630D02*
Y24897D01*
X12910Y25030D01*
X13043Y24897D01*
Y24630D01*
Y24830D01*
X12777D01*
X13177D02*
X13443D01*
X13310Y24963D02*
Y24697D01*
X18187Y7790D02*
Y7390D01*
X18387D01*
X18453Y7457D01*
Y7523D01*
X18387Y7590D01*
X18187D01*
X18387D01*
X18453Y7657D01*
Y7723D01*
X18387Y7790D01*
X18187D01*
X18587Y7390D02*
Y7657D01*
X18720Y7790D01*
X18853Y7657D01*
Y7390D01*
Y7590D01*
X18587D01*
X18987Y7790D02*
X19253D01*
X19120D01*
Y7390D01*
X19387Y7590D02*
X19653D01*
X16767Y2970D02*
Y2570D01*
X16967D01*
X17033Y2637D01*
Y2703D01*
X16967Y2770D01*
X16767D01*
X16967D01*
X17033Y2837D01*
Y2903D01*
X16967Y2970D01*
X16767D01*
X17167Y2570D02*
Y2837D01*
X17300Y2970D01*
X17433Y2837D01*
Y2570D01*
Y2770D01*
X17167D01*
X17567Y2970D02*
X17833D01*
X17700D01*
Y2570D01*
X17967Y2770D02*
X18233D01*
X18100Y2903D02*
Y2637D01*
X8467Y13500D02*
Y13100D01*
X8733D01*
X8867Y13433D02*
X8933Y13500D01*
X9067D01*
X9133Y13433D01*
Y13367D01*
X9067Y13300D01*
X9000D01*
X9067D01*
X9133Y13233D01*
Y13167D01*
X9067Y13100D01*
X8933D01*
X8867Y13167D01*
X1771Y17999D02*
Y17599D01*
X2037D01*
X2437D02*
X2171D01*
X2437Y17866D01*
Y17932D01*
X2370Y17999D01*
X2237D01*
X2171Y17932D01*
X2833Y7600D02*
Y7200D01*
X3100D01*
X3233D02*
X3367D01*
X3300D01*
Y7600D01*
X3233Y7533D01*
X3039Y2605D02*
X2906D01*
X2973D01*
Y2271D01*
X2906Y2205D01*
X2839D01*
X2773Y2271D01*
X3173Y2205D02*
X3306D01*
X3239D01*
Y2605D01*
X3173Y2538D01*
X4961Y4995D02*
X4694D01*
Y4795D01*
X4827D01*
X4694D01*
Y4595D01*
X5094D02*
X5227D01*
X5161D01*
Y4995D01*
X5094Y4929D01*
X7067Y6400D02*
Y6000D01*
X7267D01*
X7333Y6067D01*
Y6333D01*
X7267Y6400D01*
X7067D01*
X7733Y6000D02*
X7467D01*
X7733Y6267D01*
Y6333D01*
X7667Y6400D01*
X7533D01*
X7467Y6333D01*
X7133Y7000D02*
Y6600D01*
X7333D01*
X7400Y6667D01*
Y6933D01*
X7333Y7000D01*
X7133D01*
X7533Y6600D02*
X7667D01*
X7600D01*
Y7000D01*
X7533Y6933D01*
X14267Y16136D02*
X14200Y16203D01*
X14067D01*
X14000Y16136D01*
Y15870D01*
X14067Y15803D01*
X14200D01*
X14267Y15870D01*
X14400Y15803D02*
X14533D01*
X14467D01*
Y16203D01*
X14400Y16136D01*
X14733Y15870D02*
X14800Y15803D01*
X14933D01*
X15000Y15870D01*
Y16136D01*
X14933Y16203D01*
X14800D01*
X14733Y16136D01*
Y16070D01*
X14800Y16003D01*
X15000D01*
X14267Y15436D02*
X14200Y15503D01*
X14067D01*
X14000Y15436D01*
Y15170D01*
X14067Y15103D01*
X14200D01*
X14267Y15170D01*
X14400Y15103D02*
X14533D01*
X14467D01*
Y15503D01*
X14400Y15436D01*
X14733D02*
X14800Y15503D01*
X14933D01*
X15000Y15436D01*
Y15370D01*
X14933Y15303D01*
X15000Y15237D01*
Y15170D01*
X14933Y15103D01*
X14800D01*
X14733Y15170D01*
Y15237D01*
X14800Y15303D01*
X14733Y15370D01*
Y15436D01*
X14800Y15303D02*
X14933D01*
X17267Y17133D02*
X17200Y17200D01*
X17067D01*
X17000Y17133D01*
Y16867D01*
X17067Y16800D01*
X17200D01*
X17267Y16867D01*
X17400Y16800D02*
X17533D01*
X17467D01*
Y17200D01*
X17400Y17133D01*
X17733Y17200D02*
X18000D01*
Y17133D01*
X17733Y16867D01*
Y16800D01*
X14067Y17133D02*
X14000Y17200D01*
X13867D01*
X13800Y17133D01*
Y16867D01*
X13867Y16800D01*
X14000D01*
X14067Y16867D01*
X14200Y16800D02*
X14333D01*
X14267D01*
Y17200D01*
X14200Y17133D01*
X14800Y17200D02*
X14667Y17133D01*
X14533Y17000D01*
Y16867D01*
X14600Y16800D01*
X14733D01*
X14800Y16867D01*
Y16933D01*
X14733Y17000D01*
X14533D01*
X12727Y21029D02*
X12661Y21095D01*
X12527D01*
X12461Y21029D01*
Y20762D01*
X12527Y20695D01*
X12661D01*
X12727Y20762D01*
X12861Y20695D02*
X12994D01*
X12927D01*
Y21095D01*
X12861Y21029D01*
X13460Y21095D02*
X13194D01*
Y20895D01*
X13327Y20962D01*
X13394D01*
X13460Y20895D01*
Y20762D01*
X13394Y20695D01*
X13261D01*
X13194Y20762D01*
X15637Y22583D02*
X15570Y22650D01*
X15437D01*
X15370Y22583D01*
Y22317D01*
X15437Y22250D01*
X15570D01*
X15637Y22317D01*
X15770Y22250D02*
X15903D01*
X15837D01*
Y22650D01*
X15770Y22583D01*
X16303Y22250D02*
Y22650D01*
X16103Y22450D01*
X16370D01*
X2727Y22529D02*
X2661Y22595D01*
X2527D01*
X2461Y22529D01*
Y22262D01*
X2527Y22195D01*
X2661D01*
X2727Y22262D01*
X2861Y22195D02*
X2994D01*
X2927D01*
Y22595D01*
X2861Y22529D01*
X3194D02*
X3261Y22595D01*
X3394D01*
X3460Y22529D01*
Y22462D01*
X3394Y22395D01*
X3327D01*
X3394D01*
X3460Y22329D01*
Y22262D01*
X3394Y22195D01*
X3261D01*
X3194Y22262D01*
X2727Y21829D02*
X2661Y21895D01*
X2527D01*
X2461Y21829D01*
Y21562D01*
X2527Y21495D01*
X2661D01*
X2727Y21562D01*
X2861Y21495D02*
X2994D01*
X2927D01*
Y21895D01*
X2861Y21829D01*
X3460Y21495D02*
X3194D01*
X3460Y21762D01*
Y21829D01*
X3394Y21895D01*
X3261D01*
X3194Y21829D01*
X18833Y23133D02*
X18767Y23200D01*
X18633D01*
X18567Y23133D01*
Y22867D01*
X18633Y22800D01*
X18767D01*
X18833Y22867D01*
X18967Y22800D02*
X19100D01*
X19033D01*
Y23200D01*
X18967Y23133D01*
X19300Y22800D02*
X19433D01*
X19367D01*
Y23200D01*
X19300Y23133D01*
X18855Y20606D02*
X18788Y20672D01*
X18655D01*
X18588Y20606D01*
Y20339D01*
X18655Y20273D01*
X18788D01*
X18855Y20339D01*
X18988Y20273D02*
X19122D01*
X19055D01*
Y20672D01*
X18988Y20606D01*
X19321D02*
X19388Y20672D01*
X19521D01*
X19588Y20606D01*
Y20339D01*
X19521Y20273D01*
X19388D01*
X19321Y20339D01*
Y20606D01*
X18825Y17259D02*
X18758Y17326D01*
X18625D01*
X18558Y17259D01*
Y16993D01*
X18625Y16926D01*
X18758D01*
X18825Y16993D01*
X18958D02*
X19025Y16926D01*
X19158D01*
X19225Y16993D01*
Y17259D01*
X19158Y17326D01*
X19025D01*
X18958Y17259D01*
Y17193D01*
X19025Y17126D01*
X19225D01*
X10283Y11783D02*
X10217Y11850D01*
X10083D01*
X10017Y11783D01*
Y11517D01*
X10083Y11450D01*
X10217D01*
X10283Y11517D01*
X10417Y11783D02*
X10483Y11850D01*
X10617D01*
X10683Y11783D01*
Y11717D01*
X10617Y11650D01*
X10683Y11583D01*
Y11517D01*
X10617Y11450D01*
X10483D01*
X10417Y11517D01*
Y11583D01*
X10483Y11650D01*
X10417Y11717D01*
Y11783D01*
X10483Y11650D02*
X10617D01*
X10883Y9633D02*
X10817Y9700D01*
X10683D01*
X10617Y9633D01*
Y9367D01*
X10683Y9300D01*
X10817D01*
X10883Y9367D01*
X11017Y9700D02*
X11283D01*
Y9633D01*
X11017Y9367D01*
Y9300D01*
X17147Y5875D02*
X17081Y5942D01*
X16947D01*
X16881Y5875D01*
Y5609D01*
X16947Y5542D01*
X17081D01*
X17147Y5609D01*
X17547Y5942D02*
X17414Y5875D01*
X17280Y5742D01*
Y5609D01*
X17347Y5542D01*
X17480D01*
X17547Y5609D01*
Y5676D01*
X17480Y5742D01*
X17280D01*
X6288Y10597D02*
X6221Y10664D01*
X6088D01*
X6021Y10597D01*
Y10331D01*
X6088Y10264D01*
X6221D01*
X6288Y10331D01*
X6688Y10664D02*
X6421D01*
Y10464D01*
X6554Y10531D01*
X6621D01*
X6688Y10464D01*
Y10331D01*
X6621Y10264D01*
X6488D01*
X6421Y10331D01*
X11594Y3229D02*
X11527Y3295D01*
X11394D01*
X11327Y3229D01*
Y2962D01*
X11394Y2895D01*
X11527D01*
X11594Y2962D01*
X11927Y2895D02*
Y3295D01*
X11727Y3095D01*
X11994D01*
X6794Y3229D02*
X6727Y3295D01*
X6594D01*
X6527Y3229D01*
Y2962D01*
X6594Y2895D01*
X6727D01*
X6794Y2962D01*
X6927Y3229D02*
X6994Y3295D01*
X7127D01*
X7194Y3229D01*
Y3162D01*
X7127Y3095D01*
X7061D01*
X7127D01*
X7194Y3029D01*
Y2962D01*
X7127Y2895D01*
X6994D01*
X6927Y2962D01*
X4933Y5733D02*
X4867Y5800D01*
X4733D01*
X4667Y5733D01*
Y5467D01*
X4733Y5400D01*
X4867D01*
X4933Y5467D01*
X5333Y5400D02*
X5067D01*
X5333Y5667D01*
Y5733D01*
X5267Y5800D01*
X5133D01*
X5067Y5733D01*
X4961Y4129D02*
X4894Y4195D01*
X4761D01*
X4694Y4129D01*
Y3862D01*
X4761Y3795D01*
X4894D01*
X4961Y3862D01*
X5094Y3795D02*
X5227D01*
X5161D01*
Y4195D01*
X5094Y4129D01*
D18*
X8974Y9695D02*
Y10896D01*
X7747Y9695D02*
Y10896D01*
M02*
