G04*
G04 #@! TF.GenerationSoftware,Altium Limited,Altium Designer,22.1.2 (22)*
G04*
G04 Layer_Color=8421504*
%FSLAX24Y24*%
%MOIN*%
G70*
G04*
G04 #@! TF.SameCoordinates,162C4C40-B8F5-4961-9C55-0291AD4F2388*
G04*
G04*
G04 #@! TF.FilePolarity,Positive*
G04*
G01*
G75*
%ADD19R,0.0630X0.0709*%
%ADD20R,0.0512X0.0591*%
%ADD21R,0.0433X0.0394*%
%ADD22R,0.0394X0.0512*%
%ADD23R,0.0512X0.0394*%
%ADD24R,0.0276X0.0492*%
%ADD25R,0.0394X0.0433*%
%ADD26O,0.0236X0.0748*%
%ADD27O,0.0220X0.0687*%
%ADD28R,0.0630X0.1024*%
%ADD29R,0.0236X0.0256*%
%ADD30R,0.0591X0.0512*%
G04:AMPARAMS|DCode=31|XSize=31.9mil|YSize=10.2mil|CornerRadius=1.3mil|HoleSize=0mil|Usage=FLASHONLY|Rotation=270.000|XOffset=0mil|YOffset=0mil|HoleType=Round|Shape=RoundedRectangle|*
%AMROUNDEDRECTD31*
21,1,0.0319,0.0077,0,0,270.0*
21,1,0.0293,0.0102,0,0,270.0*
1,1,0.0026,-0.0038,-0.0147*
1,1,0.0026,-0.0038,0.0147*
1,1,0.0026,0.0038,0.0147*
1,1,0.0026,0.0038,-0.0147*
%
%ADD31ROUNDEDRECTD31*%
%ADD32R,0.0787X0.0787*%
%ADD33O,0.0802X0.0226*%
%ADD34R,0.0709X0.0630*%
%ADD35R,0.0591X0.0315*%
%ADD36R,0.0591X0.0299*%
%ADD37R,0.0591X0.0276*%
G36*
X812Y3289D02*
X855D01*
X934Y3256D01*
X995Y3195D01*
X1028Y3116D01*
Y3030D01*
X995Y2950D01*
X934Y2889D01*
X855Y2856D01*
X812D01*
D01*
X536D01*
X493D01*
X413Y2889D01*
X353Y2950D01*
X320Y3030D01*
Y3116D01*
X353Y3195D01*
X413Y3256D01*
X493Y3289D01*
X536D01*
D01*
X812D01*
D02*
G37*
G36*
X2308D02*
X2351D01*
X2430Y3256D01*
X2491Y3195D01*
X2524Y3116D01*
Y3030D01*
X2491Y2950D01*
X2430Y2889D01*
X2351Y2856D01*
X2308D01*
D01*
X2032D01*
X1989D01*
X1909Y2889D01*
X1849Y2950D01*
X1816Y3030D01*
Y3116D01*
X1849Y3195D01*
X1909Y3256D01*
X1989Y3289D01*
X2032D01*
D01*
X2308D01*
D02*
G37*
G36*
X2524Y3848D02*
Y3533D01*
X1934D01*
Y3848D01*
X2524D01*
D02*
G37*
G36*
Y4324D02*
Y4025D01*
X1934D01*
Y4324D01*
X2524D01*
D02*
G37*
G36*
Y4714D02*
Y4438D01*
X1934D01*
Y4714D01*
X2524D01*
D02*
G37*
G36*
X2430Y6658D02*
X2491Y6597D01*
X2524Y6517D01*
Y6431D01*
X2491Y6352D01*
X2430Y6291D01*
X2351Y6258D01*
X1989D01*
X1909Y6291D01*
X1849Y6352D01*
X1816Y6431D01*
Y6517D01*
X1849Y6597D01*
X1909Y6658D01*
X1989Y6691D01*
X2351D01*
X2430Y6658D01*
D02*
G37*
G36*
X934D02*
X995Y6597D01*
X1028Y6517D01*
Y6431D01*
X995Y6352D01*
X934Y6291D01*
X855Y6258D01*
X493D01*
X413Y6291D01*
X353Y6352D01*
X320Y6431D01*
Y6517D01*
X353Y6597D01*
X413Y6658D01*
X493Y6691D01*
X855D01*
X934Y6658D01*
D02*
G37*
G36*
X2524Y5698D02*
X1934D01*
Y6013D01*
X2524D01*
Y5698D01*
D02*
G37*
G36*
Y5222D02*
X1934D01*
Y5521D01*
X2524D01*
Y5222D01*
D02*
G37*
G36*
Y4832D02*
X1934D01*
Y5108D01*
X2524D01*
Y4832D01*
D02*
G37*
D19*
X9709Y3095D02*
D03*
X10812D02*
D03*
X8912D02*
D03*
X7809D02*
D03*
X7312Y3995D02*
D03*
X6209D02*
D03*
D20*
X17140Y4242D02*
D03*
X17888D02*
D03*
X17888Y5042D02*
D03*
X17140D02*
D03*
X2172Y7399D02*
D03*
X1424D02*
D03*
X3226Y5600D02*
D03*
X3974D02*
D03*
X3238Y4796D02*
D03*
X3986D02*
D03*
X3985Y3995D02*
D03*
X3237D02*
D03*
D21*
X2065Y17000D02*
D03*
X2735D02*
D03*
X8795Y6795D02*
D03*
X8126D02*
D03*
Y6195D02*
D03*
X8795D02*
D03*
X9626Y6795D02*
D03*
X10295D02*
D03*
X9626Y6195D02*
D03*
X10295D02*
D03*
X14795Y20795D02*
D03*
X14126D02*
D03*
X16196Y23185D02*
D03*
X16865D02*
D03*
X14896D02*
D03*
X15565D02*
D03*
X18635Y22300D02*
D03*
X17965D02*
D03*
X16126Y20895D02*
D03*
X16795D02*
D03*
X4695Y21695D02*
D03*
X4026D02*
D03*
X4026Y22195D02*
D03*
X4695D02*
D03*
X16735Y11203D02*
D03*
X16065D02*
D03*
X18035D02*
D03*
X17365D02*
D03*
X14765Y13703D02*
D03*
X15435D02*
D03*
X14765Y13103D02*
D03*
X15435D02*
D03*
X16235Y15403D02*
D03*
X15565D02*
D03*
X15565Y15903D02*
D03*
X16235D02*
D03*
X11795Y10195D02*
D03*
X11126D02*
D03*
X9386Y9195D02*
D03*
X10055D02*
D03*
X8086D02*
D03*
X8755D02*
D03*
D22*
X6292Y17521D02*
D03*
X6882D02*
D03*
X7472D02*
D03*
X8062D02*
D03*
X8662D02*
D03*
X9252D02*
D03*
X9842D02*
D03*
X10432D02*
D03*
D23*
X5463Y22185D02*
D03*
Y21585D02*
D03*
Y20995D02*
D03*
Y20405D02*
D03*
Y19815D02*
D03*
Y19225D02*
D03*
Y18635D02*
D03*
Y18045D02*
D03*
X11261Y22185D02*
D03*
Y21585D02*
D03*
Y20995D02*
D03*
Y20405D02*
D03*
Y19815D02*
D03*
Y19225D02*
D03*
Y18635D02*
D03*
Y18045D02*
D03*
D24*
X17961Y21689D02*
D03*
X18335Y20902D02*
D03*
X17587D02*
D03*
D25*
X18861Y19930D02*
D03*
Y19261D02*
D03*
X16860Y21605D02*
D03*
Y22275D02*
D03*
X15461Y21530D02*
D03*
Y20861D02*
D03*
X14761Y21461D02*
D03*
Y22130D02*
D03*
X14161Y21461D02*
D03*
Y22130D02*
D03*
X18861Y18430D02*
D03*
Y17761D02*
D03*
X17600Y16238D02*
D03*
Y15568D02*
D03*
X17000Y16238D02*
D03*
Y15568D02*
D03*
X7300Y4765D02*
D03*
Y5435D02*
D03*
D26*
X17800Y14700D02*
D03*
X17300D02*
D03*
X16800D02*
D03*
X16300D02*
D03*
X17800Y12062D02*
D03*
X17300D02*
D03*
X16800D02*
D03*
X16300D02*
D03*
D27*
X18213Y20052D02*
D03*
X17713D02*
D03*
X17213D02*
D03*
X16713D02*
D03*
X16213D02*
D03*
X15713D02*
D03*
X15213D02*
D03*
X14713D02*
D03*
X18213Y17790D02*
D03*
X17713D02*
D03*
X17213D02*
D03*
X16713D02*
D03*
X16213D02*
D03*
X15713D02*
D03*
X15213D02*
D03*
X14713D02*
D03*
D28*
X8175Y12209D02*
D03*
X9435D02*
D03*
D29*
X16597Y17200D02*
D03*
X16203D02*
D03*
X15697D02*
D03*
X15303D02*
D03*
D30*
X9461Y10221D02*
D03*
Y10969D02*
D03*
X10161Y10221D02*
D03*
Y10969D02*
D03*
X7354Y10838D02*
D03*
Y10090D02*
D03*
D31*
X8754Y10864D02*
D03*
X8557D02*
D03*
X8361D02*
D03*
X8164D02*
D03*
X7967D02*
D03*
Y9726D02*
D03*
X8164D02*
D03*
X8361D02*
D03*
X8557D02*
D03*
X8754D02*
D03*
D32*
X9361Y4595D02*
D03*
X15164Y5292D02*
D03*
D33*
X10451Y3845D02*
D03*
Y4345D02*
D03*
Y4845D02*
D03*
Y5345D02*
D03*
X8270Y3845D02*
D03*
Y4345D02*
D03*
Y4845D02*
D03*
Y5345D02*
D03*
X16254Y4542D02*
D03*
Y5042D02*
D03*
Y5542D02*
D03*
Y6042D02*
D03*
X14074Y4542D02*
D03*
Y5042D02*
D03*
Y5542D02*
D03*
Y6042D02*
D03*
D34*
X19164Y4341D02*
D03*
Y5443D02*
D03*
D35*
X2229Y5856D02*
D03*
Y3691D02*
D03*
D36*
Y5372D02*
D03*
Y4175D02*
D03*
D37*
Y4970D02*
D03*
Y4576D02*
D03*
M02*
