G04*
G04 #@! TF.GenerationSoftware,Altium Limited,Altium Designer,22.1.2 (22)*
G04*
G04 Layer_Color=32896*
%FSLAX24Y24*%
%MOIN*%
G70*
G04*
G04 #@! TF.SameCoordinates,162C4C40-B8F5-4961-9C55-0291AD4F2388*
G04*
G04*
G04 #@! TF.FilePolarity,Positive*
G04*
G01*
G75*
G36*
X8444Y7268D02*
X8433Y7287D01*
X8414Y7295D01*
X8352Y7291D01*
X8305Y7295D01*
X8296Y7304D01*
X8292Y7312D01*
X8275Y7329D01*
X8267Y7333D01*
X8257Y7343D01*
X8246Y7362D01*
X8228Y7368D01*
X8201Y7364D01*
X8184Y7378D01*
X8172Y7397D01*
X8166Y7403D01*
X8159Y7407D01*
X8141Y7424D01*
X8138Y7432D01*
X8132Y7438D01*
X8124Y7441D01*
X8110Y7451D01*
X8107Y7467D01*
X8103Y7505D01*
X8097Y7511D01*
X8078Y7523D01*
X8072Y7528D01*
X8068Y7544D01*
X8072Y7559D01*
X8068Y7579D01*
X8062Y7584D01*
X8037Y7598D01*
X8033Y7613D01*
X8029Y7625D01*
X8033Y7636D01*
X8031Y7928D01*
X8035Y7947D01*
X8043Y7955D01*
X8062Y7967D01*
X8068Y7972D01*
X8072Y7988D01*
X8068Y8011D01*
X8078Y8028D01*
X8097Y8040D01*
X8107Y8050D01*
X8110Y8057D01*
X8124Y8071D01*
X8141Y8080D01*
X8145Y8096D01*
X8149Y8135D01*
X8159Y8144D01*
X8178Y8156D01*
X8192Y8177D01*
X8197Y8183D01*
X8248Y8187D01*
X8253Y8192D01*
X8267Y8218D01*
X8284Y8219D01*
X8313Y8218D01*
X8327Y8231D01*
X8331Y8239D01*
X8344Y8256D01*
X8369Y8258D01*
X8392Y8254D01*
X8414Y8252D01*
X8433Y8264D01*
X8439Y8270D01*
X8443Y8277D01*
X8452Y8291D01*
X8468Y8295D01*
X8524Y8293D01*
X8541Y8295D01*
X8553Y8291D01*
X8603Y8295D01*
X8622Y8283D01*
X8636Y8262D01*
X8641Y8256D01*
X8668Y8252D01*
X8684Y8256D01*
X8705Y8258D01*
X8724Y8254D01*
X8736Y8243D01*
X8748Y8223D01*
X8753Y8218D01*
X8790Y8219D01*
X8804Y8214D01*
X8819Y8191D01*
X8827Y8183D01*
X8834Y8179D01*
X8848Y8165D01*
X8852Y8158D01*
X8865Y8144D01*
X8873Y8140D01*
X8887Y8127D01*
X8890Y8119D01*
X8900Y8109D01*
X8908Y8106D01*
X8921Y8092D01*
X8925Y8084D01*
X8939Y8071D01*
X8946Y8067D01*
X8956Y8061D01*
X8960Y8046D01*
X8964Y8007D01*
X8973Y7997D01*
X8993Y7986D01*
X8999Y7969D01*
X8997Y7943D01*
X9002Y7930D01*
X9008Y7924D01*
X9027Y7913D01*
X9033Y7907D01*
X9037Y7880D01*
X9033Y7868D01*
X9035Y7650D01*
X9029Y7636D01*
X9020Y7627D01*
X9000Y7615D01*
X8995Y7598D01*
X8999Y7536D01*
X8981Y7515D01*
X8973Y7511D01*
X8960Y7497D01*
X8956Y7490D01*
X8946Y7480D01*
X8939Y7476D01*
X8925Y7467D01*
X8921Y7451D01*
X8923Y7426D01*
X8917Y7413D01*
X8912Y7407D01*
X8892Y7395D01*
X8887Y7389D01*
X8875Y7370D01*
X8858Y7364D01*
X8831Y7368D01*
X8813Y7355D01*
X8804Y7333D01*
X8788Y7329D01*
X8746Y7326D01*
X8726Y7295D01*
X8711Y7291D01*
X8647Y7293D01*
X8632Y7285D01*
X8618Y7260D01*
X8599Y7252D01*
X8537Y7256D01*
X8462Y7254D01*
X8446Y7262D01*
Y7266D01*
X8444Y7268D01*
D02*
G37*
G36*
X10306Y8997D02*
X10232Y8994D01*
X10219Y8980D01*
X10209Y8963D01*
X10194Y8959D01*
X10130Y8961D01*
X10116Y8951D01*
X10111Y8945D01*
X10107Y8938D01*
X10093Y8924D01*
X10085Y8920D01*
X10072Y8907D01*
X10068Y8899D01*
X10055Y8886D01*
X10047Y8882D01*
X10033Y8868D01*
X10029Y8860D01*
X10020Y8851D01*
X10012Y8847D01*
X9999Y8833D01*
X9995Y8826D01*
X9981Y8812D01*
X9973Y8808D01*
X9960Y8795D01*
X9956Y8787D01*
X9943Y8774D01*
X9925Y8764D01*
X9921Y8737D01*
X9925Y8725D01*
X9914Y8706D01*
X9908Y8700D01*
X9896Y8696D01*
X9887Y8687D01*
X9883Y8636D01*
X9877Y8631D01*
X9858Y8619D01*
X9848Y8609D01*
X9850Y8202D01*
X9840Y8189D01*
X9834Y8183D01*
X9815Y8171D01*
X9811Y8125D01*
X9802Y8111D01*
X9780Y8098D01*
X9761Y8075D01*
X9753Y8067D01*
X9746Y8063D01*
X9740Y8057D01*
X9728Y8038D01*
X9711Y8032D01*
X9672Y8028D01*
X9667Y8023D01*
X9655Y8003D01*
X9649Y7997D01*
X9634Y7994D01*
X9583Y7997D01*
X9462Y7996D01*
X9443Y8011D01*
X9431Y8030D01*
X9381Y8034D01*
X9369Y8046D01*
X9358Y8065D01*
X9338Y8077D01*
X9334Y8084D01*
X9327Y8092D01*
X9323Y8100D01*
X9317Y8106D01*
X9298Y8117D01*
X9292Y8135D01*
X9294Y8198D01*
X9278Y8218D01*
X9259Y8229D01*
X9253Y8250D01*
X9257Y8301D01*
X9255Y8716D01*
X9261Y8729D01*
X9267Y8735D01*
X9286Y8747D01*
X9292Y8752D01*
X9296Y8768D01*
X9292Y8830D01*
X9305Y8847D01*
X9325Y8858D01*
X9331Y8864D01*
X9329Y8936D01*
X9334Y8949D01*
X9344Y8959D01*
X9363Y8970D01*
X9369Y8988D01*
X9365Y9015D01*
X9375Y9028D01*
X9383Y9032D01*
X9404Y9050D01*
X9408Y9057D01*
X9421Y9071D01*
X9429Y9075D01*
X9443Y9088D01*
X9446Y9135D01*
X9456Y9144D01*
X9464Y9148D01*
X9481Y9165D01*
X9485Y9173D01*
X9491Y9179D01*
X9499Y9183D01*
X9516Y9200D01*
X9520Y9208D01*
X9529Y9218D01*
X9537Y9221D01*
X9555Y9239D01*
X9558Y9247D01*
X9568Y9256D01*
X9576Y9260D01*
X9589Y9274D01*
X9593Y9281D01*
X9603Y9291D01*
X9611Y9295D01*
X9628Y9312D01*
X9632Y9320D01*
X9641Y9330D01*
X9649Y9333D01*
X9667Y9351D01*
X9670Y9358D01*
X9680Y9368D01*
X9688Y9372D01*
X9701Y9386D01*
X9705Y9393D01*
X9715Y9403D01*
X9730Y9407D01*
X9746Y9403D01*
X9761Y9407D01*
X9775Y9420D01*
X9778Y9428D01*
X9792Y9442D01*
X9800Y9445D01*
X9809Y9455D01*
X9813Y9463D01*
X9823Y9476D01*
X9838Y9480D01*
X9863Y9478D01*
X9877Y9484D01*
X9883Y9490D01*
X9894Y9509D01*
X9900Y9515D01*
X9927Y9519D01*
X9954Y9515D01*
X9985Y9519D01*
X9995Y9528D01*
X10006Y9548D01*
X10012Y9553D01*
X10084Y9552D01*
X10097Y9557D01*
X10107Y9567D01*
X10118Y9586D01*
X10136Y9592D01*
X10221Y9588D01*
X10721Y9590D01*
X10734Y9581D01*
X10748Y9559D01*
X10753Y9553D01*
X10780Y9550D01*
X10796Y9553D01*
X10838Y9550D01*
X10848Y9540D01*
X10860Y9521D01*
X10877Y9515D01*
X10937Y9517D01*
X10950Y9511D01*
X10960Y9501D01*
X10972Y9482D01*
X10989Y9476D01*
X11000Y9480D01*
X11024Y9476D01*
X11029Y9470D01*
X11033Y9463D01*
X11051Y9442D01*
X11058Y9438D01*
X11072Y9424D01*
X11076Y9416D01*
X11085Y9407D01*
X11101Y9403D01*
X11124Y9407D01*
X11141Y9397D01*
X11157Y9370D01*
X11207Y9366D01*
X11219Y9355D01*
X11230Y9335D01*
X11253Y9320D01*
X11257Y9312D01*
X11271Y9295D01*
X11284Y9293D01*
X11313Y9295D01*
X11327Y9285D01*
X11338Y9266D01*
X11348Y9256D01*
X11356Y9252D01*
X11369Y9239D01*
X11373Y9231D01*
X11383Y9221D01*
X11390Y9218D01*
X11404Y9204D01*
X11408Y9196D01*
X11414Y9187D01*
X11429Y9183D01*
X11468Y9179D01*
X11477Y9169D01*
X11481Y9162D01*
X11487Y9152D01*
X11495Y9148D01*
X11512Y9135D01*
X11516Y9127D01*
X11537Y9106D01*
X11545Y9102D01*
X11551Y9096D01*
X11555Y9088D01*
X11576Y9067D01*
X11584Y9063D01*
X11593Y9050D01*
X11611Y9032D01*
X11618Y9028D01*
X11624Y9023D01*
X11628Y9015D01*
X11649Y8994D01*
X11657Y8990D01*
X11663Y8984D01*
X11667Y8976D01*
X11684Y8959D01*
X11692Y8955D01*
X11697Y8949D01*
X11701Y8942D01*
X11723Y8920D01*
X11730Y8916D01*
X11736Y8911D01*
X11740Y8903D01*
X11761Y8882D01*
X11769Y8878D01*
X11788Y8855D01*
X11796Y8847D01*
X11804Y8843D01*
X11809Y8837D01*
X11813Y8830D01*
X11834Y8808D01*
X11842Y8804D01*
X11848Y8799D01*
X11852Y8791D01*
X11862Y8777D01*
X11881Y8766D01*
X11887Y8760D01*
X11890Y8710D01*
X11914Y8694D01*
X11925Y8683D01*
X11929Y8675D01*
X11939Y8665D01*
X11946Y8662D01*
X11960Y8648D01*
X11964Y8640D01*
X11977Y8627D01*
X11985Y8623D01*
X11995Y8617D01*
X11999Y8602D01*
X12002Y8563D01*
X12012Y8553D01*
X12029Y8544D01*
X12033Y8536D01*
X12047Y8519D01*
X12055Y8515D01*
X12072Y8501D01*
X12076Y8451D01*
X12082Y8445D01*
X12107Y8432D01*
X12111Y8416D01*
X12114Y8378D01*
X12124Y8368D01*
X12143Y8357D01*
X12149Y8335D01*
X12145Y8285D01*
X12147Y8129D01*
X12140Y8113D01*
X12112Y8098D01*
X12109Y8048D01*
X12097Y8036D01*
X12089Y8032D01*
X12080Y8026D01*
X12076Y8019D01*
X12068Y8011D01*
X12064Y8003D01*
X12051Y7994D01*
X12033Y7976D01*
X12029Y7969D01*
X12024Y7963D01*
X12016Y7959D01*
X11995Y7938D01*
X11991Y7930D01*
X11977Y7920D01*
X11960Y7903D01*
X11956Y7895D01*
X11950Y7889D01*
X11943Y7885D01*
X11935Y7878D01*
X11929Y7876D01*
X11925Y7868D01*
X11908Y7847D01*
X11858Y7843D01*
X11844Y7822D01*
X11834Y7812D01*
X11827Y7808D01*
X11813Y7795D01*
X11809Y7787D01*
X11804Y7777D01*
X11788Y7774D01*
X11750Y7770D01*
X11740Y7760D01*
X11728Y7741D01*
X11711Y7735D01*
X11695Y7739D01*
X11676Y7735D01*
X11667Y7725D01*
X11657Y7704D01*
X11641Y7700D01*
X11599Y7696D01*
X11580Y7665D01*
X11564Y7662D01*
X11526Y7658D01*
X11520Y7652D01*
X11508Y7633D01*
X11502Y7627D01*
X11452Y7623D01*
X11446Y7617D01*
X11433Y7592D01*
X11417Y7588D01*
X11379Y7584D01*
X11369Y7575D01*
X11358Y7555D01*
X11340Y7550D01*
X11325Y7553D01*
X11306Y7550D01*
X11300Y7544D01*
X11296Y7536D01*
X11286Y7519D01*
X11271Y7515D01*
X11232Y7511D01*
X11223Y7501D01*
X11211Y7482D01*
X11194Y7476D01*
X11155Y7472D01*
X11149Y7467D01*
X11138Y7447D01*
X11132Y7441D01*
X11082Y7438D01*
X11076Y7432D01*
X11062Y7407D01*
X11047Y7403D01*
X11008Y7399D01*
X10999Y7389D01*
X10987Y7370D01*
X10970Y7364D01*
X10943Y7368D01*
X10929Y7358D01*
X10925Y7351D01*
X10916Y7333D01*
X10900Y7329D01*
X10862Y7326D01*
X10852Y7316D01*
X10840Y7297D01*
X10823Y7291D01*
X10798Y7293D01*
X10784Y7287D01*
X10778Y7281D01*
X10767Y7262D01*
X10761Y7256D01*
X10753Y7252D01*
X10744Y7246D01*
X10740Y7239D01*
X10723Y7218D01*
X10672Y7214D01*
X10653Y7183D01*
X10638Y7179D01*
X10611Y7183D01*
X10593Y7169D01*
X10582Y7150D01*
X10576Y7144D01*
X10526Y7140D01*
X10520Y7135D01*
X10508Y7115D01*
X10502Y7109D01*
X10495Y7106D01*
X10477Y7088D01*
X10473Y7080D01*
X10464Y7071D01*
X10417Y7067D01*
X10404Y7053D01*
X10400Y7042D01*
X10390Y7032D01*
X10340Y7028D01*
X10334Y7023D01*
X10323Y7003D01*
X10317Y6997D01*
X10309Y6994D01*
X10292Y6976D01*
X10288Y6968D01*
X10278Y6959D01*
X10228Y6955D01*
X10213Y6932D01*
X10201Y6920D01*
X10194Y6916D01*
X10184Y6907D01*
X10180Y6899D01*
X10170Y6885D01*
X10120Y6882D01*
X10111Y6872D01*
X10099Y6853D01*
X10076Y6837D01*
X10072Y6829D01*
X10062Y6816D01*
X10055Y6812D01*
X10037Y6799D01*
X10033Y6783D01*
X10035Y6731D01*
X10033Y6679D01*
X10051Y6662D01*
X10058Y6658D01*
X10072Y6644D01*
X10076Y6636D01*
X10085Y6627D01*
X10101Y6623D01*
X10116Y6627D01*
X10136Y6623D01*
X10141Y6617D01*
X10157Y6590D01*
X10207Y6586D01*
X10219Y6575D01*
X10230Y6555D01*
X10248Y6550D01*
X10284Y6551D01*
X10313Y6550D01*
X10325Y6553D01*
X10356Y6550D01*
X10365Y6540D01*
X10377Y6521D01*
X10383Y6515D01*
X10398Y6511D01*
X10425Y6515D01*
X10435Y6521D01*
X10439Y6528D01*
X10456Y6550D01*
X10472Y6553D01*
X10533Y6550D01*
X10566Y6551D01*
X10607Y6550D01*
X10624Y6563D01*
X10636Y6582D01*
X10641Y6588D01*
X10692Y6592D01*
X10697Y6598D01*
X10711Y6623D01*
X10738Y6627D01*
X10750Y6623D01*
X10771Y6633D01*
X10786Y6660D01*
X10836Y6663D01*
X10848Y6675D01*
X10860Y6694D01*
X10883Y6710D01*
X10887Y6718D01*
X10900Y6735D01*
X10916Y6739D01*
X10927Y6735D01*
X10950Y6739D01*
X10956Y6745D01*
X10968Y6764D01*
X10977Y6773D01*
X10985Y6777D01*
X10999Y6791D01*
X11008Y6808D01*
X11024Y6812D01*
X11051Y6808D01*
X11072Y6826D01*
X11082Y6843D01*
X11089Y6847D01*
X11107Y6860D01*
X11111Y6868D01*
X11116Y6878D01*
X11124Y6882D01*
X11132Y6889D01*
X11140Y6893D01*
X11149Y6907D01*
X11155Y6916D01*
X11163Y6920D01*
X11180Y6934D01*
X11184Y6941D01*
X11205Y6963D01*
X11213Y6967D01*
X11232Y6990D01*
X11244Y7001D01*
X11251Y7005D01*
X11271Y7028D01*
X11279Y7036D01*
X11286Y7040D01*
X11292Y7046D01*
X11296Y7053D01*
X11302Y7063D01*
X11309Y7067D01*
X11317Y7075D01*
X11325Y7079D01*
X11334Y7092D01*
X11340Y7102D01*
X11348Y7106D01*
X11365Y7119D01*
X11369Y7127D01*
X11390Y7148D01*
X11398Y7152D01*
X11404Y7158D01*
X11408Y7165D01*
X11417Y7179D01*
X11437Y7190D01*
X11443Y7196D01*
X11446Y7246D01*
X11470Y7262D01*
X11481Y7274D01*
X11485Y7281D01*
X11495Y7291D01*
X11502Y7295D01*
X11516Y7308D01*
X11520Y7316D01*
X11533Y7329D01*
X11551Y7339D01*
X11555Y7355D01*
X11558Y7393D01*
X11568Y7403D01*
X11585Y7413D01*
X11589Y7420D01*
X11603Y7438D01*
X11611Y7441D01*
X11632Y7463D01*
X11636Y7470D01*
X11641Y7476D01*
X11649Y7480D01*
X11659Y7486D01*
X11663Y7494D01*
X11676Y7511D01*
X11684Y7515D01*
X11697Y7524D01*
X11701Y7532D01*
X11715Y7550D01*
X11730Y7553D01*
X11779Y7552D01*
X11919Y7553D01*
X11931Y7550D01*
X11958Y7553D01*
X11985Y7550D01*
X11995Y7540D01*
X11999Y7532D01*
X12020Y7511D01*
X12028Y7507D01*
X12033Y7501D01*
X12037Y7494D01*
X12055Y7476D01*
X12062Y7472D01*
X12068Y7467D01*
X12072Y7459D01*
X12080Y7451D01*
X12082Y7445D01*
X12089Y7441D01*
X12111Y7424D01*
X12114Y7374D01*
X12145Y7355D01*
X12149Y7328D01*
X12145Y7301D01*
X12147Y7163D01*
X12138Y7150D01*
X12114Y7135D01*
X12111Y7127D01*
X12097Y7109D01*
X12078Y7098D01*
X12072Y7092D01*
X12068Y7042D01*
X12062Y7036D01*
X12043Y7024D01*
X12037Y7019D01*
X12033Y7011D01*
X12016Y6994D01*
X12008Y6990D01*
X11999Y6980D01*
X11995Y6934D01*
X11985Y6924D01*
X11977Y6920D01*
X11960Y6903D01*
X11956Y6895D01*
X11946Y6885D01*
X11939Y6882D01*
X11921Y6864D01*
X11918Y6857D01*
X11908Y6847D01*
X11890Y6837D01*
X11887Y6822D01*
X11883Y6783D01*
X11877Y6777D01*
X11869Y6773D01*
X11852Y6760D01*
X11848Y6752D01*
X11842Y6743D01*
X11834Y6739D01*
X11817Y6725D01*
X11813Y6718D01*
X11792Y6696D01*
X11784Y6692D01*
X11779Y6687D01*
X11775Y6679D01*
X11753Y6658D01*
X11746Y6654D01*
X11736Y6640D01*
X11719Y6623D01*
X11711Y6619D01*
X11705Y6613D01*
X11701Y6606D01*
X11680Y6584D01*
X11672Y6580D01*
X11667Y6575D01*
X11663Y6567D01*
X11657Y6557D01*
X11649Y6553D01*
X11641Y6546D01*
X11634Y6542D01*
X11624Y6528D01*
X11607Y6511D01*
X11599Y6507D01*
X11593Y6501D01*
X11589Y6494D01*
X11584Y6484D01*
X11576Y6480D01*
X11568Y6472D01*
X11560Y6468D01*
X11551Y6455D01*
X11545Y6445D01*
X11537Y6441D01*
X11520Y6428D01*
X11516Y6420D01*
X11510Y6411D01*
X11502Y6407D01*
X11495Y6399D01*
X11487Y6395D01*
X11481Y6389D01*
X11470Y6370D01*
X11452Y6364D01*
X11427Y6366D01*
X11414Y6360D01*
X11398Y6337D01*
X11390Y6329D01*
X11383Y6326D01*
X11365Y6308D01*
X11362Y6301D01*
X11356Y6295D01*
X11348Y6291D01*
X11331Y6273D01*
X11327Y6266D01*
X11317Y6256D01*
X11302Y6252D01*
X11286Y6256D01*
X11271Y6252D01*
X11257Y6239D01*
X11253Y6231D01*
X11240Y6218D01*
X11232Y6214D01*
X11223Y6204D01*
X11219Y6196D01*
X11209Y6183D01*
X11194Y6179D01*
X11168Y6181D01*
X11155Y6175D01*
X11149Y6169D01*
X11138Y6150D01*
X11132Y6144D01*
X11082Y6140D01*
X11066Y6117D01*
X11055Y6106D01*
X11047Y6102D01*
X11033Y6088D01*
X11024Y6071D01*
X11000Y6067D01*
X10989Y6071D01*
X10973Y6067D01*
X10964Y6057D01*
X10952Y6038D01*
X10946Y6032D01*
X10919Y6028D01*
X10908Y6032D01*
X10881Y6036D01*
X10869Y6032D01*
X10862Y6028D01*
X10852Y6019D01*
X10848Y6011D01*
X10838Y5997D01*
X10823Y5994D01*
X10759Y5996D01*
X10744Y5988D01*
X10730Y5963D01*
X10711Y5955D01*
X10649Y5959D01*
X10130Y5957D01*
X10114Y5965D01*
X10101Y5990D01*
X10082Y5997D01*
X10016Y5994D01*
X10002Y6003D01*
X9999Y6011D01*
X9981Y6032D01*
X9954Y6036D01*
X9943Y6032D01*
X9916Y6028D01*
X9904Y6032D01*
X9896Y6036D01*
X9890Y6042D01*
X9887Y6050D01*
X9873Y6067D01*
X9858Y6071D01*
X9834Y6067D01*
X9817Y6077D01*
X9805Y6096D01*
X9796Y6106D01*
X9788Y6109D01*
X9775Y6123D01*
X9765Y6140D01*
X9750Y6144D01*
X9711Y6148D01*
X9701Y6158D01*
X9692Y6175D01*
X9684Y6179D01*
X9667Y6192D01*
X9663Y6200D01*
X9657Y6210D01*
X9649Y6214D01*
X9641Y6221D01*
X9634Y6225D01*
X9624Y6239D01*
X9618Y6248D01*
X9611Y6252D01*
X9603Y6260D01*
X9595Y6264D01*
X9585Y6277D01*
X9568Y6295D01*
X9560Y6299D01*
X9551Y6312D01*
X9545Y6322D01*
X9537Y6326D01*
X9529Y6333D01*
X9522Y6337D01*
X9512Y6351D01*
X9506Y6360D01*
X9499Y6364D01*
X9491Y6372D01*
X9485Y6374D01*
X9481Y6382D01*
X9473Y6389D01*
X9472Y6395D01*
X9464Y6399D01*
X9456Y6407D01*
X9448Y6411D01*
X9433Y6434D01*
X9406Y6453D01*
X9402Y6499D01*
X9394Y6511D01*
X9369Y6524D01*
X9365Y6548D01*
X9369Y6559D01*
X9365Y6575D01*
X9352Y6588D01*
X9333Y6600D01*
X9329Y6650D01*
X9321Y6658D01*
X9302Y6669D01*
X9292Y6679D01*
X9294Y6789D01*
X9286Y6804D01*
X9278Y6808D01*
X9261Y6818D01*
X9253Y6837D01*
X9257Y6899D01*
X9255Y7121D01*
X9261Y7135D01*
X9267Y7140D01*
X9275Y7144D01*
X9292Y7158D01*
X9296Y7185D01*
X9292Y7212D01*
X9296Y7281D01*
X9302Y7287D01*
X9309Y7291D01*
X9327Y7301D01*
X9331Y7316D01*
X9334Y7358D01*
X9365Y7378D01*
X9369Y7393D01*
X9365Y7455D01*
X9375Y7472D01*
X9394Y7484D01*
X9404Y7494D01*
X9408Y7501D01*
X9421Y7515D01*
X9429Y7519D01*
X9439Y7524D01*
X9443Y7540D01*
X9446Y7579D01*
X9456Y7588D01*
X9464Y7592D01*
X9473Y7598D01*
X9477Y7606D01*
X9491Y7623D01*
X9499Y7627D01*
X9516Y7640D01*
X9520Y7691D01*
X9526Y7696D01*
X9545Y7708D01*
X9551Y7714D01*
X9555Y7721D01*
X9572Y7739D01*
X9580Y7743D01*
X9589Y7752D01*
X9593Y7760D01*
X9611Y7777D01*
X9618Y7781D01*
X9624Y7787D01*
X9628Y7795D01*
X9645Y7812D01*
X9653Y7816D01*
X9663Y7826D01*
X9667Y7833D01*
X9684Y7851D01*
X9692Y7855D01*
X9697Y7860D01*
X9701Y7868D01*
X9722Y7889D01*
X9730Y7893D01*
X9736Y7899D01*
X9740Y7907D01*
X9757Y7924D01*
X9765Y7928D01*
X9775Y7938D01*
X9786Y7957D01*
X9836Y7961D01*
X9844Y7969D01*
X9848Y7976D01*
X9861Y7994D01*
X9869Y7997D01*
X9890Y8019D01*
X9894Y8026D01*
X9900Y8032D01*
X9908Y8036D01*
X9925Y8053D01*
X9929Y8061D01*
X9935Y8067D01*
X9943Y8071D01*
X9964Y8092D01*
X9968Y8100D01*
X9973Y8106D01*
X9981Y8109D01*
X9991Y8115D01*
X9995Y8123D01*
X10012Y8144D01*
X10062Y8148D01*
X10078Y8171D01*
X10089Y8183D01*
X10097Y8187D01*
X10107Y8196D01*
X10111Y8204D01*
X10128Y8221D01*
X10136Y8225D01*
X10145Y8235D01*
X10149Y8243D01*
X10163Y8256D01*
X10170Y8260D01*
X10184Y8274D01*
X10194Y8291D01*
X10209Y8295D01*
X10236Y8291D01*
X10253Y8304D01*
X10257Y8312D01*
X10267Y8326D01*
X10275Y8330D01*
X10288Y8339D01*
X10292Y8347D01*
X10300Y8355D01*
X10302Y8360D01*
X10309Y8364D01*
X10317Y8372D01*
X10325Y8376D01*
X10344Y8399D01*
X10356Y8411D01*
X10361Y8413D01*
X10365Y8420D01*
X10373Y8428D01*
X10377Y8436D01*
X10400Y8451D01*
X10404Y8459D01*
X10417Y8476D01*
X10433Y8480D01*
X10456Y8476D01*
X10473Y8486D01*
X10477Y8494D01*
X10495Y8515D01*
X10512Y8525D01*
X10516Y8540D01*
X10520Y8579D01*
X10529Y8588D01*
X10549Y8600D01*
X10564Y8623D01*
X10572Y8627D01*
X10589Y8640D01*
X10593Y8667D01*
X10589Y8694D01*
X10593Y8725D01*
X10607Y8739D01*
X10624Y8748D01*
X10632Y8775D01*
X10626Y8797D01*
X10614Y8808D01*
X10595Y8820D01*
X10589Y8837D01*
X10585Y8876D01*
X10576Y8886D01*
X10564Y8889D01*
X10555Y8899D01*
X10551Y8914D01*
X10555Y8942D01*
X10541Y8959D01*
X10491Y8963D01*
X10481Y8972D01*
X10470Y8992D01*
X10464Y8997D01*
X10309D01*
X10306D01*
D02*
G37*
G36*
X12479Y11496D02*
X12485Y11509D01*
X12508Y11525D01*
X12516Y11532D01*
X12520Y11540D01*
X12537Y11557D01*
X12545Y11561D01*
X12551Y11567D01*
X12555Y11575D01*
X12564Y11584D01*
X12584Y11596D01*
X12589Y11602D01*
X12585Y11625D01*
X12580Y11631D01*
X12483Y11627D01*
X12472Y11631D01*
X12460Y11627D01*
X12418Y11631D01*
X12408Y11640D01*
X12404Y11656D01*
X12406Y11712D01*
X12404Y12135D01*
X12408Y12146D01*
X12404Y12196D01*
X12414Y12218D01*
X12429Y12221D01*
X14696Y12218D01*
X14701Y12212D01*
X14705Y12185D01*
X14703Y12144D01*
X14705Y11706D01*
X14701Y11694D01*
X14705Y11679D01*
X14701Y11640D01*
X14692Y11631D01*
X14676Y11627D01*
X13277Y11629D01*
X13263Y11619D01*
X13250Y11598D01*
X13244Y11592D01*
X13217Y11588D01*
X13190Y11592D01*
X13159Y11588D01*
X13149Y11579D01*
X13138Y11559D01*
X13114Y11544D01*
X13111Y11536D01*
X13097Y11519D01*
X13082Y11515D01*
X13066Y11519D01*
X13047Y11515D01*
X13041Y11509D01*
X13029Y11490D01*
X13020Y11480D01*
X13002Y11471D01*
X12999Y11455D01*
X12995Y11416D01*
X12989Y11411D01*
X12981Y11407D01*
X12964Y11393D01*
X12960Y11386D01*
X12950Y11372D01*
X12943Y11368D01*
X12925Y11355D01*
X12921Y11328D01*
X12925Y11312D01*
X12921Y11270D01*
X12912Y11260D01*
X12892Y11248D01*
X12887Y11231D01*
X12890Y11084D01*
X12900Y11075D01*
X12919Y11063D01*
X12925Y11057D01*
X12923Y10986D01*
X12929Y10972D01*
X12939Y10963D01*
X12946Y10959D01*
X12964Y10942D01*
X12968Y10934D01*
X12977Y10924D01*
X12997Y10913D01*
X13001Y10862D01*
X13004Y10855D01*
X13020Y10851D01*
X13062Y10847D01*
X13068Y10841D01*
X13072Y10833D01*
X13085Y10816D01*
X13093Y10812D01*
X13111Y10795D01*
X13114Y10787D01*
X13124Y10777D01*
X13140Y10774D01*
X13151Y10777D01*
X13174Y10774D01*
X13180Y10768D01*
X13194Y10743D01*
X13224Y10735D01*
X13236Y10739D01*
X13267Y10743D01*
X13292Y10729D01*
X13304Y10710D01*
X13313Y10700D01*
X13373Y10702D01*
X14649Y10700D01*
X14661Y10704D01*
X14692Y10700D01*
X14701Y10691D01*
X14705Y10675D01*
X14703Y10623D01*
X14705Y10189D01*
X14701Y10177D01*
X14705Y10150D01*
X14701Y10119D01*
X14696Y10113D01*
X14669Y10106D01*
X14653Y10109D01*
X13306Y10106D01*
X13300Y10100D01*
X13288Y10081D01*
X13279Y10071D01*
X13207Y10073D01*
X13194Y10067D01*
X13188Y10061D01*
X13176Y10042D01*
X13170Y10036D01*
X13155Y10032D01*
X13143Y10036D01*
X13120Y10032D01*
X13114Y10026D01*
X13103Y10007D01*
X13093Y9998D01*
X13085Y9994D01*
X13072Y9980D01*
X13068Y9972D01*
X13058Y9963D01*
X13051Y9959D01*
X13037Y9945D01*
X13033Y9938D01*
X13020Y9924D01*
X13012Y9920D01*
X12999Y9907D01*
X12995Y9899D01*
X12981Y9886D01*
X12964Y9876D01*
X12960Y9849D01*
X12964Y9837D01*
X12952Y9818D01*
X12946Y9812D01*
X12927Y9801D01*
X12923Y9754D01*
X12916Y9743D01*
X12896Y9731D01*
X12887Y9721D01*
X12890Y9528D01*
X12900Y9519D01*
X12919Y9507D01*
X12925Y9501D01*
X12929Y9451D01*
X12935Y9445D01*
X12954Y9434D01*
X12960Y9428D01*
X12964Y9413D01*
X12960Y9397D01*
X12964Y9382D01*
X12977Y9368D01*
X12985Y9364D01*
X12999Y9351D01*
X13002Y9343D01*
X13016Y9330D01*
X13024Y9326D01*
X13037Y9312D01*
X13041Y9304D01*
X13051Y9295D01*
X13058Y9291D01*
X13072Y9277D01*
X13076Y9270D01*
X13089Y9256D01*
X13136Y9252D01*
X13145Y9243D01*
X13157Y9223D01*
X13174Y9218D01*
X13201Y9221D01*
X13219Y9208D01*
X13230Y9189D01*
X13236Y9183D01*
X13259Y9179D01*
X13271Y9183D01*
X14696Y9179D01*
X14705Y9158D01*
X14703Y9106D01*
X14705Y8667D01*
X14701Y8656D01*
X14705Y8640D01*
X14701Y8602D01*
X14688Y8588D01*
X12974Y8592D01*
X12964Y8602D01*
X12952Y8621D01*
X12946Y8627D01*
X12875Y8625D01*
X12862Y8631D01*
X12852Y8640D01*
X12840Y8660D01*
X12823Y8665D01*
X12807Y8662D01*
X12788Y8665D01*
X12779Y8675D01*
X12767Y8694D01*
X12761Y8700D01*
X12753Y8704D01*
X12744Y8710D01*
X12740Y8718D01*
X12723Y8739D01*
X12690Y8737D01*
X12676Y8743D01*
X12667Y8752D01*
X12663Y8760D01*
X12649Y8774D01*
X12641Y8777D01*
X12628Y8791D01*
X12624Y8799D01*
X12611Y8812D01*
X12603Y8816D01*
X12593Y8826D01*
X12589Y8833D01*
X12572Y8851D01*
X12564Y8855D01*
X12555Y8864D01*
X12551Y8911D01*
X12541Y8920D01*
X12533Y8924D01*
X12516Y8942D01*
X12512Y8949D01*
X12502Y8959D01*
X12483Y8970D01*
X12477Y8992D01*
X12481Y9053D01*
X12464Y9071D01*
X12446Y9081D01*
X12443Y9096D01*
X12439Y9135D01*
X12429Y9144D01*
X12410Y9156D01*
X12404Y9173D01*
X12408Y9231D01*
X12404Y9243D01*
X12408Y9308D01*
X12398Y9326D01*
X12373Y9339D01*
X12365Y9366D01*
X12369Y9382D01*
X12367Y9677D01*
X12373Y9691D01*
X12383Y9700D01*
X12402Y9712D01*
X12408Y9729D01*
X12404Y9791D01*
X12421Y9812D01*
X12441Y9824D01*
X12445Y9839D01*
X12446Y9857D01*
X12443Y9868D01*
X12441Y9893D01*
X12445Y9909D01*
X12448Y9916D01*
X12456Y9920D01*
X12477Y9934D01*
X12481Y9949D01*
X12479Y9974D01*
X12485Y9988D01*
X12495Y9998D01*
X12512Y10007D01*
X12516Y10015D01*
X12529Y10032D01*
X12549Y10044D01*
X12555Y10050D01*
X12558Y10100D01*
X12564Y10106D01*
X12584Y10117D01*
X12589Y10123D01*
X12593Y10131D01*
X12611Y10148D01*
X12618Y10152D01*
X12628Y10162D01*
X12632Y10169D01*
X12649Y10187D01*
X12657Y10191D01*
X12663Y10196D01*
X12667Y10204D01*
X12676Y10214D01*
X12696Y10225D01*
X12701Y10231D01*
X12697Y10250D01*
X12692Y10256D01*
X12684Y10260D01*
X12663Y10277D01*
X12653Y10291D01*
X12645Y10295D01*
X12624Y10316D01*
X12620Y10324D01*
X12614Y10330D01*
X12607Y10333D01*
X12589Y10351D01*
X12585Y10359D01*
X12580Y10364D01*
X12572Y10368D01*
X12551Y10389D01*
X12547Y10397D01*
X12541Y10403D01*
X12533Y10407D01*
X12520Y10416D01*
X12516Y10432D01*
X12512Y10470D01*
X12506Y10476D01*
X12487Y10488D01*
X12481Y10494D01*
X12479Y10511D01*
X12481Y10536D01*
X12472Y10550D01*
X12445Y10565D01*
X12441Y10615D01*
X12429Y10627D01*
X12410Y10638D01*
X12404Y10656D01*
X12406Y10700D01*
X12404Y10718D01*
X12408Y10729D01*
X12404Y10764D01*
X12394Y10774D01*
X12375Y10785D01*
X12369Y10791D01*
X12365Y10814D01*
X12369Y10826D01*
X12367Y11194D01*
X12375Y11214D01*
X12402Y11233D01*
X12408Y11250D01*
X12406Y11295D01*
X12408Y11312D01*
X12404Y11324D01*
X12408Y11355D01*
X12421Y11368D01*
X12441Y11380D01*
X12445Y11430D01*
X12456Y11442D01*
X12475Y11453D01*
X12481Y11471D01*
X12477Y11494D01*
X12479Y11496D01*
D02*
G37*
G36*
X13165Y12814D02*
X13151Y12812D01*
X13140Y12816D01*
X13120Y12812D01*
X13114Y12806D01*
X13101Y12781D01*
X13074Y12774D01*
X13047Y12777D01*
X13029Y12779D01*
X13014Y12776D01*
X13002Y12768D01*
X12991Y12749D01*
X12981Y12739D01*
X12910Y12741D01*
X12896Y12735D01*
X12890Y12729D01*
X12879Y12710D01*
X12873Y12704D01*
X12823Y12700D01*
X12804Y12669D01*
X12788Y12665D01*
X12728Y12667D01*
X12709Y12660D01*
X12705Y12652D01*
X12692Y12631D01*
X12668Y12627D01*
X12657Y12631D01*
X12641Y12627D01*
X12628Y12613D01*
X12616Y12594D01*
X12601Y12590D01*
X12584Y12588D01*
X12572Y12592D01*
X12547Y12594D01*
X12531Y12590D01*
X12520Y12579D01*
X12516Y12571D01*
X12506Y12557D01*
X12491Y12554D01*
X12418Y12557D01*
X12408Y12567D01*
X12404Y12582D01*
X12406Y12638D01*
X12404Y13057D01*
X12408Y13069D01*
X12404Y13127D01*
X12418Y13144D01*
X12425Y13148D01*
X12439Y13158D01*
X12450Y13177D01*
X12456Y13183D01*
X12472Y13187D01*
X12495Y13183D01*
X12512Y13193D01*
X12526Y13218D01*
X12553Y13225D01*
X12580Y13221D01*
X12618Y13225D01*
X12624Y13231D01*
X12636Y13250D01*
X12645Y13260D01*
X12717Y13258D01*
X12730Y13264D01*
X12736Y13270D01*
X12748Y13289D01*
X12753Y13295D01*
X12767Y13297D01*
X12796Y13295D01*
X12809Y13305D01*
X12823Y13330D01*
X12838Y13333D01*
X12850Y13337D01*
X12862Y13333D01*
X12896Y13330D01*
X12921Y13343D01*
X12935Y13368D01*
X12950Y13372D01*
X12977Y13368D01*
X12999Y13386D01*
X13010Y13405D01*
X13026Y13409D01*
X13043Y13411D01*
X13055Y13407D01*
X13097Y13411D01*
X13111Y13424D01*
X13120Y13442D01*
X13136Y13445D01*
X13199Y13444D01*
X13213Y13449D01*
X13219Y13455D01*
X13228Y13476D01*
X13250Y13482D01*
X13279Y13480D01*
X13292Y13494D01*
X13296Y13501D01*
X13306Y13515D01*
X13321Y13519D01*
X13333Y13523D01*
X13344Y13519D01*
X13379Y13515D01*
X13400Y13525D01*
X13404Y13532D01*
X13418Y13554D01*
X13433Y13557D01*
X13499Y13554D01*
X13512Y13563D01*
X13516Y13571D01*
X13526Y13588D01*
X13541Y13592D01*
X13580Y13596D01*
X13589Y13606D01*
X13601Y13625D01*
X13607Y13631D01*
X13653Y13627D01*
X13665Y13623D01*
X13690Y13629D01*
X13701Y13637D01*
X13697Y13664D01*
X13692Y13669D01*
X13638Y13673D01*
X13632Y13679D01*
X13628Y13687D01*
X13611Y13704D01*
X13543Y13702D01*
X13524Y13710D01*
X13520Y13718D01*
X13506Y13739D01*
X13491Y13743D01*
X13464Y13739D01*
X13446Y13752D01*
X13435Y13772D01*
X13429Y13777D01*
X13398Y13781D01*
X13387Y13777D01*
X13365Y13776D01*
X13346Y13779D01*
X13335Y13791D01*
X13331Y13799D01*
X13321Y13812D01*
X13306Y13816D01*
X13242Y13814D01*
X13228Y13824D01*
X13223Y13830D01*
X13211Y13849D01*
X13161Y13853D01*
X13149Y13864D01*
X13138Y13884D01*
X13132Y13889D01*
X13060Y13888D01*
X13047Y13893D01*
X13037Y13903D01*
X13026Y13922D01*
X13008Y13928D01*
X12946Y13924D01*
X12925Y13942D01*
X12916Y13959D01*
X12889Y13967D01*
X12862Y13963D01*
X12846Y13959D01*
X12835Y13963D01*
X12817Y13972D01*
X12804Y13998D01*
X12788Y14001D01*
X12763Y14000D01*
X12750Y14005D01*
X12740Y14015D01*
X12728Y14034D01*
X12707Y14040D01*
X12657Y14036D01*
X12641Y14040D01*
X12628Y14054D01*
X12618Y14071D01*
X12603Y14075D01*
X12543Y14073D01*
X12524Y14081D01*
X12520Y14088D01*
X12502Y14110D01*
X12487Y14113D01*
X12425Y14110D01*
X12408Y14123D01*
X12404Y14138D01*
X12406Y14194D01*
X12404Y14656D01*
X12408Y14667D01*
X12404Y14718D01*
X12416Y14737D01*
X12433Y14743D01*
X12506Y14739D01*
X12512Y14733D01*
X12526Y14708D01*
X12541Y14704D01*
X12580Y14700D01*
X12589Y14691D01*
X12601Y14671D01*
X12618Y14666D01*
X12680Y14669D01*
X12701Y14652D01*
X12705Y14644D01*
X12711Y14635D01*
X12738Y14627D01*
X12777Y14631D01*
X12804Y14627D01*
X12809Y14621D01*
X12821Y14602D01*
X12831Y14592D01*
X12902Y14594D01*
X12916Y14588D01*
X12921Y14583D01*
X12933Y14563D01*
X12939Y14557D01*
X12952Y14555D01*
X12981Y14557D01*
X12995Y14548D01*
X13008Y14523D01*
X13024Y14519D01*
X13037Y14517D01*
X13082Y14523D01*
X13107Y14509D01*
X13118Y14490D01*
X13124Y14484D01*
X13140Y14480D01*
X13201Y14484D01*
X13219Y14471D01*
X13230Y14451D01*
X13236Y14445D01*
X13263Y14442D01*
X13279Y14445D01*
X13321Y14442D01*
X13331Y14432D01*
X13342Y14413D01*
X13348Y14407D01*
X13398Y14403D01*
X13404Y14397D01*
X13414Y14376D01*
X13433Y14368D01*
X13499Y14372D01*
X13512Y14362D01*
X13516Y14355D01*
X13533Y14333D01*
X13601Y14335D01*
X13616Y14332D01*
X13628Y14320D01*
X13640Y14301D01*
X13657Y14295D01*
X13719Y14299D01*
X13740Y14281D01*
X13752Y14262D01*
X13802Y14258D01*
X13809Y14250D01*
X13821Y14231D01*
X13831Y14222D01*
X13902Y14223D01*
X13916Y14218D01*
X13921Y14212D01*
X13925Y14204D01*
X13939Y14187D01*
X13966Y14183D01*
X13993Y14187D01*
X14024Y14183D01*
X14033Y14173D01*
X14037Y14166D01*
X14051Y14148D01*
X14122Y14150D01*
X14136Y14144D01*
X14145Y14135D01*
X14149Y14127D01*
X14159Y14113D01*
X14174Y14110D01*
X14201Y14113D01*
X14219Y14100D01*
X14230Y14081D01*
X14236Y14075D01*
X14263Y14071D01*
X14279Y14075D01*
X14321Y14071D01*
X14331Y14061D01*
X14342Y14042D01*
X14360Y14036D01*
X14423Y14038D01*
X14437Y14028D01*
X14443Y14023D01*
X14454Y14003D01*
X14475Y13998D01*
X14526Y14001D01*
X14609Y14000D01*
X14622Y14009D01*
X14628Y14015D01*
X14640Y14034D01*
X14661Y14040D01*
X14723Y14036D01*
X14736Y14046D01*
X14750Y14071D01*
X14765Y14075D01*
X14825Y14073D01*
X14844Y14081D01*
X14864Y14108D01*
X14881Y14113D01*
X14904Y14110D01*
X14925Y14127D01*
X14937Y14146D01*
X14952Y14150D01*
X14970Y14152D01*
X14981Y14148D01*
X15002Y14146D01*
X15022Y14150D01*
X15033Y14158D01*
X15047Y14183D01*
X15062Y14187D01*
X15101Y14191D01*
X15111Y14200D01*
X15122Y14220D01*
X15143Y14225D01*
X15194Y14222D01*
X15209Y14225D01*
X15223Y14239D01*
X15232Y14256D01*
X15248Y14260D01*
X15308Y14258D01*
X15327Y14266D01*
X15331Y14274D01*
X15344Y14295D01*
X15360Y14299D01*
X15387Y14295D01*
X15404Y14308D01*
X15408Y14316D01*
X15421Y14333D01*
X15443Y14335D01*
X15504Y14332D01*
X15516Y14324D01*
X15520Y14308D01*
X15516Y13714D01*
X15506Y13704D01*
X15456Y13700D01*
X15447Y13691D01*
X15435Y13671D01*
X15418Y13666D01*
X15379Y13662D01*
X15373Y13656D01*
X15362Y13637D01*
X15356Y13631D01*
X15340Y13627D01*
X15279Y13631D01*
X15261Y13617D01*
X15250Y13598D01*
X15244Y13592D01*
X15219Y13590D01*
X15196Y13594D01*
X15178Y13596D01*
X15167Y13592D01*
X15159Y13588D01*
X15149Y13579D01*
X15138Y13559D01*
X15120Y13554D01*
X15093Y13557D01*
X15076Y13544D01*
X15064Y13525D01*
X15058Y13519D01*
X15031Y13515D01*
X15016Y13519D01*
X14974Y13515D01*
X14968Y13509D01*
X14964Y13501D01*
X14950Y13484D01*
X14935Y13480D01*
X14871Y13482D01*
X14858Y13472D01*
X14852Y13467D01*
X14840Y13447D01*
X14794Y13444D01*
X14782Y13436D01*
X14771Y13416D01*
X14761Y13407D01*
X14736Y13405D01*
X14713Y13409D01*
X14696Y13411D01*
X14684Y13407D01*
X14676Y13403D01*
X14670Y13397D01*
X14659Y13378D01*
X14653Y13372D01*
X14638Y13368D01*
X14622Y13372D01*
X14603Y13368D01*
X14597Y13362D01*
X14584Y13337D01*
X14557Y13330D01*
X14530Y13333D01*
X14491Y13330D01*
X14485Y13324D01*
X14474Y13305D01*
X14464Y13295D01*
X14392Y13297D01*
X14379Y13291D01*
X14373Y13285D01*
X14362Y13266D01*
X14356Y13260D01*
X14340Y13256D01*
X14279Y13260D01*
X14261Y13247D01*
X14250Y13227D01*
X14244Y13221D01*
X14194Y13218D01*
X14188Y13212D01*
X14176Y13193D01*
X14170Y13187D01*
X14155Y13183D01*
X14093Y13187D01*
X14076Y13173D01*
X14064Y13154D01*
X14058Y13148D01*
X14031Y13144D01*
X14016Y13148D01*
X13974Y13144D01*
X13964Y13135D01*
X13952Y13115D01*
X13946Y13110D01*
X13896Y13106D01*
X13891Y13100D01*
X13879Y13081D01*
X13873Y13075D01*
X13858Y13071D01*
X13796Y13075D01*
X13779Y13061D01*
X13767Y13042D01*
X13761Y13036D01*
X13711Y13032D01*
X13692Y13001D01*
X13676Y12998D01*
X13611Y13001D01*
X13597Y12992D01*
X13584Y12967D01*
X13557Y12959D01*
X13520Y12965D01*
X13514Y12967D01*
X13502Y12963D01*
X13485Y12953D01*
X13474Y12934D01*
X13464Y12924D01*
X13414Y12920D01*
X13394Y12889D01*
X13367Y12886D01*
X13329Y12889D01*
X13306Y12886D01*
X13300Y12880D01*
X13286Y12855D01*
X13271Y12851D01*
X13211Y12853D01*
X13196Y12849D01*
X13188Y12841D01*
X13176Y12822D01*
X13170Y12816D01*
X13167D01*
X13165Y12814D01*
D02*
G37*
G36*
X12418Y16222D02*
X12437Y16233D01*
X12443Y16239D01*
X12446Y16254D01*
Y16258D01*
X12443Y16274D01*
X12446Y16362D01*
X12452Y16368D01*
X12472Y16380D01*
X12481Y16390D01*
X12479Y16461D01*
X12485Y16474D01*
X12491Y16480D01*
X12510Y16492D01*
X12516Y16498D01*
X12520Y16505D01*
X12526Y16515D01*
X12533Y16519D01*
X12555Y16536D01*
X12558Y16586D01*
X12580Y16600D01*
X12593Y16613D01*
X12597Y16621D01*
X12607Y16631D01*
X12614Y16635D01*
X12624Y16640D01*
X12628Y16656D01*
X12632Y16695D01*
X12641Y16704D01*
X12661Y16716D01*
X12676Y16739D01*
X12684Y16743D01*
X12697Y16752D01*
X12701Y16760D01*
X12709Y16768D01*
X12711Y16774D01*
X12719Y16778D01*
X12726Y16785D01*
X12734Y16789D01*
X12750Y16812D01*
X12761Y16816D01*
X12804Y16820D01*
X12809Y16826D01*
X12821Y16845D01*
X12831Y16855D01*
X12838Y16859D01*
X12852Y16872D01*
X12856Y16880D01*
X12865Y16890D01*
X12873Y16893D01*
X12887Y16907D01*
X12890Y16915D01*
X12896Y16924D01*
X12912Y16928D01*
X12950Y16932D01*
X12960Y16942D01*
X12972Y16961D01*
X12989Y16967D01*
X13014Y16965D01*
X13028Y16971D01*
X13033Y16976D01*
X13045Y16996D01*
X13051Y17001D01*
X13078Y17005D01*
X13093Y17001D01*
X13136Y17005D01*
X13145Y17015D01*
X13157Y17034D01*
X13163Y17040D01*
X13311Y17038D01*
X13331Y17054D01*
X13335Y17061D01*
X13344Y17075D01*
X13371Y17079D01*
X13398Y17075D01*
X13643Y17077D01*
X13657Y17071D01*
X13663Y17065D01*
X13674Y17046D01*
X13680Y17040D01*
X13707Y17036D01*
X13723Y17040D01*
X13838Y17036D01*
X13852Y17023D01*
X13862Y17005D01*
X13877Y17001D01*
X13941Y17003D01*
X13956Y16996D01*
X13972Y16969D01*
X13993Y16963D01*
X14004Y16967D01*
X14024Y16963D01*
X14033Y16953D01*
X14045Y16934D01*
X14051Y16928D01*
X14101Y16924D01*
X14107Y16918D01*
X14118Y16899D01*
X14124Y16893D01*
X14132Y16890D01*
X14149Y16872D01*
X14153Y16864D01*
X14163Y16855D01*
X14209Y16851D01*
X14219Y16841D01*
X14223Y16834D01*
X14240Y16816D01*
X14248Y16812D01*
X14257Y16803D01*
X14261Y16795D01*
X14279Y16778D01*
X14286Y16774D01*
X14292Y16768D01*
X14296Y16760D01*
X14317Y16739D01*
X14325Y16735D01*
X14331Y16729D01*
X14335Y16722D01*
X14352Y16704D01*
X14360Y16700D01*
X14369Y16691D01*
X14373Y16640D01*
X14396Y16625D01*
X14408Y16613D01*
X14412Y16606D01*
X14421Y16596D01*
X14429Y16592D01*
X14443Y16583D01*
X14445Y16565D01*
X14443Y16540D01*
X14456Y16523D01*
X14475Y16511D01*
X14481Y16505D01*
X14485Y16455D01*
X14491Y16449D01*
X14512Y16440D01*
X14516Y16432D01*
X14520Y16420D01*
X14518Y16376D01*
X14520Y16355D01*
X14516Y16343D01*
X14520Y16312D01*
X14533Y16299D01*
X14551Y16289D01*
X14558Y16262D01*
X14555Y16247D01*
X14557Y15766D01*
X14551Y15752D01*
X14541Y15743D01*
X14522Y15731D01*
X14516Y15714D01*
X14520Y15652D01*
X14502Y15631D01*
X14483Y15619D01*
X14479Y15569D01*
X14468Y15557D01*
X14460Y15554D01*
X14450Y15548D01*
X14447Y15540D01*
X14433Y15527D01*
X14425Y15523D01*
X14408Y15509D01*
X14412Y15486D01*
X14418Y15480D01*
X14526Y15484D01*
X14721Y15482D01*
X14734Y15492D01*
X14740Y15498D01*
X14752Y15517D01*
X14798Y15521D01*
X14811Y15530D01*
X14817Y15544D01*
X14831Y15557D01*
X14877Y15561D01*
X14887Y15571D01*
X14891Y15579D01*
X14908Y15596D01*
X14916Y15600D01*
X14925Y15610D01*
X14929Y15617D01*
X14943Y15631D01*
X14950Y15635D01*
X14960Y15640D01*
X14964Y15656D01*
X14968Y15695D01*
X14977Y15704D01*
X14997Y15716D01*
X15001Y15762D01*
X15010Y15776D01*
X15031Y15789D01*
X15037Y15795D01*
X15033Y16139D01*
X15024Y16148D01*
X15004Y16160D01*
X14999Y16166D01*
X14995Y16216D01*
X14989Y16222D01*
X14964Y16235D01*
X14960Y16285D01*
X14950Y16295D01*
X14943Y16299D01*
X14933Y16305D01*
X14929Y16312D01*
X14921Y16320D01*
X14918Y16328D01*
X14912Y16334D01*
X14904Y16337D01*
X14887Y16355D01*
X14883Y16362D01*
X14877Y16368D01*
X14869Y16372D01*
X14848Y16393D01*
X14844Y16401D01*
X14838Y16407D01*
X14831Y16411D01*
X14813Y16428D01*
X14809Y16436D01*
X14800Y16445D01*
X14792Y16449D01*
X14782Y16455D01*
X14779Y16463D01*
X14761Y16484D01*
X14711Y16488D01*
X14697Y16509D01*
X14688Y16519D01*
X14680Y16523D01*
X14667Y16536D01*
X14663Y16544D01*
X14657Y16554D01*
X14641Y16557D01*
X14603Y16561D01*
X14593Y16571D01*
X14589Y16586D01*
X14593Y16617D01*
X14603Y16627D01*
X14611Y16631D01*
X14624Y16640D01*
X14628Y16648D01*
X14641Y16666D01*
X14649Y16669D01*
X14670Y16691D01*
X14674Y16698D01*
X14680Y16704D01*
X14688Y16708D01*
X14705Y16725D01*
X14709Y16733D01*
X14715Y16739D01*
X14723Y16743D01*
X14744Y16764D01*
X14748Y16772D01*
X14753Y16778D01*
X14761Y16781D01*
X14779Y16799D01*
X14782Y16806D01*
X14792Y16816D01*
X14800Y16820D01*
X14817Y16837D01*
X14821Y16845D01*
X14827Y16851D01*
X14835Y16855D01*
X14856Y16876D01*
X14860Y16884D01*
X14865Y16890D01*
X14873Y16893D01*
X14883Y16899D01*
X14887Y16907D01*
X14904Y16928D01*
X14954Y16932D01*
X14970Y16955D01*
X14981Y16967D01*
X14989Y16971D01*
X15002Y16984D01*
X15006Y16992D01*
X15016Y17001D01*
X15031Y17005D01*
X15058Y17001D01*
X15072Y16988D01*
X15084Y16969D01*
X15105Y16963D01*
X15116Y16967D01*
X15136Y16963D01*
X15145Y16953D01*
X15157Y16934D01*
X15170Y16924D01*
X15180Y16918D01*
X15184Y16911D01*
X15194Y16897D01*
X15201Y16893D01*
X15209Y16886D01*
X15215Y16884D01*
X15219Y16876D01*
X15226Y16868D01*
X15230Y16861D01*
X15244Y16851D01*
X15253Y16845D01*
X15257Y16837D01*
X15265Y16830D01*
X15269Y16822D01*
X15288Y16810D01*
X15292Y16803D01*
X15300Y16795D01*
X15304Y16787D01*
X15317Y16778D01*
X15327Y16772D01*
X15331Y16764D01*
X15338Y16756D01*
X15342Y16749D01*
X15365Y16733D01*
X15373Y16718D01*
X15369Y16706D01*
X15373Y16679D01*
X15379Y16673D01*
X15404Y16660D01*
X15408Y16644D01*
X15412Y16602D01*
X15443Y16583D01*
X15447Y16567D01*
X15443Y16540D01*
X15456Y16523D01*
X15475Y16511D01*
X15481Y16505D01*
X15485Y16478D01*
X15481Y16463D01*
X15479Y16442D01*
X15483Y16422D01*
X15495Y16411D01*
X15514Y16399D01*
X15520Y16382D01*
X15518Y16283D01*
X15524Y16270D01*
X15530Y16264D01*
X15549Y16252D01*
X15555Y16247D01*
X15559Y16220D01*
X15555Y16204D01*
X15557Y15615D01*
X15549Y15600D01*
X15541Y15596D01*
X15520Y15579D01*
X15516Y15563D01*
X15520Y15513D01*
X15516Y15459D01*
X15503Y15445D01*
X15485Y15436D01*
X15481Y15420D01*
X15477Y15382D01*
X15468Y15372D01*
X15448Y15361D01*
X15443Y15343D01*
X15447Y15316D01*
X15437Y15303D01*
X15412Y15289D01*
X15408Y15274D01*
X15404Y15235D01*
X15394Y15225D01*
X15387Y15222D01*
X15377Y15216D01*
X15373Y15208D01*
X15360Y15191D01*
X15352Y15187D01*
X15331Y15166D01*
X15327Y15158D01*
X15321Y15152D01*
X15313Y15148D01*
X15292Y15127D01*
X15288Y15119D01*
X15282Y15113D01*
X15275Y15110D01*
X15257Y15092D01*
X15253Y15084D01*
X15248Y15079D01*
X15240Y15075D01*
X15219Y15054D01*
X15215Y15046D01*
X15209Y15040D01*
X15201Y15036D01*
X15192Y15030D01*
X15188Y15023D01*
X15170Y15001D01*
X15120Y14998D01*
X15101Y14967D01*
X15086Y14963D01*
X15047Y14959D01*
X15037Y14949D01*
X15026Y14930D01*
X15008Y14924D01*
X14997Y14928D01*
X14974Y14924D01*
X14968Y14918D01*
X14956Y14899D01*
X14947Y14889D01*
X12414Y14893D01*
X12408Y14899D01*
X12404Y14926D01*
X12408Y14972D01*
X12404Y14984D01*
X12406Y15426D01*
X12404Y15463D01*
X12418Y15480D01*
X12433Y15484D01*
X12528Y15482D01*
X12543Y15486D01*
X12555Y15498D01*
X12558Y15528D01*
X12547Y15548D01*
X12541Y15554D01*
X12522Y15565D01*
X12516Y15583D01*
X12512Y15621D01*
X12502Y15631D01*
X12491Y15635D01*
X12481Y15644D01*
X12477Y15695D01*
X12472Y15700D01*
X12446Y15714D01*
X12443Y15729D01*
X12445Y15824D01*
X12441Y15839D01*
X12429Y15851D01*
X12421Y15855D01*
X12408Y15864D01*
X12404Y15880D01*
X12408Y15938D01*
X12404Y15949D01*
X12406Y16168D01*
X12404Y16204D01*
X12418Y16222D01*
D02*
G37*
G36*
Y18778D02*
X12425Y18781D01*
X12443Y18795D01*
X12446Y18826D01*
X12443Y18837D01*
X12441Y18863D01*
X12445Y18878D01*
X12460Y18893D01*
X12477Y18903D01*
X12481Y18919D01*
X12485Y18957D01*
X12491Y18963D01*
X12510Y18974D01*
X12516Y18980D01*
X12520Y19030D01*
X12526Y19036D01*
X12545Y19048D01*
X12555Y19058D01*
X12558Y19065D01*
X12572Y19079D01*
X12589Y19088D01*
X12593Y19104D01*
X12589Y19131D01*
X12603Y19148D01*
X12611Y19152D01*
X12624Y19162D01*
X12628Y19169D01*
X12641Y19187D01*
X12649Y19191D01*
X12670Y19212D01*
X12674Y19220D01*
X12688Y19229D01*
X12705Y19247D01*
X12709Y19254D01*
X12715Y19260D01*
X12723Y19264D01*
X12744Y19285D01*
X12748Y19293D01*
X12761Y19303D01*
X12779Y19320D01*
X12782Y19328D01*
X12788Y19334D01*
X12796Y19337D01*
X12817Y19359D01*
X12821Y19366D01*
X12827Y19372D01*
X12835Y19376D01*
X12848Y19386D01*
X12860Y19405D01*
X12865Y19411D01*
X12916Y19415D01*
X12931Y19438D01*
X12943Y19449D01*
X12950Y19453D01*
X12960Y19463D01*
X12964Y19471D01*
X12974Y19484D01*
X13024Y19488D01*
X13033Y19498D01*
X13045Y19517D01*
X13051Y19523D01*
X13101Y19527D01*
X13107Y19532D01*
X13118Y19552D01*
X13124Y19558D01*
X13140Y19561D01*
X13184Y19559D01*
X13201Y19561D01*
X13213Y19558D01*
X13244Y19561D01*
X13257Y19575D01*
X13261Y19583D01*
X13267Y19592D01*
X13294Y19600D01*
X13306Y19596D01*
X13472Y19600D01*
X13491Y19631D01*
X13506Y19635D01*
X13566Y19633D01*
X13611Y19635D01*
X13624Y19625D01*
X13638Y19600D01*
X13653Y19596D01*
X13821Y19598D01*
X13836Y19594D01*
X13844Y19590D01*
X13848Y19583D01*
X13865Y19561D01*
X13881Y19558D01*
X13943Y19561D01*
X13960Y19548D01*
X13972Y19529D01*
X13977Y19523D01*
X14004Y19519D01*
X14020Y19523D01*
X14062Y19519D01*
X14072Y19509D01*
X14084Y19490D01*
X14089Y19484D01*
X14140Y19480D01*
X14155Y19457D01*
X14163Y19449D01*
X14170Y19446D01*
X14184Y19432D01*
X14188Y19424D01*
X14194Y19415D01*
X14209Y19411D01*
X14248Y19407D01*
X14257Y19397D01*
X14261Y19390D01*
X14267Y19380D01*
X14275Y19376D01*
X14292Y19363D01*
X14296Y19355D01*
X14317Y19334D01*
X14325Y19330D01*
X14331Y19324D01*
X14335Y19316D01*
X14356Y19295D01*
X14363Y19291D01*
X14373Y19278D01*
X14391Y19260D01*
X14398Y19256D01*
X14404Y19251D01*
X14408Y19243D01*
X14429Y19222D01*
X14437Y19218D01*
X14447Y19204D01*
X14452Y19195D01*
X14460Y19191D01*
X14477Y19177D01*
X14481Y19169D01*
X14491Y19156D01*
X14499Y19152D01*
X14516Y19139D01*
X14520Y19123D01*
X14516Y19100D01*
X14526Y19083D01*
X14545Y19071D01*
X14555Y19061D01*
X14558Y19054D01*
X14572Y19040D01*
X14589Y19030D01*
X14593Y19015D01*
X14597Y18976D01*
X14607Y18967D01*
X14626Y18955D01*
X14632Y18934D01*
X14628Y18872D01*
X14645Y18855D01*
X14663Y18845D01*
X14670Y18814D01*
X14667Y18803D01*
X14663Y18772D01*
X14672Y18751D01*
X14680Y18747D01*
X14701Y18733D01*
X14705Y18718D01*
X14703Y18666D01*
X14705Y18266D01*
X14701Y18254D01*
X14705Y18239D01*
X14701Y18200D01*
X14692Y18191D01*
X14672Y18179D01*
X14667Y18173D01*
X14665Y18148D01*
X14667Y18057D01*
X14657Y18044D01*
X14638Y18032D01*
X14628Y18023D01*
X14630Y17990D01*
X14622Y17971D01*
X14595Y17955D01*
X14589Y17934D01*
X14593Y17895D01*
X14589Y17884D01*
X14597Y17864D01*
X14607Y17855D01*
X14634Y17851D01*
X14645Y17855D01*
X14696Y17851D01*
X14705Y17830D01*
X14703Y17778D01*
X14705Y17305D01*
X14701Y17293D01*
X14705Y17266D01*
X14701Y17235D01*
X14692Y17225D01*
X14665Y17222D01*
X14638Y17225D01*
X12427Y17224D01*
X12414Y17229D01*
X12408Y17235D01*
X12404Y17251D01*
X12408Y17308D01*
X12404Y17320D01*
X12406Y17797D01*
X12404Y17834D01*
X12414Y17851D01*
X12429Y17855D01*
X12506Y17859D01*
X12516Y17868D01*
X12520Y17884D01*
X12516Y17915D01*
X12506Y17924D01*
X12487Y17936D01*
X12481Y17942D01*
X12477Y17969D01*
X12481Y18007D01*
X12477Y18027D01*
X12464Y18040D01*
X12446Y18050D01*
X12443Y18065D01*
X12445Y18160D01*
X12441Y18175D01*
X12429Y18187D01*
X12410Y18198D01*
X12404Y18216D01*
X12408Y18274D01*
X12404Y18285D01*
Y18548D01*
X12406Y18724D01*
X12404Y18760D01*
X12418Y18778D01*
D02*
G37*
%LPC*%
G36*
X12960Y16123D02*
X12964Y16065D01*
X12960Y16054D01*
X12962Y15870D01*
X12960Y15837D01*
X12977Y15816D01*
X12997Y15805D01*
X13001Y15754D01*
X13012Y15743D01*
X13024Y15739D01*
X13037Y15725D01*
X13035Y15693D01*
X13043Y15673D01*
X13060Y15664D01*
X13062Y15662D01*
X13072Y15652D01*
X13076Y15644D01*
X13089Y15631D01*
X13097Y15627D01*
X13111Y15613D01*
X13114Y15606D01*
X13124Y15596D01*
X13132Y15592D01*
X13145Y15579D01*
X13149Y15571D01*
X13163Y15557D01*
X13170Y15554D01*
X13184Y15540D01*
X13188Y15532D01*
X13194Y15523D01*
X13209Y15519D01*
X13248Y15515D01*
X13257Y15505D01*
X13269Y15486D01*
X13286Y15480D01*
X13348Y15484D01*
X13381Y15482D01*
X13425Y15484D01*
X13439Y15474D01*
X13443Y15467D01*
X13460Y15445D01*
X13487Y15442D01*
X13506Y15449D01*
X13512Y15455D01*
X13516Y15463D01*
X13529Y15480D01*
X13545Y15484D01*
X13647Y15482D01*
X13661Y15492D01*
X13674Y15513D01*
X13680Y15519D01*
X13730Y15523D01*
X13736Y15528D01*
X13750Y15554D01*
X13765Y15557D01*
X13804Y15561D01*
X13813Y15571D01*
X13823Y15588D01*
X13831Y15592D01*
X13838Y15600D01*
X13846Y15604D01*
X13858Y15623D01*
X13865Y15627D01*
X13873Y15635D01*
X13881Y15639D01*
X13891Y15652D01*
X13896Y15662D01*
X13904Y15666D01*
X13912Y15673D01*
X13919Y15677D01*
X13935Y15700D01*
X13943Y15704D01*
X13960Y15718D01*
X13964Y15733D01*
X13960Y15756D01*
X13970Y15774D01*
X13995Y15787D01*
X14002Y15814D01*
X13999Y15841D01*
X14002Y15915D01*
X14016Y15928D01*
X14033Y15938D01*
X14037Y15953D01*
X14035Y16005D01*
X14037Y16057D01*
X14028Y16071D01*
X14008Y16083D01*
X13999Y16092D01*
X14001Y16164D01*
X13995Y16177D01*
X13989Y16183D01*
X13970Y16195D01*
X13964Y16200D01*
X13960Y16216D01*
X13964Y16231D01*
X13960Y16251D01*
X13937Y16266D01*
X13925Y16278D01*
X13921Y16285D01*
X13908Y16299D01*
X13900Y16303D01*
X13887Y16316D01*
X13883Y16324D01*
X13873Y16334D01*
X13865Y16337D01*
X13852Y16351D01*
X13848Y16359D01*
X13835Y16372D01*
X13827Y16376D01*
X13813Y16390D01*
X13809Y16397D01*
X13800Y16407D01*
X13792Y16411D01*
X13779Y16424D01*
X13775Y16432D01*
X13769Y16442D01*
X13753Y16445D01*
X13715Y16449D01*
X13705Y16459D01*
X13694Y16478D01*
X13676Y16484D01*
X13578Y16482D01*
X13564Y16488D01*
X13558Y16494D01*
X13547Y16513D01*
X13541Y16519D01*
X13526Y16523D01*
X13464Y16519D01*
X13448Y16523D01*
X13421Y16519D01*
X13412Y16513D01*
X13398Y16488D01*
X13379Y16480D01*
X13317Y16484D01*
X13271Y16480D01*
X13261Y16471D01*
X13257Y16463D01*
X13244Y16445D01*
X13194Y16442D01*
X13188Y16436D01*
X13176Y16417D01*
X13170Y16411D01*
X13163Y16407D01*
X13145Y16390D01*
X13141Y16382D01*
X13136Y16376D01*
X13128Y16372D01*
X13107Y16351D01*
X13103Y16343D01*
X13097Y16337D01*
X13089Y16334D01*
X13072Y16316D01*
X13068Y16308D01*
X13058Y16299D01*
X13051Y16295D01*
X13033Y16278D01*
X13029Y16270D01*
X13024Y16264D01*
X13016Y16260D01*
X13002Y16251D01*
X12995Y16220D01*
X12999Y16208D01*
X13002Y16177D01*
X12991Y16158D01*
X12985Y16152D01*
X12977Y16148D01*
X12964Y16139D01*
X12960Y16123D01*
D02*
G37*
G36*
Y18567D02*
X12964Y18509D01*
X12960Y18498D01*
X12962Y18318D01*
X12960Y18281D01*
X12974Y18264D01*
X12993Y18252D01*
X12999Y18247D01*
X13002Y18196D01*
X13033Y18177D01*
X13037Y18162D01*
X13035Y18137D01*
X13041Y18123D01*
X13047Y18117D01*
X13055Y18113D01*
X13068Y18104D01*
X13072Y18096D01*
X13082Y18083D01*
X13089Y18079D01*
X13111Y18061D01*
X13114Y18011D01*
X13120Y18005D01*
X13136Y18002D01*
X13161Y18003D01*
X13174Y17998D01*
X13184Y17988D01*
X13194Y17971D01*
X13201Y17967D01*
X13219Y17953D01*
X13230Y17934D01*
X13236Y17928D01*
X13286Y17924D01*
X13292Y17918D01*
X13304Y17899D01*
X13309Y17893D01*
X13325Y17890D01*
X13387Y17893D01*
X13404Y17880D01*
X13416Y17861D01*
X13421Y17855D01*
X13445Y17851D01*
X13456Y17855D01*
X13678Y17853D01*
X13692Y17859D01*
X13701Y17868D01*
X13713Y17888D01*
X13730Y17893D01*
X13792Y17890D01*
X13813Y17907D01*
X13825Y17926D01*
X13875Y17930D01*
X13887Y17942D01*
X13898Y17961D01*
X13921Y17976D01*
X13925Y17984D01*
X13935Y17998D01*
X13943Y18002D01*
X13950Y18009D01*
X13956Y18011D01*
X13960Y18019D01*
X13968Y18027D01*
X13972Y18034D01*
X13991Y18046D01*
X13995Y18054D01*
X14002Y18061D01*
X14006Y18069D01*
X14012Y18075D01*
X14020Y18079D01*
X14030Y18085D01*
X14033Y18092D01*
X14041Y18100D01*
X14045Y18108D01*
X14068Y18123D01*
X14076Y18142D01*
X14072Y18154D01*
X14076Y18177D01*
X14082Y18183D01*
X14107Y18196D01*
X14111Y18212D01*
X14114Y18251D01*
X14124Y18260D01*
X14143Y18272D01*
X14149Y18289D01*
X14147Y18345D01*
X14149Y18513D01*
X14145Y18525D01*
X14149Y18563D01*
X14145Y18583D01*
X14132Y18596D01*
X14113Y18608D01*
X14109Y18658D01*
X14101Y18666D01*
X14076Y18679D01*
X14072Y18695D01*
X14074Y18724D01*
X14064Y18737D01*
X14058Y18743D01*
X14051Y18747D01*
X14033Y18764D01*
X14030Y18772D01*
X14024Y18778D01*
X14016Y18781D01*
X13999Y18799D01*
X13995Y18807D01*
X13985Y18816D01*
X13977Y18820D01*
X13960Y18837D01*
X13956Y18845D01*
X13946Y18855D01*
X13939Y18859D01*
X13925Y18872D01*
X13921Y18880D01*
X13912Y18890D01*
X13904Y18893D01*
X13902Y18895D01*
X13887Y18911D01*
X13883Y18919D01*
X13873Y18928D01*
X13827Y18932D01*
X13813Y18946D01*
X13804Y18963D01*
X13788Y18967D01*
X13728Y18965D01*
X13709Y18973D01*
X13705Y18980D01*
X13692Y19002D01*
X13676Y19005D01*
X13591Y19002D01*
X13423Y19003D01*
X13412Y18996D01*
X13398Y18971D01*
X13371Y18963D01*
X13333Y18967D01*
X13306Y18963D01*
X13300Y18957D01*
X13288Y18938D01*
X13279Y18928D01*
X13232Y18924D01*
X13223Y18915D01*
X13219Y18907D01*
X13201Y18890D01*
X13194Y18886D01*
X13184Y18876D01*
X13180Y18868D01*
X13167Y18855D01*
X13159Y18851D01*
X13149Y18841D01*
X13145Y18834D01*
X13128Y18816D01*
X13120Y18812D01*
X13111Y18803D01*
X13107Y18795D01*
X13093Y18781D01*
X13085Y18778D01*
X13076Y18768D01*
X13072Y18760D01*
X13055Y18743D01*
X13047Y18739D01*
X13037Y18729D01*
X13035Y18712D01*
X13037Y18687D01*
X13031Y18677D01*
X13024Y18673D01*
X12999Y18656D01*
X12995Y18606D01*
X12989Y18600D01*
X12970Y18588D01*
X12964Y18583D01*
X12960Y18567D01*
D02*
G37*
%LPD*%
M02*
