G04*
G04 #@! TF.GenerationSoftware,Altium Limited,Altium Designer,22.1.2 (22)*
G04*
G04 Layer_Physical_Order=2*
G04 Layer_Color=16711680*
%FSLAX24Y24*%
%MOIN*%
G70*
G04*
G04 #@! TF.SameCoordinates,162C4C40-B8F5-4961-9C55-0291AD4F2388*
G04*
G04*
G04 #@! TF.FilePolarity,Positive*
G04*
G01*
G75*
%ADD69C,0.1969*%
%ADD70C,0.1181*%
%ADD71R,0.0787X0.0787*%
%ADD72C,0.0787*%
%ADD73R,0.0945X0.0945*%
%ADD74O,0.0709X0.0433*%
%ADD75C,0.0236*%
%ADD76R,0.0976X0.0642*%
G36*
X20472Y7106D02*
X20453Y7091D01*
X20422Y7076D01*
X20400Y7080D01*
X14850D01*
X14819Y7074D01*
X14793Y7057D01*
X14793Y7057D01*
X14693Y6957D01*
X14693Y6957D01*
X14676Y6931D01*
X14670Y6900D01*
Y4300D01*
X14676Y4269D01*
X14693Y4243D01*
X14693Y4243D01*
X14793Y4143D01*
X14819Y4126D01*
X14850Y4120D01*
X16600Y4120D01*
X16600Y4120D01*
X16631Y4126D01*
X16657Y4143D01*
X16657Y4143D01*
X16757Y4243D01*
X16774Y4269D01*
X16780Y4300D01*
X16780Y4620D01*
X16805D01*
X16836Y4626D01*
X16862Y4643D01*
X16879Y4669D01*
X16885Y4700D01*
Y4860D01*
X16879Y4891D01*
X16862Y4917D01*
X16836Y4934D01*
X16805Y4940D01*
X15913D01*
X15860Y4993D01*
Y5097D01*
X15913Y5150D01*
X16805D01*
X16836Y5156D01*
X16862Y5173D01*
X16879Y5199D01*
X16885Y5230D01*
Y5336D01*
X17394D01*
Y4701D01*
X17394Y4700D01*
X17394Y4700D01*
X17397Y4685D01*
X17400Y4670D01*
X17400Y4670D01*
X17400Y4670D01*
X17409Y4657D01*
X17418Y4644D01*
X17418Y4644D01*
X17418Y4644D01*
X17418Y4643D01*
X17431Y4635D01*
X17444Y4626D01*
X17444Y4626D01*
X17444Y4626D01*
X17460Y4623D01*
X17475Y4620D01*
X18250D01*
X18281Y4626D01*
X18307Y4643D01*
X18633Y4970D01*
X20250D01*
X20281Y4976D01*
X20307Y4993D01*
X20422Y5109D01*
X20472Y5088D01*
Y0D01*
X0D01*
Y25591D01*
X20472D01*
Y7106D01*
D02*
G37*
G36*
X20400Y5200D02*
X20250Y5050D01*
X18600D01*
X18250Y4700D01*
X17475D01*
X17474Y4701D01*
Y5416D01*
X16805D01*
Y5230D01*
X15880D01*
X15780Y5130D01*
Y4960D01*
X15880Y4860D01*
X16805D01*
Y4700D01*
X16700D01*
X16700Y4300D01*
X16600Y4200D01*
X14850Y4200D01*
X14750Y4300D01*
Y6900D01*
X14850Y7000D01*
X20400D01*
Y5200D01*
D02*
G37*
%LPC*%
G36*
X16632Y25292D02*
X15688D01*
Y24348D01*
X16632D01*
Y25292D01*
D02*
G37*
G36*
X14222D02*
X14098D01*
X13978Y25260D01*
X13870Y25198D01*
X13782Y25110D01*
X13720Y25002D01*
X13688Y24882D01*
Y24758D01*
X13720Y24638D01*
X13782Y24530D01*
X13870Y24442D01*
X13978Y24380D01*
X14098Y24348D01*
X14222D01*
X14342Y24380D01*
X14450Y24442D01*
X14538Y24530D01*
X14600Y24638D01*
X14632Y24758D01*
Y24882D01*
X14600Y25002D01*
X14538Y25110D01*
X14450Y25198D01*
X14342Y25260D01*
X14222Y25292D01*
D02*
G37*
G36*
X1064Y16885D02*
X932D01*
X803Y16859D01*
X681Y16809D01*
X571Y16736D01*
X478Y16642D01*
X405Y16533D01*
X354Y16411D01*
X329Y16282D01*
Y16150D01*
X354Y16021D01*
X405Y15899D01*
X478Y15789D01*
X571Y15696D01*
X681Y15623D01*
X803Y15572D01*
X932Y15546D01*
X1064D01*
X1193Y15572D01*
X1315Y15623D01*
X1425Y15696D01*
X1518Y15789D01*
X1591Y15899D01*
X1642Y16021D01*
X1667Y16150D01*
Y16282D01*
X1642Y16411D01*
X1591Y16533D01*
X1518Y16642D01*
X1425Y16736D01*
X1315Y16809D01*
X1193Y16859D01*
X1064Y16885D01*
D02*
G37*
G36*
X4686Y16157D02*
X4554D01*
X4425Y16131D01*
X4303Y16081D01*
X4193Y16007D01*
X4100Y15914D01*
X4027Y15804D01*
X3977Y15683D01*
X3951Y15553D01*
Y15421D01*
X3977Y15292D01*
X4027Y15170D01*
X4100Y15061D01*
X4193Y14968D01*
X4303Y14894D01*
X4425Y14844D01*
X4554Y14818D01*
X4686D01*
X4815Y14844D01*
X4937Y14894D01*
X5047Y14968D01*
X5140Y15061D01*
X5213Y15170D01*
X5264Y15292D01*
X5289Y15421D01*
Y15553D01*
X5264Y15683D01*
X5213Y15804D01*
X5140Y15914D01*
X5047Y16007D01*
X4937Y16081D01*
X4815Y16131D01*
X4686Y16157D01*
D02*
G37*
G36*
Y14267D02*
X4554D01*
X4425Y14241D01*
X4303Y14191D01*
X4193Y14118D01*
X4100Y14024D01*
X4027Y13915D01*
X3977Y13793D01*
X3951Y13664D01*
Y13532D01*
X3977Y13402D01*
X4027Y13281D01*
X4100Y13171D01*
X4193Y13078D01*
X4303Y13005D01*
X4425Y12954D01*
X4554Y12928D01*
X4686D01*
X4815Y12954D01*
X4937Y13005D01*
X5047Y13078D01*
X5140Y13171D01*
X5213Y13281D01*
X5264Y13402D01*
X5289Y13532D01*
Y13664D01*
X5264Y13793D01*
X5213Y13915D01*
X5140Y14024D01*
X5047Y14118D01*
X4937Y14191D01*
X4815Y14241D01*
X4686Y14267D01*
D02*
G37*
G36*
Y12377D02*
X4554D01*
X4425Y12351D01*
X4303Y12301D01*
X4193Y12228D01*
X4100Y12135D01*
X4027Y12025D01*
X3977Y11903D01*
X3951Y11774D01*
Y11642D01*
X3977Y11513D01*
X4027Y11391D01*
X4100Y11281D01*
X4193Y11188D01*
X4303Y11115D01*
X4425Y11064D01*
X4554Y11039D01*
X4686D01*
X4815Y11064D01*
X4937Y11115D01*
X5047Y11188D01*
X5140Y11281D01*
X5213Y11391D01*
X5264Y11513D01*
X5289Y11642D01*
Y11774D01*
X5264Y11903D01*
X5213Y12025D01*
X5140Y12135D01*
X5047Y12228D01*
X4937Y12301D01*
X4815Y12351D01*
X4686Y12377D01*
D02*
G37*
G36*
X1064Y11649D02*
X932D01*
X803Y11623D01*
X681Y11573D01*
X571Y11499D01*
X478Y11406D01*
X405Y11297D01*
X354Y11175D01*
X329Y11045D01*
Y10914D01*
X354Y10784D01*
X405Y10662D01*
X478Y10553D01*
X571Y10460D01*
X681Y10386D01*
X803Y10336D01*
X932Y10310D01*
X1064D01*
X1193Y10336D01*
X1315Y10386D01*
X1425Y10460D01*
X1518Y10553D01*
X1591Y10662D01*
X1642Y10784D01*
X1667Y10914D01*
Y11045D01*
X1642Y11175D01*
X1591Y11297D01*
X1518Y11406D01*
X1425Y11499D01*
X1315Y11573D01*
X1193Y11623D01*
X1064Y11649D01*
D02*
G37*
G36*
X2308Y6772D02*
X2032D01*
X1955Y6762D01*
X1883Y6732D01*
X1821Y6685D01*
X1774Y6623D01*
X1744Y6551D01*
X1734Y6474D01*
X1744Y6397D01*
X1774Y6325D01*
X1821Y6264D01*
X1883Y6216D01*
X1955Y6187D01*
X2032Y6176D01*
X2308D01*
X2385Y6187D01*
X2457Y6216D01*
X2518Y6264D01*
X2566Y6325D01*
X2595Y6397D01*
X2605Y6474D01*
X2595Y6551D01*
X2566Y6623D01*
X2518Y6685D01*
X2457Y6732D01*
X2385Y6762D01*
X2308Y6772D01*
D02*
G37*
G36*
X812D02*
X536D01*
X459Y6762D01*
X387Y6732D01*
X325Y6685D01*
X278Y6623D01*
X248Y6551D01*
X238Y6474D01*
X248Y6397D01*
X278Y6325D01*
X325Y6264D01*
X387Y6216D01*
X459Y6187D01*
X536Y6176D01*
X812D01*
X889Y6187D01*
X961Y6216D01*
X1022Y6264D01*
X1070Y6325D01*
X1099Y6397D01*
X1110Y6474D01*
X1099Y6551D01*
X1070Y6623D01*
X1022Y6685D01*
X961Y6732D01*
X889Y6762D01*
X812Y6772D01*
D02*
G37*
G36*
X2308Y3370D02*
X2032D01*
X1955Y3360D01*
X1883Y3331D01*
X1821Y3283D01*
X1774Y3222D01*
X1744Y3150D01*
X1734Y3073D01*
X1744Y2996D01*
X1774Y2924D01*
X1821Y2862D01*
X1883Y2815D01*
X1955Y2785D01*
X2032Y2775D01*
X2308D01*
X2385Y2785D01*
X2457Y2815D01*
X2518Y2862D01*
X2566Y2924D01*
X2595Y2996D01*
X2605Y3073D01*
X2595Y3150D01*
X2566Y3222D01*
X2518Y3283D01*
X2457Y3331D01*
X2385Y3360D01*
X2308Y3370D01*
D02*
G37*
G36*
X812D02*
X536D01*
X459Y3360D01*
X387Y3331D01*
X326Y3283D01*
X278Y3222D01*
X248Y3150D01*
X238Y3073D01*
X248Y2996D01*
X278Y2924D01*
X326Y2862D01*
X387Y2815D01*
X459Y2785D01*
X536Y2775D01*
X812D01*
X889Y2785D01*
X961Y2815D01*
X1022Y2862D01*
X1070Y2924D01*
X1099Y2996D01*
X1110Y3073D01*
X1099Y3150D01*
X1070Y3222D01*
X1022Y3283D01*
X961Y3331D01*
X889Y3360D01*
X812Y3370D01*
D02*
G37*
G36*
X19715Y3843D02*
X18613D01*
Y2741D01*
X19715D01*
Y3843D01*
D02*
G37*
%LPD*%
D69*
X1181Y24409D02*
D03*
X19291D02*
D03*
Y1181D02*
D03*
X1181D02*
D03*
D70*
X998Y16216D02*
D03*
X4620Y15487D02*
D03*
Y13598D02*
D03*
Y11708D02*
D03*
X998Y10980D02*
D03*
D71*
X15164Y5292D02*
D03*
X9361Y4595D02*
D03*
X16160Y24820D02*
D03*
D72*
X15160D02*
D03*
X14160D02*
D03*
D73*
X19164Y6492D02*
D03*
Y3292D02*
D03*
D74*
X674Y6474D02*
D03*
X674Y3073D02*
D03*
X2170Y6474D02*
D03*
Y3073D02*
D03*
D75*
X11607Y6511D02*
D03*
X11170Y7220D02*
D03*
X3230Y990D02*
D03*
X13440Y5190D02*
D03*
X13410Y6380D02*
D03*
X7329Y21207D02*
D03*
X7340Y22110D02*
D03*
X5920Y6910D02*
D03*
X5100Y6950D02*
D03*
X4378Y6965D02*
D03*
X3760Y7020D02*
D03*
X9136Y22301D02*
D03*
X9848Y21732D02*
D03*
X9005Y21765D02*
D03*
X9960Y21120D02*
D03*
X9300D02*
D03*
X8640Y21130D02*
D03*
X8130Y21610D02*
D03*
X8150Y22240D02*
D03*
X8630Y10140D02*
D03*
X8610Y10420D02*
D03*
X8120Y10140D02*
D03*
X8110Y10420D02*
D03*
X16155Y22065D02*
D03*
X16140Y22520D02*
D03*
X3100Y23600D02*
D03*
X2261Y22846D02*
D03*
X1560Y22010D02*
D03*
X1494Y21107D02*
D03*
X1460Y20310D02*
D03*
Y19450D02*
D03*
Y18510D02*
D03*
X17790Y12610D02*
D03*
X18390Y11190D02*
D03*
X15570Y15080D02*
D03*
Y16240D02*
D03*
X16310Y3550D02*
D03*
X15042Y3635D02*
D03*
X13980Y4100D02*
D03*
X13955Y7176D02*
D03*
X12930Y9050D02*
D03*
X13975Y8625D02*
D03*
X15220Y8540D02*
D03*
X16370Y8524D02*
D03*
X17597Y8544D02*
D03*
X18744Y8584D02*
D03*
X19790Y8926D02*
D03*
X19931Y9651D02*
D03*
X19951Y10939D02*
D03*
X20012Y11924D02*
D03*
X20032Y12951D02*
D03*
X19951Y13896D02*
D03*
X19971Y14963D02*
D03*
X19970Y16050D02*
D03*
X19930Y17120D02*
D03*
X19950Y18240D02*
D03*
X19830Y19150D02*
D03*
X19871Y20436D02*
D03*
X19830Y21542D02*
D03*
X18890Y23750D02*
D03*
X18640Y24000D02*
D03*
X18540Y24350D02*
D03*
X18578Y24692D02*
D03*
X18700Y24960D02*
D03*
X9760Y22300D02*
D03*
X10830Y22200D02*
D03*
X11700Y22220D02*
D03*
X11260Y22560D02*
D03*
X16210Y19540D02*
D03*
X17710Y18320D02*
D03*
X17210D02*
D03*
X14700D02*
D03*
X15210D02*
D03*
X15030Y17190D02*
D03*
X16880Y17210D02*
D03*
X18510Y18410D02*
D03*
X18500Y19260D02*
D03*
X18650Y21910D02*
D03*
X19020Y22330D02*
D03*
X18640Y22680D02*
D03*
X16130Y21270D02*
D03*
X15840Y21600D02*
D03*
X15530Y21920D02*
D03*
X14870Y22810D02*
D03*
X14900Y23580D02*
D03*
X15440Y25310D02*
D03*
X14920Y25290D02*
D03*
X15430Y24310D02*
D03*
X14880Y24320D02*
D03*
X12770Y22596D02*
D03*
X12472Y24516D02*
D03*
X11677Y23391D02*
D03*
X4195Y24218D02*
D03*
X1950Y24640D02*
D03*
X1920Y24220D02*
D03*
X1740Y23880D02*
D03*
X1380Y23670D02*
D03*
X990Y23660D02*
D03*
X4010Y22570D02*
D03*
X3630Y22200D02*
D03*
X3620Y21670D02*
D03*
X3950Y21300D02*
D03*
X2543Y15564D02*
D03*
Y14537D02*
D03*
X2624Y13571D02*
D03*
X2664Y12826D02*
D03*
X2624Y11860D02*
D03*
X2704Y10833D02*
D03*
X2624Y9726D02*
D03*
X2600Y8880D02*
D03*
X10340Y12020D02*
D03*
X10330Y12500D02*
D03*
X10186Y12966D02*
D03*
X9668Y13262D02*
D03*
X8120Y13310D02*
D03*
X7386Y13179D02*
D03*
X7260Y12580D02*
D03*
X7250Y12040D02*
D03*
X10280Y11410D02*
D03*
X10636Y11220D02*
D03*
X10640Y10900D02*
D03*
X6820Y10060D02*
D03*
X7700Y8890D02*
D03*
X8100Y8830D02*
D03*
X3160Y16700D02*
D03*
Y17060D02*
D03*
X3060Y17390D02*
D03*
X2690Y17420D02*
D03*
X2680Y7420D02*
D03*
X2650Y7790D02*
D03*
X2180Y7900D02*
D03*
X2940Y6090D02*
D03*
X3320D02*
D03*
X2840Y3540D02*
D03*
X3310Y3510D02*
D03*
X7300Y5860D02*
D03*
X9770Y2530D02*
D03*
X9310D02*
D03*
X8860Y2540D02*
D03*
X18680Y700D02*
D03*
X18500Y1060D02*
D03*
X18540Y1420D02*
D03*
X18720Y1740D02*
D03*
X19040Y1930D02*
D03*
X1830Y680D02*
D03*
X1950Y1020D02*
D03*
X1941Y1340D02*
D03*
X1780Y1690D02*
D03*
X1500Y1900D02*
D03*
X4111Y1011D02*
D03*
X4855D02*
D03*
X5840Y1050D02*
D03*
X6650D02*
D03*
X17170Y1010D02*
D03*
X16240Y1030D02*
D03*
X15307Y1025D02*
D03*
X14533Y968D02*
D03*
X13690Y980D02*
D03*
X12840Y1040D02*
D03*
X11985Y1054D02*
D03*
X11212D02*
D03*
X10400Y1050D02*
D03*
X9610D02*
D03*
X8820D02*
D03*
X8144Y1057D02*
D03*
X7450Y1050D02*
D03*
X9164Y4398D02*
D03*
Y4792D02*
D03*
X9557D02*
D03*
Y4398D02*
D03*
X14967Y5095D02*
D03*
Y5489D02*
D03*
X15361D02*
D03*
Y5095D02*
D03*
D76*
X8361Y10295D02*
D03*
M02*
