G04*
G04 #@! TF.GenerationSoftware,Altium Limited,Altium Designer,22.1.2 (22)*
G04*
G04 Layer_Color=128*
%FSLAX24Y24*%
%MOIN*%
G70*
G04*
G04 #@! TF.SameCoordinates,162C4C40-B8F5-4961-9C55-0291AD4F2388*
G04*
G04*
G04 #@! TF.FilePolarity,Positive*
G04*
G01*
G75*
%ADD18C,0.0050*%
D18*
X591Y24409D02*
X1772D01*
X1181Y23819D02*
Y25000D01*
X18701Y24409D02*
X19882D01*
X19291Y23819D02*
Y25000D01*
X18701Y1181D02*
X19882D01*
X19291Y591D02*
Y1772D01*
X591Y1181D02*
X1772D01*
X1181Y591D02*
Y1772D01*
X644Y16216D02*
X1352D01*
X998Y15861D02*
Y16570D01*
X4266Y15487D02*
X4974D01*
X4620Y15133D02*
Y15842D01*
X4266Y13598D02*
X4974D01*
X4620Y13243D02*
Y13952D01*
X4266Y11708D02*
X4974D01*
X4620Y11354D02*
Y12062D01*
X644Y10980D02*
X1352D01*
X998Y10625D02*
Y11334D01*
X15963Y24820D02*
X16357D01*
X16160Y24623D02*
Y25017D01*
X14963Y24820D02*
X15357D01*
X15160Y24623D02*
Y25017D01*
X13963Y24820D02*
X14357D01*
X14160Y24623D02*
Y25017D01*
X18928Y6492D02*
X19400D01*
X19164Y6256D02*
Y6728D01*
X18928Y3292D02*
X19400D01*
X19164Y3056D02*
Y3528D01*
X536Y6474D02*
X812D01*
X674Y6336D02*
Y6612D01*
X536Y3073D02*
X812D01*
X674Y2935D02*
Y3210D01*
X2032Y6474D02*
X2308D01*
X2170Y6336D02*
Y6612D01*
X2032Y3073D02*
X2308D01*
X2170Y2935D02*
Y3210D01*
X11548Y6511D02*
X11666D01*
X11607Y6452D02*
Y6570D01*
X11111Y7220D02*
X11229D01*
X11170Y7161D02*
Y7279D01*
X3171Y990D02*
X3289D01*
X3230Y931D02*
Y1049D01*
X13381Y5190D02*
X13499D01*
X13440Y5131D02*
Y5249D01*
X13351Y6380D02*
X13469D01*
X13410Y6321D02*
Y6439D01*
X7269Y21207D02*
X7388D01*
X7329Y21148D02*
Y21267D01*
X7281Y22110D02*
X7399D01*
X7340Y22051D02*
Y22169D01*
X5861Y6910D02*
X5979D01*
X5920Y6851D02*
Y6969D01*
X5041Y6950D02*
X5159D01*
X5100Y6891D02*
Y7009D01*
X4319Y6965D02*
X4437D01*
X4378Y6906D02*
Y7024D01*
X3701Y7020D02*
X3819D01*
X3760Y6961D02*
Y7079D01*
X9077Y22301D02*
X9196D01*
X9136Y22242D02*
Y22360D01*
X9789Y21732D02*
X9907D01*
X9848Y21673D02*
Y21791D01*
X8946Y21765D02*
X9064D01*
X9005Y21706D02*
Y21824D01*
X9901Y21120D02*
X10019D01*
X9960Y21061D02*
Y21179D01*
X9241Y21120D02*
X9359D01*
X9300Y21061D02*
Y21179D01*
X8581Y21130D02*
X8699D01*
X8640Y21071D02*
Y21189D01*
X8071Y21610D02*
X8189D01*
X8130Y21551D02*
Y21669D01*
X8091Y22240D02*
X8209D01*
X8150Y22181D02*
Y22299D01*
X8571Y10140D02*
X8689D01*
X8630Y10081D02*
Y10199D01*
X8551Y10420D02*
X8669D01*
X8610Y10361D02*
Y10479D01*
X8061Y10140D02*
X8179D01*
X8120Y10081D02*
Y10199D01*
X8051Y10420D02*
X8169D01*
X8110Y10361D02*
Y10479D01*
X16096Y22065D02*
X16214D01*
X16155Y22006D02*
Y22125D01*
X16081Y22520D02*
X16199D01*
X16140Y22461D02*
Y22579D01*
X3041Y23600D02*
X3159D01*
X3100Y23541D02*
Y23659D01*
X2202Y22846D02*
X2320D01*
X2261Y22787D02*
Y22905D01*
X1501Y22010D02*
X1619D01*
X1560Y21951D02*
Y22069D01*
X1435Y21107D02*
X1553D01*
X1494Y21048D02*
Y21166D01*
X1401Y20310D02*
X1519D01*
X1460Y20251D02*
Y20369D01*
X1401Y19450D02*
X1519D01*
X1460Y19391D02*
Y19509D01*
X1401Y18510D02*
X1519D01*
X1460Y18451D02*
Y18569D01*
X17731Y12610D02*
X17849D01*
X17790Y12551D02*
Y12669D01*
X18331Y11190D02*
X18449D01*
X18390Y11131D02*
Y11249D01*
X15511Y15080D02*
X15629D01*
X15570Y15021D02*
Y15139D01*
X15511Y16240D02*
X15629D01*
X15570Y16181D02*
Y16299D01*
X16251Y3550D02*
X16369D01*
X16310Y3491D02*
Y3609D01*
X14983Y3635D02*
X15101D01*
X15042Y3576D02*
Y3694D01*
X13921Y4100D02*
X14039D01*
X13980Y4041D02*
Y4159D01*
X13896Y7176D02*
X14014D01*
X13955Y7117D02*
Y7235D01*
X12871Y9050D02*
X12989D01*
X12930Y8991D02*
Y9109D01*
X13916Y8625D02*
X14034D01*
X13975Y8566D02*
Y8684D01*
X15161Y8540D02*
X15279D01*
X15220Y8481D02*
Y8599D01*
X16311Y8524D02*
X16429D01*
X16370Y8465D02*
Y8583D01*
X17538Y8544D02*
X17656D01*
X17597Y8485D02*
Y8603D01*
X18685Y8584D02*
X18803D01*
X18744Y8525D02*
Y8643D01*
X19731Y8926D02*
X19849D01*
X19790Y8867D02*
Y8986D01*
X19872Y9651D02*
X19990D01*
X19931Y9592D02*
Y9710D01*
X19892Y10939D02*
X20010D01*
X19951Y10879D02*
Y10998D01*
X19953Y11924D02*
X20071D01*
X20012Y11865D02*
Y11984D01*
X19973Y12951D02*
X20091D01*
X20032Y12892D02*
Y13010D01*
X19892Y13896D02*
X20010D01*
X19951Y13837D02*
Y13955D01*
X19912Y14963D02*
X20030D01*
X19971Y14904D02*
Y15022D01*
X19911Y16050D02*
X20029D01*
X19970Y15991D02*
Y16109D01*
X19871Y17120D02*
X19989D01*
X19930Y17061D02*
Y17179D01*
X19891Y18240D02*
X20009D01*
X19950Y18181D02*
Y18299D01*
X19771Y19150D02*
X19889D01*
X19830Y19091D02*
Y19209D01*
X19812Y20436D02*
X19930D01*
X19871Y20377D02*
Y20495D01*
X19771Y21542D02*
X19890D01*
X19830Y21483D02*
Y21601D01*
X18831Y23750D02*
X18949D01*
X18890Y23691D02*
Y23809D01*
X18581Y24000D02*
X18699D01*
X18640Y23941D02*
Y24059D01*
X18481Y24350D02*
X18599D01*
X18540Y24291D02*
Y24409D01*
X18519Y24692D02*
X18637D01*
X18578Y24633D02*
Y24751D01*
X18641Y24960D02*
X18759D01*
X18700Y24901D02*
Y25019D01*
X9701Y22300D02*
X9819D01*
X9760Y22241D02*
Y22359D01*
X10771Y22200D02*
X10889D01*
X10830Y22141D02*
Y22259D01*
X11641Y22220D02*
X11759D01*
X11700Y22161D02*
Y22279D01*
X11201Y22560D02*
X11319D01*
X11260Y22501D02*
Y22619D01*
X16151Y19540D02*
X16269D01*
X16210Y19481D02*
Y19599D01*
X17651Y18320D02*
X17769D01*
X17710Y18261D02*
Y18379D01*
X17151Y18320D02*
X17269D01*
X17210Y18261D02*
Y18379D01*
X14641Y18320D02*
X14759D01*
X14700Y18261D02*
Y18379D01*
X15151Y18320D02*
X15269D01*
X15210Y18261D02*
Y18379D01*
X14971Y17190D02*
X15089D01*
X15030Y17131D02*
Y17249D01*
X16821Y17210D02*
X16939D01*
X16880Y17151D02*
Y17269D01*
X18451Y18410D02*
X18569D01*
X18510Y18351D02*
Y18469D01*
X18441Y19260D02*
X18559D01*
X18500Y19201D02*
Y19319D01*
X18591Y21910D02*
X18709D01*
X18650Y21851D02*
Y21969D01*
X18961Y22330D02*
X19079D01*
X19020Y22271D02*
Y22389D01*
X18581Y22680D02*
X18699D01*
X18640Y22621D02*
Y22739D01*
X16071Y21270D02*
X16189D01*
X16130Y21211D02*
Y21329D01*
X15781Y21600D02*
X15899D01*
X15840Y21541D02*
Y21659D01*
X15471Y21920D02*
X15589D01*
X15530Y21861D02*
Y21979D01*
X14811Y22810D02*
X14929D01*
X14870Y22751D02*
Y22869D01*
X14841Y23580D02*
X14959D01*
X14900Y23521D02*
Y23639D01*
X15381Y25310D02*
X15499D01*
X15440Y25251D02*
Y25369D01*
X14861Y25290D02*
X14979D01*
X14920Y25231D02*
Y25349D01*
X15371Y24310D02*
X15489D01*
X15430Y24251D02*
Y24369D01*
X14821Y24320D02*
X14939D01*
X14880Y24261D02*
Y24379D01*
X12711Y22596D02*
X12829D01*
X12770Y22537D02*
Y22655D01*
X12413Y24516D02*
X12531D01*
X12472Y24457D02*
Y24575D01*
X11618Y23391D02*
X11736D01*
X11677Y23332D02*
Y23450D01*
X4136Y24218D02*
X4254D01*
X4195Y24159D02*
Y24278D01*
X1891Y24640D02*
X2009D01*
X1950Y24581D02*
Y24699D01*
X1861Y24220D02*
X1979D01*
X1920Y24161D02*
Y24279D01*
X1681Y23880D02*
X1799D01*
X1740Y23821D02*
Y23939D01*
X1321Y23670D02*
X1439D01*
X1380Y23611D02*
Y23729D01*
X931Y23660D02*
X1049D01*
X990Y23601D02*
Y23719D01*
X3951Y22570D02*
X4069D01*
X4010Y22511D02*
Y22629D01*
X3571Y22200D02*
X3689D01*
X3630Y22141D02*
Y22259D01*
X3561Y21670D02*
X3679D01*
X3620Y21611D02*
Y21729D01*
X3891Y21300D02*
X4009D01*
X3950Y21241D02*
Y21359D01*
X2484Y15564D02*
X2602D01*
X2543Y15505D02*
Y15623D01*
X2484Y14537D02*
X2602D01*
X2543Y14478D02*
Y14596D01*
X2565Y13571D02*
X2683D01*
X2624Y13512D02*
Y13630D01*
X2605Y12826D02*
X2723D01*
X2664Y12767D02*
Y12885D01*
X2565Y11860D02*
X2683D01*
X2624Y11801D02*
Y11919D01*
X2645Y10833D02*
X2763D01*
X2704Y10774D02*
Y10892D01*
X2565Y9726D02*
X2683D01*
X2624Y9667D02*
Y9785D01*
X2541Y8880D02*
X2659D01*
X2600Y8821D02*
Y8939D01*
X10281Y12020D02*
X10399D01*
X10340Y11961D02*
Y12079D01*
X10271Y12500D02*
X10389D01*
X10330Y12441D02*
Y12559D01*
X10127Y12966D02*
X10245D01*
X10186Y12907D02*
Y13025D01*
X9609Y13262D02*
X9727D01*
X9668Y13203D02*
Y13321D01*
X8061Y13310D02*
X8179D01*
X8120Y13251D02*
Y13369D01*
X7327Y13179D02*
X7445D01*
X7386Y13120D02*
Y13238D01*
X7201Y12580D02*
X7319D01*
X7260Y12521D02*
Y12639D01*
X7191Y12040D02*
X7309D01*
X7250Y11981D02*
Y12099D01*
X10221Y11410D02*
X10339D01*
X10280Y11351D02*
Y11469D01*
X10577Y11220D02*
X10695D01*
X10636Y11161D02*
Y11279D01*
X10581Y10900D02*
X10699D01*
X10640Y10841D02*
Y10959D01*
X6761Y10060D02*
X6879D01*
X6820Y10001D02*
Y10119D01*
X7641Y8890D02*
X7759D01*
X7700Y8831D02*
Y8949D01*
X8041Y8830D02*
X8159D01*
X8100Y8771D02*
Y8889D01*
X3101Y16700D02*
X3219D01*
X3160Y16641D02*
Y16759D01*
X3101Y17060D02*
X3219D01*
X3160Y17001D02*
Y17119D01*
X3001Y17390D02*
X3119D01*
X3060Y17331D02*
Y17449D01*
X2631Y17420D02*
X2749D01*
X2690Y17361D02*
Y17479D01*
X2621Y7420D02*
X2739D01*
X2680Y7361D02*
Y7479D01*
X2591Y7790D02*
X2709D01*
X2650Y7731D02*
Y7849D01*
X2121Y7900D02*
X2239D01*
X2180Y7841D02*
Y7959D01*
X2881Y6090D02*
X2999D01*
X2940Y6031D02*
Y6149D01*
X3261Y6090D02*
X3379D01*
X3320Y6031D02*
Y6149D01*
X2781Y3540D02*
X2899D01*
X2840Y3481D02*
Y3599D01*
X3251Y3510D02*
X3369D01*
X3310Y3451D02*
Y3569D01*
X7241Y5860D02*
X7359D01*
X7300Y5801D02*
Y5919D01*
X9711Y2530D02*
X9829D01*
X9770Y2471D02*
Y2589D01*
X9251Y2530D02*
X9369D01*
X9310Y2471D02*
Y2589D01*
X8801Y2540D02*
X8919D01*
X8860Y2481D02*
Y2599D01*
X18621Y700D02*
X18739D01*
X18680Y641D02*
Y759D01*
X18441Y1060D02*
X18559D01*
X18500Y1001D02*
Y1119D01*
X18481Y1420D02*
X18599D01*
X18540Y1361D02*
Y1479D01*
X18661Y1740D02*
X18779D01*
X18720Y1681D02*
Y1799D01*
X18981Y1930D02*
X19099D01*
X19040Y1871D02*
Y1989D01*
X1771Y680D02*
X1889D01*
X1830Y621D02*
Y739D01*
X1891Y1020D02*
X2009D01*
X1950Y961D02*
Y1079D01*
X1882Y1340D02*
X2000D01*
X1941Y1281D02*
Y1400D01*
X1721Y1690D02*
X1839D01*
X1780Y1631D02*
Y1749D01*
X1441Y1900D02*
X1559D01*
X1500Y1841D02*
Y1959D01*
X4052Y1011D02*
X4170D01*
X4111Y952D02*
Y1070D01*
X4796Y1011D02*
X4914D01*
X4855Y952D02*
Y1070D01*
X5781Y1050D02*
X5899D01*
X5840Y991D02*
Y1109D01*
X6591Y1050D02*
X6709D01*
X6650Y991D02*
Y1109D01*
X17111Y1010D02*
X17229D01*
X17170Y951D02*
Y1069D01*
X16181Y1030D02*
X16299D01*
X16240Y971D02*
Y1089D01*
X15248Y1025D02*
X15366D01*
X15307Y966D02*
Y1084D01*
X14474Y968D02*
X14593D01*
X14533Y909D02*
Y1027D01*
X13631Y980D02*
X13749D01*
X13690Y921D02*
Y1039D01*
X12781Y1040D02*
X12899D01*
X12840Y981D02*
Y1099D01*
X11926Y1054D02*
X12044D01*
X11985Y995D02*
Y1113D01*
X11153Y1054D02*
X11271D01*
X11212Y995D02*
Y1113D01*
X10341Y1050D02*
X10459D01*
X10400Y991D02*
Y1109D01*
X9551Y1050D02*
X9669D01*
X9610Y991D02*
Y1109D01*
X8761Y1050D02*
X8879D01*
X8820Y991D02*
Y1109D01*
X8085Y1057D02*
X8203D01*
X8144Y997D02*
Y1116D01*
X7391Y1050D02*
X7509D01*
X7450Y991D02*
Y1109D01*
X9105Y4398D02*
X9223D01*
X9164Y4339D02*
Y4457D01*
X9105Y4792D02*
X9223D01*
X9164Y4733D02*
Y4851D01*
X9498Y4792D02*
X9616D01*
X9557Y4733D02*
Y4851D01*
X9498Y4398D02*
X9616D01*
X9557Y4339D02*
Y4457D01*
X14908Y5095D02*
X15026D01*
X14967Y5036D02*
Y5154D01*
X14908Y5489D02*
X15026D01*
X14967Y5430D02*
Y5548D01*
X15302Y5489D02*
X15420D01*
X15361Y5430D02*
Y5548D01*
X15302Y5095D02*
X15420D01*
X15361Y5036D02*
Y5154D01*
M02*
