G04*
G04 #@! TF.GenerationSoftware,Altium Limited,Altium Designer,22.1.2 (22)*
G04*
G04 Layer_Physical_Order=1*
G04 Layer_Color=255*
%FSLAX24Y24*%
%MOIN*%
G70*
G04*
G04 #@! TF.SameCoordinates,162C4C40-B8F5-4961-9C55-0291AD4F2388*
G04*
G04*
G04 #@! TF.FilePolarity,Positive*
G04*
G01*
G75*
%ADD10C,0.0100*%
%ADD19R,0.0630X0.0709*%
%ADD20R,0.0512X0.0591*%
%ADD21R,0.0433X0.0394*%
%ADD22R,0.0394X0.0512*%
%ADD23R,0.0512X0.0394*%
%ADD24R,0.0276X0.0492*%
%ADD25R,0.0394X0.0433*%
%ADD26O,0.0236X0.0748*%
%ADD27O,0.0220X0.0687*%
%ADD28R,0.0630X0.1024*%
%ADD29R,0.0236X0.0256*%
%ADD30R,0.0591X0.0512*%
G04:AMPARAMS|DCode=31|XSize=31.9mil|YSize=10.2mil|CornerRadius=1.3mil|HoleSize=0mil|Usage=FLASHONLY|Rotation=270.000|XOffset=0mil|YOffset=0mil|HoleType=Round|Shape=RoundedRectangle|*
%AMROUNDEDRECTD31*
21,1,0.0319,0.0077,0,0,270.0*
21,1,0.0293,0.0102,0,0,270.0*
1,1,0.0026,-0.0038,-0.0147*
1,1,0.0026,-0.0038,0.0147*
1,1,0.0026,0.0038,0.0147*
1,1,0.0026,0.0038,-0.0147*
%
%ADD31ROUNDEDRECTD31*%
%ADD32R,0.0787X0.0787*%
%ADD33O,0.0802X0.0226*%
%ADD34R,0.0709X0.0630*%
%ADD35R,0.0591X0.0315*%
%ADD36R,0.0591X0.0299*%
%ADD37R,0.0591X0.0276*%
%ADD65R,0.0976X0.0642*%
%ADD66C,0.0200*%
%ADD67C,0.0350*%
%ADD68C,0.0220*%
%ADD69C,0.1969*%
%ADD70C,0.1181*%
%ADD71R,0.0787X0.0787*%
%ADD72C,0.0787*%
%ADD73R,0.0945X0.0945*%
%ADD74O,0.0709X0.0433*%
%ADD75C,0.0236*%
G36*
X17744Y21364D02*
X18080D01*
X18101Y21314D01*
X18043Y21257D01*
X18026Y21231D01*
X18020Y21200D01*
Y20533D01*
X17967Y20480D01*
X17919D01*
X17907Y20478D01*
X17895Y20477D01*
X17894Y20476D01*
X17877Y20480D01*
X17853Y20492D01*
X17841Y20502D01*
X17835Y20537D01*
X17806Y20580D01*
X17803Y20582D01*
Y21226D01*
X17370D01*
X17344Y21266D01*
Y21309D01*
X17593Y21558D01*
X17744D01*
Y21364D01*
D02*
G37*
G36*
X12319Y19296D02*
Y15650D01*
X12329Y15600D01*
X12357Y15557D01*
X14304Y13610D01*
X14347Y13582D01*
X14397Y13572D01*
X14470D01*
Y13429D01*
X14470Y13428D01*
Y13379D01*
X14470Y13378D01*
Y13234D01*
X14101D01*
X11981Y15354D01*
Y19191D01*
X11971Y19242D01*
X11943Y19284D01*
X11884Y19343D01*
X11842Y19371D01*
X11791Y19381D01*
X11595D01*
Y19490D01*
X11595Y19501D01*
Y19540D01*
X11595Y19551D01*
Y19684D01*
X11930D01*
X12319Y19296D01*
D02*
G37*
G36*
X10617Y13570D02*
X13356Y10830D01*
X13335Y10780D01*
X11700D01*
X11669Y10774D01*
X11643Y10757D01*
X11500Y10614D01*
X11450D01*
X11407Y10657D01*
X11381Y10674D01*
X11350Y10680D01*
X9160D01*
Y10870D01*
X9154Y10901D01*
X9137Y10927D01*
X8977Y11087D01*
X8951Y11104D01*
X8920Y11110D01*
X8700D01*
X8690Y11118D01*
Y11217D01*
X8793Y11320D01*
X9790D01*
X9790Y11320D01*
X9821Y11326D01*
X9847Y11343D01*
X9917Y11413D01*
X9917Y11413D01*
X9934Y11439D01*
X9940Y11470D01*
Y12780D01*
X9940Y12780D01*
X9934Y12811D01*
X9917Y12837D01*
X9917Y12837D01*
X9867Y12887D01*
X9867Y12887D01*
X9841Y12904D01*
X9810Y12910D01*
X9060Y12910D01*
X9060Y12910D01*
X9029Y12904D01*
X9003Y12887D01*
X9003Y12887D01*
X8953Y12837D01*
X8936Y12811D01*
X8930Y12780D01*
Y11683D01*
X8927Y11680D01*
X8740D01*
X8730Y11678D01*
X8686Y11707D01*
X8680Y11715D01*
Y12780D01*
X8680Y12780D01*
X8674Y12811D01*
X8657Y12837D01*
X8657Y12837D01*
X8617Y12877D01*
X8591Y12894D01*
X8560Y12900D01*
X7790D01*
X7790Y12900D01*
X7759Y12894D01*
X7733Y12877D01*
X7733Y12877D01*
X7693Y12837D01*
X7676Y12811D01*
X7670Y12780D01*
Y11570D01*
X7670Y11570D01*
X7676Y11539D01*
X7682Y11530D01*
X7659Y11480D01*
X6633D01*
X6530Y11583D01*
Y13517D01*
X6583Y13570D01*
X10617Y13570D01*
D02*
G37*
G36*
X6510Y20400D02*
X10926D01*
Y20141D01*
X10926Y20130D01*
Y20091D01*
X10926Y20080D01*
Y19551D01*
X10926Y19540D01*
Y19501D01*
X10926Y19490D01*
Y18961D01*
X10926Y18950D01*
Y18911D01*
X10926Y18900D01*
Y18371D01*
X10926Y18360D01*
Y18321D01*
X10926Y18310D01*
Y17770D01*
X11595D01*
Y18310D01*
X11595Y18321D01*
Y18360D01*
X11595Y18371D01*
Y18900D01*
X11595Y18911D01*
Y18950D01*
X11595Y18961D01*
Y19119D01*
X11719D01*
Y15300D01*
X11729Y15250D01*
X11757Y15207D01*
X13954Y13010D01*
X13997Y12982D01*
X14047Y12972D01*
X14470D01*
Y12828D01*
X15061D01*
Y13378D01*
X15061Y13379D01*
Y13428D01*
X15061Y13429D01*
Y13979D01*
X14470D01*
Y13886D01*
X14420Y13866D01*
X12581Y15704D01*
Y19350D01*
X12571Y19400D01*
X12543Y19443D01*
X12078Y19908D01*
X12035Y19937D01*
X11985Y19947D01*
X11595D01*
Y20080D01*
X11595Y20091D01*
Y20130D01*
X11595Y20141D01*
Y20400D01*
X13995D01*
Y20324D01*
X14005Y20274D01*
X14033Y20231D01*
X14305Y19959D01*
X14348Y19930D01*
X14398Y19921D01*
X14521D01*
Y19819D01*
X14535Y19745D01*
X14577Y19682D01*
X14640Y19640D01*
X14713Y19626D01*
X14787Y19640D01*
X14849Y19682D01*
X14891Y19745D01*
X14906Y19819D01*
Y20285D01*
X14893Y20350D01*
X14919Y20400D01*
X15003D01*
X15021Y20377D01*
X15034Y20354D01*
X15021Y20285D01*
Y19819D01*
X15035Y19745D01*
X15077Y19682D01*
X15139Y19640D01*
X15213Y19626D01*
X15287Y19640D01*
X15349Y19682D01*
X15391Y19745D01*
X15406Y19819D01*
Y20285D01*
X15393Y20350D01*
X15403Y20368D01*
X15464Y20382D01*
X15469Y20379D01*
X15490Y20375D01*
X15526Y20326D01*
X15527Y20319D01*
X15521Y20285D01*
Y19819D01*
X15535Y19745D01*
X15577Y19682D01*
X15639Y19640D01*
X15713Y19626D01*
X15787Y19640D01*
X15849Y19682D01*
X15891Y19745D01*
X15906Y19819D01*
Y20285D01*
X15893Y20350D01*
X15919Y20400D01*
X16007D01*
X16033Y20350D01*
X16021Y20285D01*
Y19819D01*
X16035Y19745D01*
X16076Y19684D01*
X16043Y19652D01*
X16013Y19579D01*
Y19501D01*
X16043Y19428D01*
X16098Y19373D01*
X16171Y19343D01*
X16249D01*
X16322Y19373D01*
X16377Y19428D01*
X16407Y19501D01*
Y19579D01*
X16377Y19652D01*
X16349Y19679D01*
X16349Y19682D01*
X16391Y19745D01*
X16406Y19819D01*
Y20285D01*
X16393Y20350D01*
X16419Y20400D01*
X16507D01*
X16533Y20350D01*
X16521Y20285D01*
Y19819D01*
X16535Y19745D01*
X16577Y19682D01*
X16639Y19640D01*
X16713Y19626D01*
X16787Y19640D01*
X16849Y19682D01*
X16891Y19745D01*
X16906Y19819D01*
Y20285D01*
X16893Y20350D01*
X16919Y20400D01*
X17007D01*
X17033Y20350D01*
X17021Y20285D01*
Y19819D01*
X17035Y19745D01*
X17077Y19682D01*
X17140Y19640D01*
X17213Y19626D01*
X17287Y19640D01*
X17349Y19682D01*
X17391Y19745D01*
X17406Y19819D01*
Y20285D01*
X17393Y20350D01*
X17419Y20400D01*
X17507D01*
X17533Y20350D01*
X17521Y20285D01*
Y19819D01*
X17535Y19745D01*
X17577Y19682D01*
X17639Y19640D01*
X17713Y19626D01*
X17787Y19640D01*
X17849Y19682D01*
X17891Y19745D01*
X17906Y19819D01*
Y20285D01*
X17893Y20350D01*
X17919Y20400D01*
X18000D01*
X18100Y20500D01*
Y21200D01*
X18200Y21300D01*
X19200Y21300D01*
X19300Y21200D01*
Y9900D01*
X19181Y9781D01*
X11619D01*
X11530Y9870D01*
Y10500D01*
X11525Y10525D01*
X11700Y10700D01*
X16400Y10700D01*
X16500Y10800D01*
Y10928D01*
X17030D01*
Y10928D01*
X17070D01*
Y10928D01*
X17661D01*
Y11479D01*
X17497D01*
Y11540D01*
X17487Y11590D01*
X17458Y11633D01*
X17441Y11651D01*
X17442Y11664D01*
X17485Y11729D01*
X17501Y11806D01*
Y12318D01*
X17485Y12395D01*
X17442Y12460D01*
X17377Y12504D01*
X17300Y12519D01*
X17223Y12504D01*
X17158Y12460D01*
X17115Y12395D01*
X17099Y12318D01*
Y11806D01*
X17115Y11729D01*
X17158Y11664D01*
X17169Y11657D01*
Y11606D01*
X17179Y11555D01*
X17197Y11529D01*
X17178Y11485D01*
X17171Y11479D01*
X17070D01*
Y11479D01*
X17030D01*
Y11479D01*
X16500D01*
Y11600D01*
X16441Y11659D01*
X16442Y11664D01*
X16485Y11729D01*
X16501Y11806D01*
Y12318D01*
X16485Y12395D01*
X16442Y12460D01*
X16377Y12504D01*
X16300Y12519D01*
X16223Y12504D01*
X16158Y12460D01*
X16115Y12395D01*
X16099Y12318D01*
Y11806D01*
X16110Y11750D01*
X16079Y11700D01*
X14140Y11700D01*
X9260Y16580D01*
X4480Y16580D01*
X4324Y16736D01*
X4324Y22329D01*
X4329D01*
X4500Y22500D01*
X6510D01*
Y20400D01*
D02*
G37*
G36*
X14041Y11550D02*
X16300Y11550D01*
X16400Y11450D01*
Y10950D01*
X16300Y10850D01*
X13450D01*
X10650Y13650D01*
X6550Y13650D01*
X6450Y13550D01*
Y11550D01*
X6600Y11400D01*
X8000D01*
X8030Y11370D01*
Y10720D01*
X8010Y10700D01*
X7800D01*
X7795Y10695D01*
X7794D01*
Y10694D01*
X7550Y10450D01*
X7000D01*
X6900Y10350D01*
Y10284D01*
X6859Y10257D01*
X6781D01*
X6708Y10227D01*
X6653Y10172D01*
X6623Y10099D01*
Y10021D01*
X6653Y9948D01*
X6708Y9893D01*
X6781Y9863D01*
X6859D01*
X6900Y9836D01*
Y9750D01*
X7000Y9650D01*
X7650D01*
X7890Y9890D01*
X8400D01*
X8420Y9870D01*
Y9500D01*
X8400Y9480D01*
X7730D01*
X7230Y8980D01*
X5886Y8980D01*
X5750Y9116D01*
Y14300D01*
X5600Y14450D01*
X3736D01*
X3600Y14586D01*
X3600Y16300D01*
X3750Y16450D01*
X9141D01*
X14041Y11550D01*
D02*
G37*
G36*
X8600Y12780D02*
Y11590D01*
X8540Y11530D01*
X8280D01*
X8220Y11470D01*
Y10720D01*
X8210Y10710D01*
X8159D01*
X8110Y10720D01*
Y11370D01*
X8110Y11371D01*
Y11470D01*
X8060Y11520D01*
X7800D01*
X7750Y11570D01*
Y12780D01*
X7790Y12820D01*
X8560D01*
X8600Y12780D01*
D02*
G37*
G36*
X9810Y12830D02*
X9860Y12780D01*
Y11470D01*
X9790Y11400D01*
X8760D01*
X8610Y11250D01*
Y10756D01*
X8564Y10710D01*
X8510Y10710D01*
X8500Y10720D01*
Y11360D01*
X8740Y11600D01*
X8960D01*
X9010Y11650D01*
Y12780D01*
X9060Y12830D01*
X9810Y12830D01*
D02*
G37*
G36*
X2300Y10000D02*
X0D01*
Y17300D01*
X2300D01*
Y10000D01*
D02*
G37*
G36*
X8090Y10631D02*
X8125Y10624D01*
X8202D01*
X8229Y10602D01*
Y10295D01*
X8239Y10245D01*
X8268Y10202D01*
X8426Y10044D01*
Y9992D01*
X8400Y9970D01*
X7890D01*
X7859Y9964D01*
X7833Y9947D01*
X7833Y9947D01*
X7617Y9730D01*
X7033D01*
X6980Y9783D01*
Y9836D01*
X6979Y9844D01*
Y9852D01*
X6976Y9859D01*
X6974Y9867D01*
X6970Y9873D01*
X6967Y9880D01*
X6973Y9907D01*
X6981Y9921D01*
X6988Y9929D01*
X7324D01*
X7374Y9939D01*
X7417Y9967D01*
X7447Y9997D01*
X7476Y10040D01*
X7486Y10090D01*
X7476Y10140D01*
X7447Y10183D01*
X7405Y10211D01*
X7354Y10221D01*
X7304Y10211D01*
X7274Y10191D01*
X6988D01*
X6981Y10199D01*
X6973Y10213D01*
X6967Y10240D01*
X6970Y10247D01*
X6974Y10253D01*
X6976Y10261D01*
X6979Y10268D01*
Y10276D01*
X6980Y10284D01*
Y10317D01*
X7033Y10370D01*
X7550D01*
X7581Y10376D01*
X7607Y10393D01*
X7607Y10393D01*
X7717Y10504D01*
X7728D01*
Y10515D01*
X7833Y10620D01*
X8010D01*
X8041Y10626D01*
X8067Y10643D01*
X8090Y10631D01*
D02*
G37*
G36*
X20472Y7106D02*
X20453Y7091D01*
X20422Y7076D01*
X20400Y7080D01*
X14850Y7080D01*
X14850Y7080D01*
X14819Y7074D01*
X14793Y7057D01*
X14793Y7057D01*
X14693Y6957D01*
X14693Y6957D01*
X14676Y6931D01*
X14670Y6900D01*
Y4300D01*
X14676Y4269D01*
X14693Y4243D01*
X14693Y4243D01*
X14793Y4143D01*
X14819Y4126D01*
X14850Y4120D01*
X16600Y4120D01*
X16600Y4120D01*
X16631Y4126D01*
X16657Y4143D01*
X16657Y4143D01*
X16755Y4242D01*
X16762Y4241D01*
X16805Y4226D01*
Y3868D01*
X17420D01*
Y3233D01*
X17317Y3130D01*
X13183D01*
X13080Y3233D01*
X13080Y8250D01*
X13074Y8281D01*
X13057Y8307D01*
X13057Y8307D01*
X12817Y8547D01*
X12817Y8547D01*
X12791Y8564D01*
X12760Y8570D01*
X6193Y8570D01*
X5914Y8850D01*
X5935Y8900D01*
X7230Y8900D01*
X7230Y8900D01*
X7261Y8906D01*
X7287Y8923D01*
X7287Y8923D01*
X7763Y9400D01*
X8400D01*
X8410Y9402D01*
X8420Y9400D01*
X8453Y9375D01*
X8460Y9365D01*
Y8920D01*
X9051D01*
Y8920D01*
X9091D01*
Y8920D01*
X9681D01*
Y8943D01*
X9731Y8953D01*
X9760Y8924D01*
Y8920D01*
X9767D01*
X9843Y8843D01*
X9869Y8826D01*
X9900Y8820D01*
X11350D01*
X11381Y8826D01*
X11407Y8843D01*
X11407Y8843D01*
X11507Y8943D01*
X11524Y8969D01*
X11530Y9000D01*
Y9689D01*
X11580Y9712D01*
X11588Y9707D01*
X11619Y9701D01*
X19181D01*
X19212Y9707D01*
X19238Y9724D01*
X19238Y9724D01*
X19357Y9843D01*
X19357Y9843D01*
X19374Y9869D01*
X19380Y9900D01*
Y21200D01*
X19374Y21231D01*
X19357Y21257D01*
X19357Y21257D01*
X19257Y21357D01*
X19231Y21374D01*
X19200Y21380D01*
X18200Y21380D01*
X18177Y21399D01*
Y22014D01*
X18223Y22024D01*
X18261D01*
Y22576D01*
X17670D01*
Y22427D01*
X17136D01*
Y22570D01*
X16997D01*
Y22910D01*
X17161D01*
Y23461D01*
X16997D01*
Y23505D01*
X16987Y23555D01*
X16958Y23598D01*
X16291Y24264D01*
Y24348D01*
X16632D01*
Y25292D01*
X15688D01*
Y24348D01*
X16029D01*
Y24210D01*
X16039Y24160D01*
X16067Y24117D01*
X16677Y23507D01*
X16658Y23461D01*
X16570D01*
Y22910D01*
X16734D01*
Y22570D01*
X16584D01*
Y21979D01*
X17136D01*
Y22164D01*
X17670D01*
Y22024D01*
X17699D01*
X17744Y22014D01*
Y21820D01*
X17539D01*
X17489Y21810D01*
X17446Y21782D01*
X17182Y21517D01*
X17136Y21537D01*
Y21901D01*
X16584D01*
Y21310D01*
X16659D01*
X16685Y21260D01*
X16679Y21250D01*
X16669Y21200D01*
Y21171D01*
X16500D01*
Y20620D01*
X16569D01*
X16596Y20570D01*
X16592Y20563D01*
X16582Y20513D01*
Y20506D01*
X16571Y20493D01*
X16549Y20481D01*
X16532Y20476D01*
X16531Y20477D01*
X16519Y20478D01*
X16507Y20480D01*
X16419D01*
X16407Y20478D01*
X16395Y20477D01*
X16392Y20475D01*
X16389Y20474D01*
X16378Y20467D01*
X16368Y20462D01*
X16366Y20459D01*
X16362Y20457D01*
X16356Y20447D01*
X16348Y20437D01*
X16322Y20387D01*
X16319Y20376D01*
X16314Y20366D01*
Y20361D01*
X16313Y20357D01*
X16314Y20346D01*
Y20334D01*
X16326Y20277D01*
Y20192D01*
X16276Y20165D01*
X16263Y20173D01*
X16213Y20183D01*
X16163Y20173D01*
X16151Y20165D01*
X16101Y20192D01*
Y20277D01*
X16112Y20334D01*
Y20346D01*
X16113Y20357D01*
X16112Y20361D01*
Y20366D01*
X16108Y20376D01*
X16105Y20387D01*
X16078Y20437D01*
X16071Y20447D01*
X16064Y20457D01*
X16061Y20459D01*
X16059Y20462D01*
X16048Y20467D01*
X16038Y20474D01*
X16034Y20475D01*
X16031Y20477D01*
X16019Y20478D01*
X16007Y20480D01*
X15919D01*
X15907Y20478D01*
X15895Y20477D01*
X15892Y20475D01*
X15889Y20474D01*
X15878Y20467D01*
X15833Y20480D01*
X15824Y20487D01*
X15821Y20500D01*
X15793Y20543D01*
X15743Y20593D01*
X15736Y20597D01*
Y21156D01*
X15185D01*
Y20676D01*
X15139Y20657D01*
X15091Y20705D01*
Y21071D01*
X14892D01*
Y21165D01*
X15036D01*
Y21756D01*
X14485D01*
Y21756D01*
X14436D01*
Y21756D01*
X13885D01*
Y21165D01*
X14029D01*
Y21071D01*
X13831D01*
Y20520D01*
X13805Y20480D01*
X11595D01*
Y20670D01*
X11595Y20681D01*
Y20720D01*
X11595Y20731D01*
Y21260D01*
X11595Y21271D01*
Y21310D01*
X11595Y21321D01*
Y21861D01*
X10926D01*
Y21321D01*
X10926Y21310D01*
Y21271D01*
X10926Y21260D01*
Y20731D01*
X10926Y20720D01*
Y20681D01*
X10926Y20670D01*
Y20480D01*
X6590D01*
Y22500D01*
X6584Y22531D01*
X6567Y22557D01*
X6541Y22574D01*
X6510Y22580D01*
X4500D01*
X4500Y22580D01*
X4469Y22574D01*
X4443Y22557D01*
X4443Y22557D01*
X4283Y22397D01*
X4267Y22386D01*
X4250Y22360D01*
X4243Y22329D01*
X4243Y16736D01*
X4250Y16705D01*
X4267Y16679D01*
X4370Y16576D01*
X4351Y16530D01*
X3750D01*
X3719Y16524D01*
X3693Y16507D01*
X3543Y16357D01*
X3526Y16331D01*
X3520Y16300D01*
X3520Y14586D01*
X3526Y14556D01*
X3543Y14530D01*
X3543Y14530D01*
X3644Y14429D01*
X3644Y14358D01*
X3543Y14257D01*
X3526Y14231D01*
X3520Y14200D01*
X3520Y7830D01*
X3526Y7799D01*
X3543Y7773D01*
X3543Y7773D01*
X3793Y7523D01*
X3819Y7506D01*
X3850Y7500D01*
X11487D01*
X11820Y7167D01*
Y4233D01*
X11627Y4040D01*
X10741D01*
X10739Y4041D01*
X10163D01*
X10160Y4040D01*
X10020D01*
X9989Y4034D01*
X9963Y4017D01*
X9843Y3897D01*
X9843Y3897D01*
X9826Y3871D01*
X9820Y3840D01*
Y3600D01*
X9826Y3569D01*
X9843Y3543D01*
X9843Y3543D01*
X9893Y3493D01*
X9893Y3493D01*
X9919Y3476D01*
X9950Y3470D01*
X10267Y3470D01*
X10320Y3417D01*
Y2540D01*
X10326Y2509D01*
X10343Y2483D01*
X10343Y2483D01*
X10433Y2393D01*
X10433Y2393D01*
X10459Y2376D01*
X10490Y2370D01*
X20300Y2370D01*
X20331Y2376D01*
X20357Y2393D01*
X20422Y2459D01*
X20472Y2438D01*
Y0D01*
X0D01*
Y2690D01*
X2605D01*
X2635Y2696D01*
X2661Y2713D01*
X2679Y2739D01*
X2685Y2770D01*
Y3289D01*
X2679Y3320D01*
X2661Y3346D01*
X2635Y3363D01*
X2605Y3369D01*
X2315D01*
X2308Y3370D01*
X2032D01*
X2024Y3369D01*
X1680D01*
Y6177D01*
X2025Y6177D01*
X2032Y6176D01*
X2308D01*
X2315Y6177D01*
X2605Y6177D01*
X2635Y6183D01*
X2661Y6201D01*
X2679Y6227D01*
X2685Y6258D01*
Y6780D01*
X2679Y6811D01*
X2661Y6837D01*
X2635Y6854D01*
X2605Y6860D01*
X1760D01*
Y7690D01*
X1759Y7696D01*
Y7773D01*
X1090D01*
Y7770D01*
X0D01*
Y9920D01*
X2300D01*
X2331Y9926D01*
X2357Y9943D01*
X2374Y9969D01*
X2380Y10000D01*
Y17300D01*
X2374Y17331D01*
X2357Y17357D01*
X2331Y17374D01*
X2300Y17380D01*
X0D01*
Y25591D01*
X20472D01*
Y7106D01*
D02*
G37*
G36*
X9080Y10870D02*
Y10640D01*
X9120Y10600D01*
X11350D01*
X11450Y10500D01*
Y9000D01*
X11350Y8900D01*
X9900D01*
X9800Y9000D01*
Y9450D01*
X9550Y9700D01*
X9150D01*
X8960Y9890D01*
X8960Y10660D01*
X8928Y10692D01*
Y10695D01*
X8925D01*
X8920Y10700D01*
X8700D01*
Y11030D01*
X8920D01*
X9080Y10870D01*
D02*
G37*
G36*
X1680Y6780D02*
X2605D01*
Y6258D01*
X1600Y6258D01*
Y3289D01*
X2605D01*
Y2770D01*
X0D01*
Y7690D01*
X1680D01*
Y6780D01*
D02*
G37*
G36*
X20400Y5200D02*
X20250Y5050D01*
X18600D01*
X18250Y4700D01*
X17474D01*
Y5416D01*
X16805D01*
Y5235D01*
X16558D01*
X16542Y5238D01*
X15966D01*
X15891Y5223D01*
X15828Y5180D01*
X15785Y5117D01*
X15770Y5042D01*
X15785Y4967D01*
X15828Y4904D01*
X15891Y4862D01*
X15966Y4847D01*
X16542D01*
X16558Y4850D01*
X16805D01*
Y4700D01*
X16700D01*
X16700Y4300D01*
X16600Y4200D01*
X14850Y4200D01*
X14750Y4300D01*
Y6900D01*
X14850Y7000D01*
X20400Y7000D01*
Y5200D01*
D02*
G37*
G36*
X5500Y14350D02*
X5650Y14200D01*
Y9000D01*
X6160Y8490D01*
X12760Y8490D01*
X13000Y8250D01*
X13000Y3200D01*
X13150Y3050D01*
X17350D01*
X17500Y3200D01*
Y4450D01*
X17600Y4550D01*
X18300D01*
X18550Y4800D01*
X20250Y4800D01*
X20400Y4650D01*
X20400Y2550D01*
X20300Y2450D01*
X10490Y2450D01*
X10400Y2540D01*
Y3450D01*
X10300Y3550D01*
X9950Y3550D01*
X9900Y3600D01*
Y3840D01*
X10020Y3960D01*
X11660D01*
X11900Y4200D01*
Y7200D01*
X11520Y7580D01*
X3850D01*
X3600Y7830D01*
X3600Y14200D01*
X3750Y14350D01*
X5500Y14350D01*
D02*
G37*
%LPC*%
G36*
X19136Y19556D02*
X18585D01*
Y19483D01*
X18543Y19455D01*
X18539Y19457D01*
X18461D01*
X18388Y19427D01*
X18333Y19372D01*
X18303Y19299D01*
Y19221D01*
X18333Y19148D01*
X18388Y19093D01*
X18461Y19063D01*
X18539D01*
X18543Y19065D01*
X18585Y19037D01*
Y18965D01*
X18602D01*
Y18725D01*
X18585D01*
Y18631D01*
X18549Y18607D01*
X18471D01*
X18398Y18577D01*
X18343Y18522D01*
X18313Y18449D01*
Y18371D01*
X18343Y18298D01*
X18398Y18243D01*
X18471Y18213D01*
X18549D01*
X18585Y18189D01*
Y18135D01*
X19136D01*
Y18725D01*
X19119D01*
Y18965D01*
X19136D01*
Y19556D01*
D02*
G37*
G36*
X17749Y18517D02*
X17671D01*
X17598Y18487D01*
X17543Y18432D01*
X17513Y18359D01*
Y18281D01*
X17543Y18208D01*
X17550Y18202D01*
X17577Y18159D01*
X17535Y18097D01*
X17521Y18023D01*
Y17972D01*
X17406D01*
Y18023D01*
X17391Y18097D01*
X17349Y18159D01*
X17373Y18204D01*
X17377Y18208D01*
X17407Y18281D01*
Y18359D01*
X17377Y18432D01*
X17322Y18487D01*
X17249Y18517D01*
X17171D01*
X17098Y18487D01*
X17043Y18432D01*
X17013Y18359D01*
Y18281D01*
X17043Y18208D01*
X17050Y18202D01*
X17077Y18159D01*
X17035Y18097D01*
X17021Y18023D01*
Y17557D01*
X17035Y17483D01*
X17077Y17420D01*
X17140Y17379D01*
X17213Y17364D01*
X17287Y17379D01*
X17349Y17420D01*
X17391Y17483D01*
X17406Y17557D01*
Y17608D01*
X17521D01*
Y17557D01*
X17535Y17483D01*
X17577Y17420D01*
X17639Y17379D01*
X17713Y17364D01*
X17787Y17379D01*
X17849Y17420D01*
X17891Y17483D01*
X17906Y17557D01*
Y18023D01*
X17891Y18097D01*
X17849Y18159D01*
X17873Y18204D01*
X17877Y18208D01*
X17907Y18281D01*
Y18359D01*
X17877Y18432D01*
X17822Y18487D01*
X17749Y18517D01*
D02*
G37*
G36*
X15249D02*
X15171D01*
X15098Y18487D01*
X15043Y18432D01*
X15013Y18359D01*
Y18281D01*
X15043Y18208D01*
X15050Y18202D01*
X15077Y18159D01*
X15035Y18097D01*
X15021Y18023D01*
Y17972D01*
X14906D01*
Y18023D01*
X14891Y18097D01*
X14849Y18159D01*
X14867Y18208D01*
X14867Y18208D01*
X14897Y18281D01*
Y18359D01*
X14867Y18432D01*
X14812Y18487D01*
X14739Y18517D01*
X14661D01*
X14588Y18487D01*
X14533Y18432D01*
X14503Y18359D01*
Y18281D01*
X14533Y18208D01*
X14575Y18166D01*
Y18157D01*
X14535Y18097D01*
X14521Y18023D01*
Y17557D01*
X14535Y17483D01*
X14577Y17420D01*
X14640Y17379D01*
X14713Y17364D01*
X14787Y17379D01*
X14849Y17420D01*
X14891Y17483D01*
X14906Y17557D01*
Y17608D01*
X15021D01*
Y17557D01*
X15035Y17483D01*
X15066Y17437D01*
X15044Y17387D01*
X15044Y17387D01*
X14991D01*
X14918Y17357D01*
X14863Y17302D01*
X14833Y17229D01*
Y17151D01*
X14863Y17078D01*
X14918Y17023D01*
X14991Y16993D01*
X15069D01*
X15092Y17003D01*
X15106Y16993D01*
Y16993D01*
X15566D01*
Y16903D01*
X15576Y16853D01*
X15604Y16810D01*
X15807Y16607D01*
X15850Y16579D01*
X15900Y16569D01*
X16690D01*
X16724Y16533D01*
Y15943D01*
X17276D01*
Y15943D01*
X17324D01*
Y15943D01*
X17326Y15943D01*
X17876D01*
Y16533D01*
X17510D01*
X17050Y16993D01*
X17027Y17008D01*
X17016Y17061D01*
X17018Y17070D01*
X17047Y17098D01*
X17077Y17171D01*
Y17249D01*
X17047Y17322D01*
X16992Y17377D01*
X16919Y17407D01*
X16901D01*
X16874Y17457D01*
X16891Y17483D01*
X16906Y17557D01*
Y18023D01*
X16891Y18097D01*
X16849Y18159D01*
X16787Y18201D01*
X16713Y18216D01*
X16639Y18201D01*
X16577Y18159D01*
X16535Y18097D01*
X16521Y18023D01*
Y17557D01*
X16535Y17483D01*
X16553Y17457D01*
X16526Y17407D01*
X16400D01*
X16374Y17457D01*
X16391Y17483D01*
X16406Y17557D01*
Y18023D01*
X16391Y18097D01*
X16349Y18159D01*
X16287Y18201D01*
X16213Y18216D01*
X16140Y18201D01*
X16077Y18159D01*
X16035Y18097D01*
X16021Y18023D01*
Y17557D01*
X16035Y17483D01*
X16053Y17457D01*
X16026Y17407D01*
X16006D01*
Y16993D01*
X16075D01*
X16079Y16972D01*
X16107Y16930D01*
X16159Y16877D01*
X16140Y16831D01*
X15954D01*
X15842Y16943D01*
X15862Y16993D01*
X15894D01*
Y17407D01*
X15894D01*
X15874Y17457D01*
X15891Y17483D01*
X15906Y17557D01*
Y18023D01*
X15891Y18097D01*
X15849Y18159D01*
X15787Y18201D01*
X15713Y18216D01*
X15639Y18201D01*
X15577Y18159D01*
X15535Y18097D01*
X15521Y18023D01*
Y17557D01*
X15535Y17483D01*
X15553Y17457D01*
X15526Y17407D01*
X15400D01*
X15374Y17457D01*
X15391Y17483D01*
X15406Y17557D01*
Y18023D01*
X15391Y18097D01*
X15349Y18159D01*
X15373Y18204D01*
X15377Y18208D01*
X15407Y18281D01*
Y18359D01*
X15377Y18432D01*
X15322Y18487D01*
X15249Y18517D01*
D02*
G37*
G36*
X10156Y17856D02*
X10118D01*
X10106Y17856D01*
X9578D01*
X9566Y17856D01*
X9528D01*
X9516Y17856D01*
X8988D01*
X8976Y17856D01*
X8938D01*
X8926Y17856D01*
X8388D01*
X8386Y17856D01*
X8338D01*
X8336Y17856D01*
X7798D01*
X7786Y17856D01*
X7748D01*
X7736Y17856D01*
X7208D01*
X7196Y17856D01*
X7158D01*
X7146Y17856D01*
X6618D01*
X6606Y17856D01*
X6568D01*
X6556Y17856D01*
X6016D01*
Y17186D01*
X6556D01*
X6568Y17186D01*
X6606D01*
X6618Y17186D01*
X7146D01*
X7158Y17186D01*
X7196D01*
X7208Y17186D01*
X7736D01*
X7748Y17186D01*
X7786D01*
X7798Y17186D01*
X8336D01*
X8338Y17186D01*
X8386D01*
X8388Y17186D01*
X8926D01*
X8938Y17186D01*
X8976D01*
X8988Y17186D01*
X9516D01*
X9528Y17186D01*
X9566D01*
X9578Y17186D01*
X10106D01*
X10118Y17186D01*
X10156D01*
X10168Y17186D01*
X10708D01*
Y17856D01*
X10168D01*
X10156Y17856D01*
D02*
G37*
G36*
X5798Y21861D02*
X5129D01*
Y21321D01*
X5129Y21310D01*
Y21271D01*
X5129Y21260D01*
Y20731D01*
X5129Y20720D01*
Y20681D01*
X5129Y20670D01*
Y20141D01*
X5129Y20130D01*
Y20091D01*
X5129Y20080D01*
Y19551D01*
X5129Y19540D01*
Y19501D01*
X5129Y19490D01*
Y18961D01*
X5129Y18950D01*
Y18911D01*
X5129Y18900D01*
Y18371D01*
X5129Y18360D01*
Y18321D01*
X5129Y18310D01*
Y17770D01*
X5798D01*
Y18310D01*
X5798Y18321D01*
Y18360D01*
X5798Y18371D01*
Y18900D01*
X5798Y18911D01*
Y18950D01*
X5798Y18961D01*
Y19490D01*
X5798Y19501D01*
Y19540D01*
X5798Y19551D01*
Y20080D01*
X5798Y20091D01*
Y20130D01*
X5798Y20141D01*
Y20670D01*
X5798Y20681D01*
Y20720D01*
X5798Y20731D01*
Y21260D01*
X5798Y21271D01*
Y21310D01*
X5798Y21321D01*
Y21861D01*
D02*
G37*
G36*
X17276Y15864D02*
X17276Y15864D01*
X16724D01*
Y15273D01*
X16724D01*
X16743Y15229D01*
X16707Y15193D01*
X16679Y15150D01*
X16670Y15106D01*
X16658Y15098D01*
X16615Y15033D01*
X16599Y14956D01*
Y14444D01*
X16615Y14367D01*
X16658Y14302D01*
X16723Y14259D01*
X16800Y14243D01*
X16877Y14259D01*
X16942Y14302D01*
X16985Y14367D01*
X17001Y14444D01*
Y14956D01*
X16985Y15033D01*
X16978Y15045D01*
X16992Y15079D01*
X17034Y15107D01*
X17093Y15166D01*
X17121Y15208D01*
X17131Y15259D01*
Y15273D01*
X17182D01*
X17200Y15223D01*
X17179Y15192D01*
X17169Y15141D01*
Y15105D01*
X17158Y15098D01*
X17115Y15033D01*
X17099Y14956D01*
Y14444D01*
X17115Y14367D01*
X17158Y14302D01*
X17223Y14259D01*
X17300Y14243D01*
X17377Y14259D01*
X17442Y14302D01*
X17485Y14367D01*
X17501Y14444D01*
Y14956D01*
X17488Y15019D01*
X17517Y15069D01*
X17541D01*
X17584Y15077D01*
X17603Y15060D01*
X17617Y15037D01*
X17615Y15033D01*
X17599Y14956D01*
Y14444D01*
X17615Y14367D01*
X17658Y14302D01*
X17669Y14295D01*
Y13954D01*
X17546Y13831D01*
X15730D01*
Y13979D01*
X15139D01*
Y13429D01*
X15139Y13428D01*
Y13379D01*
X15139Y13378D01*
Y12828D01*
X15730D01*
Y12972D01*
X16542D01*
X16669Y12846D01*
Y12467D01*
X16658Y12460D01*
X16615Y12395D01*
X16599Y12318D01*
Y11806D01*
X16615Y11729D01*
X16658Y11664D01*
X16723Y11621D01*
X16800Y11606D01*
X16877Y11621D01*
X16942Y11664D01*
X16985Y11729D01*
X17001Y11806D01*
Y12318D01*
X16985Y12395D01*
X16942Y12460D01*
X16931Y12467D01*
Y12900D01*
X16921Y12950D01*
X16893Y12993D01*
X16690Y13196D01*
X16647Y13224D01*
X16597Y13234D01*
X15730D01*
Y13378D01*
X15730Y13379D01*
Y13428D01*
X15730Y13429D01*
Y13569D01*
X17600D01*
X17650Y13579D01*
X17693Y13607D01*
X17893Y13807D01*
X17921Y13850D01*
X17931Y13900D01*
Y14295D01*
X17942Y14302D01*
X17985Y14367D01*
X18001Y14444D01*
Y14956D01*
X17985Y15033D01*
X17942Y15098D01*
X17877Y15141D01*
X17800Y15157D01*
X17739Y15144D01*
X17706Y15185D01*
X17721Y15208D01*
X17731Y15259D01*
Y15273D01*
X17876D01*
Y15864D01*
X17326D01*
X17324Y15864D01*
X17276D01*
Y15864D01*
D02*
G37*
G36*
X15609Y16437D02*
X15531D01*
X15458Y16407D01*
X15403Y16352D01*
X15373Y16279D01*
Y16201D01*
X15358Y16179D01*
X15270D01*
Y15679D01*
X15270D01*
Y15128D01*
X15368D01*
X15373Y15119D01*
Y15041D01*
X15403Y14968D01*
X15458Y14913D01*
X15531Y14883D01*
X15609D01*
X15682Y14913D01*
X15737Y14968D01*
X15767Y15041D01*
Y15119D01*
X15772Y15128D01*
X15861D01*
Y15628D01*
X15861D01*
Y16179D01*
X15782D01*
X15767Y16201D01*
Y16279D01*
X15737Y16352D01*
X15682Y16407D01*
X15609Y16437D01*
D02*
G37*
G36*
X17829Y12807D02*
X17751D01*
X17678Y12777D01*
X17623Y12722D01*
X17593Y12649D01*
Y12571D01*
X17623Y12498D01*
X17658Y12463D01*
X17658Y12460D01*
X17615Y12395D01*
X17599Y12318D01*
Y11806D01*
X17615Y11729D01*
X17658Y11664D01*
X17723Y11621D01*
X17800Y11606D01*
X17853Y11616D01*
X17903Y11583D01*
Y11479D01*
X17739D01*
Y10928D01*
X18330D01*
Y10979D01*
X18351Y10993D01*
X18429D01*
X18502Y11023D01*
X18557Y11078D01*
X18587Y11151D01*
Y11229D01*
X18557Y11302D01*
X18502Y11357D01*
X18429Y11387D01*
X18351D01*
X18330Y11401D01*
Y11479D01*
X18166D01*
Y12015D01*
X18156Y12066D01*
X18127Y12108D01*
X18063Y12173D01*
X18020Y12201D01*
X18001Y12205D01*
Y12318D01*
X17985Y12395D01*
X17942Y12460D01*
X17940Y12481D01*
X17957Y12498D01*
X17987Y12571D01*
Y12649D01*
X17957Y12722D01*
X17902Y12777D01*
X17829Y12807D01*
D02*
G37*
%LPD*%
G36*
X15636Y16339D02*
X15669Y16306D01*
X15687Y16263D01*
Y16201D01*
X15688Y16193D01*
Y16185D01*
X15691Y16178D01*
X15693Y16170D01*
X15697Y16164D01*
X15700Y16156D01*
X15715Y16134D01*
X15720Y16129D01*
X15725Y16122D01*
X15731Y16118D01*
X15737Y16112D01*
X15744Y16109D01*
X15751Y16105D01*
X15759Y16103D01*
X15766Y16100D01*
X15780Y16053D01*
Y15628D01*
X15780Y15628D01*
Y15208D01*
X15772D01*
X15765Y15206D01*
X15757D01*
X15749Y15203D01*
X15742Y15202D01*
X15735Y15197D01*
X15728Y15194D01*
X15722Y15189D01*
X15716Y15184D01*
X15711Y15178D01*
X15706Y15172D01*
X15700Y15164D01*
X15697Y15156D01*
X15693Y15150D01*
X15691Y15142D01*
X15688Y15135D01*
Y15127D01*
X15687Y15119D01*
Y15057D01*
X15669Y15014D01*
X15636Y14981D01*
X15593Y14963D01*
X15547D01*
X15504Y14981D01*
X15471Y15014D01*
X15453Y15057D01*
Y15119D01*
X15452Y15127D01*
Y15135D01*
X15449Y15142D01*
X15447Y15150D01*
X15443Y15156D01*
X15440Y15164D01*
X15434Y15172D01*
X15429Y15178D01*
X15424Y15184D01*
X15418Y15189D01*
X15412Y15194D01*
X15405Y15197D01*
X15398Y15202D01*
X15390Y15203D01*
X15383Y15206D01*
X15375D01*
X15368Y15208D01*
X15350D01*
Y15679D01*
X15350Y15679D01*
Y16098D01*
X15358D01*
X15366Y16100D01*
X15374D01*
X15381Y16103D01*
X15389Y16105D01*
X15396Y16109D01*
X15403Y16112D01*
X15409Y16118D01*
X15415Y16122D01*
X15420Y16129D01*
X15425Y16134D01*
X15440Y16156D01*
X15443Y16164D01*
X15447Y16170D01*
X15449Y16178D01*
X15452Y16185D01*
Y16193D01*
X15453Y16201D01*
Y16263D01*
X15471Y16306D01*
X15504Y16339D01*
X15547Y16357D01*
X15593D01*
X15636Y16339D01*
D02*
G37*
%LPC*%
G36*
X14222Y25292D02*
X14098D01*
X13978Y25260D01*
X13870Y25198D01*
X13782Y25110D01*
X13720Y25002D01*
X13688Y24882D01*
Y24758D01*
X13720Y24638D01*
X13782Y24530D01*
X13870Y24442D01*
X13978Y24380D01*
X14029Y24366D01*
Y22425D01*
X13885D01*
Y21835D01*
X14435D01*
X14436Y21835D01*
X14485D01*
X14486Y21835D01*
X15036D01*
Y21999D01*
X15230D01*
X15280Y22009D01*
X15323Y22037D01*
X15658Y22372D01*
X15687Y22415D01*
X15697Y22465D01*
Y22910D01*
X15861D01*
Y22910D01*
X15901D01*
Y22910D01*
X16491D01*
Y23461D01*
X15901D01*
Y23461D01*
X15861D01*
Y23461D01*
X15270D01*
Y22910D01*
X15434D01*
Y22520D01*
X15176Y22261D01*
X15036D01*
Y22425D01*
X14486D01*
X14485Y22425D01*
X14436D01*
X14435Y22425D01*
X14291D01*
Y24366D01*
X14342Y24380D01*
X14450Y24442D01*
X14538Y24530D01*
X14600Y24638D01*
X14632Y24758D01*
Y24882D01*
X14600Y25002D01*
X14538Y25110D01*
X14450Y25198D01*
X14342Y25260D01*
X14222Y25292D01*
D02*
G37*
G36*
X5326Y25381D02*
X5326Y25325D01*
X5332Y22885D01*
X11380D01*
X11396Y22901D01*
Y25371D01*
X5376Y25371D01*
X5336Y25371D01*
X5326Y25381D01*
D02*
G37*
G36*
X8250Y7330D02*
X6700D01*
X6669Y7324D01*
X6643Y7307D01*
X6643Y7307D01*
X6540Y7203D01*
X6522Y7177D01*
X6516Y7147D01*
Y6244D01*
X6500Y6230D01*
X3800D01*
X3800Y6230D01*
X3769Y6224D01*
X3743Y6207D01*
X3743Y6207D01*
X3643Y6107D01*
X3626Y6081D01*
X3620Y6050D01*
Y5178D01*
X3570Y5170D01*
X3536D01*
X3531Y5174D01*
X3500Y5180D01*
X3033D01*
X2607Y5607D01*
X2581Y5624D01*
X2550Y5630D01*
X1900D01*
X1869Y5624D01*
X1843Y5607D01*
X1826Y5581D01*
X1820Y5550D01*
Y5187D01*
X1826Y5156D01*
X1843Y5130D01*
X1855Y5122D01*
Y4754D01*
Y4425D01*
X1843Y4417D01*
X1826Y4391D01*
X1820Y4360D01*
Y4000D01*
X1826Y3969D01*
X1843Y3943D01*
X1869Y3926D01*
X1900Y3920D01*
X2550D01*
X2552Y3920D01*
X2554Y3920D01*
X2567Y3923D01*
X2581Y3926D01*
X2582Y3927D01*
X2585Y3928D01*
X2595Y3936D01*
X2607Y3943D01*
X2608Y3945D01*
X2610Y3946D01*
X3036Y4420D01*
X3500D01*
X3513Y4422D01*
X3570D01*
X3573Y4422D01*
X3620Y4415D01*
Y3400D01*
X3626Y3369D01*
X3643Y3343D01*
X3643Y3343D01*
X3743Y3243D01*
X3743Y3243D01*
X3769Y3226D01*
X3800Y3220D01*
X6500D01*
X6516Y3206D01*
Y2603D01*
X6516Y2603D01*
X6522Y2573D01*
X6540Y2547D01*
X6643Y2443D01*
X6669Y2426D01*
X6700Y2420D01*
X8200D01*
X8200Y2420D01*
X8231Y2426D01*
X8257Y2443D01*
X8257Y2443D01*
X8357Y2543D01*
X8374Y2569D01*
X8380Y2600D01*
Y3467D01*
X8383Y3470D01*
X8600D01*
X8600Y3470D01*
X8631Y3476D01*
X8657Y3493D01*
X8907Y3743D01*
X8924Y3769D01*
X8930Y3800D01*
Y4000D01*
X8924Y4031D01*
X8907Y4057D01*
X8907Y4057D01*
X8807Y4157D01*
X8781Y4174D01*
X8750Y4180D01*
X7833D01*
X7830Y4183D01*
Y4350D01*
X7830Y4350D01*
X7824Y4381D01*
X7807Y4407D01*
X7807Y4407D01*
X7757Y4457D01*
X7731Y4474D01*
X7700Y4480D01*
X7576D01*
Y4634D01*
X7665D01*
X7716Y4644D01*
X7758Y4673D01*
X7794Y4708D01*
X7844Y4707D01*
X7907Y4665D01*
X7982Y4650D01*
X8559D01*
X8633Y4665D01*
X8697Y4707D01*
X8739Y4770D01*
X8754Y4845D01*
X8739Y4920D01*
X8697Y4983D01*
X8633Y5026D01*
X8559Y5041D01*
X7982D01*
X7907Y5026D01*
X7844Y4983D01*
X7839Y4977D01*
X7745D01*
X7695Y4967D01*
X7652Y4938D01*
X7626Y4911D01*
X7576Y4932D01*
Y5061D01*
X7030D01*
Y5587D01*
X7081Y5638D01*
X7090Y5650D01*
X7094Y5651D01*
X7102D01*
X7110Y5654D01*
X7117Y5656D01*
X7119Y5657D01*
X7140Y5651D01*
X7153Y5644D01*
X7169Y5630D01*
Y5435D01*
X7179Y5384D01*
X7207Y5342D01*
X7250Y5313D01*
X7300Y5303D01*
X7350Y5313D01*
X7393Y5342D01*
X7421Y5384D01*
X7431Y5435D01*
Y5630D01*
X7447Y5644D01*
X7460Y5651D01*
X7481Y5657D01*
X7483Y5656D01*
X7490Y5654D01*
X7498Y5651D01*
X7506D01*
X7513Y5650D01*
X7524D01*
X7545Y5636D01*
X7576Y5630D01*
X8719Y5630D01*
X9326Y5023D01*
X9326Y5023D01*
X9352Y5006D01*
X9382Y4999D01*
X9975D01*
X10002Y4949D01*
X9982Y4920D01*
X9967Y4845D01*
X9982Y4770D01*
X10024Y4707D01*
X10088Y4665D01*
X10163Y4650D01*
X10739D01*
X10814Y4665D01*
X10877Y4707D01*
X10882Y4714D01*
X11087D01*
X11137Y4724D01*
X11180Y4752D01*
X11238Y4811D01*
X11264Y4850D01*
X11268Y4850D01*
X11314Y4819D01*
Y4477D01*
X10882D01*
X10877Y4484D01*
X10814Y4526D01*
X10739Y4541D01*
X10163D01*
X10088Y4526D01*
X10024Y4484D01*
X9982Y4420D01*
X9967Y4345D01*
X9982Y4270D01*
X10024Y4207D01*
X10088Y4165D01*
X10163Y4150D01*
X10739D01*
X10814Y4165D01*
X10877Y4207D01*
X10882Y4214D01*
X11387D01*
X11437Y4224D01*
X11480Y4252D01*
X11538Y4311D01*
X11567Y4354D01*
X11577Y4404D01*
Y5955D01*
X11567Y6005D01*
X11538Y6048D01*
X10698Y6888D01*
X10655Y6917D01*
X10605Y6927D01*
X10591D01*
Y7071D01*
X10000D01*
Y6521D01*
X10000Y6520D01*
Y6471D01*
X10000Y6470D01*
Y6000D01*
X9921D01*
Y6470D01*
X9921Y6471D01*
Y6520D01*
X9921Y6521D01*
Y7071D01*
X9331D01*
Y6978D01*
X9091D01*
Y7071D01*
X8500D01*
Y6521D01*
X8500Y6520D01*
Y6471D01*
X8500Y6470D01*
Y6131D01*
X8450Y6106D01*
X8430Y6122D01*
X8430Y7150D01*
X8424Y7181D01*
X8407Y7207D01*
X8407Y7207D01*
X8307Y7307D01*
X8281Y7324D01*
X8250Y7330D01*
D02*
G37*
%LPD*%
G36*
X8350Y7150D02*
X8350Y6070D01*
X8500Y5920D01*
Y5920D01*
X9091D01*
Y5920D01*
X9331D01*
Y5920D01*
X9921D01*
Y5920D01*
X10000D01*
Y5920D01*
X10591D01*
X10591Y5920D01*
Y5920D01*
X10638Y5912D01*
X10900Y5650D01*
X10900Y5200D01*
X10780Y5080D01*
X9382Y5080D01*
X8752Y5710D01*
X7576Y5710D01*
Y5730D01*
X7513D01*
X7480Y5780D01*
X7497Y5821D01*
Y5899D01*
X7467Y5972D01*
X7412Y6027D01*
X7339Y6057D01*
X7261D01*
X7188Y6027D01*
X7133Y5972D01*
X7103Y5899D01*
Y5821D01*
X7120Y5780D01*
X7087Y5730D01*
X7024D01*
Y5694D01*
X6950Y5620D01*
Y4550D01*
X7024Y4476D01*
Y4470D01*
X7030D01*
X7100Y4400D01*
X7700D01*
X7750Y4350D01*
Y4150D01*
X7800Y4100D01*
X8750D01*
X8850Y4000D01*
Y3800D01*
X8600Y3550D01*
X8350D01*
X8300Y3500D01*
Y2600D01*
X8200Y2500D01*
X6700D01*
X6597Y2603D01*
Y3283D01*
X6657Y3343D01*
X6674Y3369D01*
X6680Y3400D01*
X6680Y6050D01*
X6680Y6050D01*
X6674Y6081D01*
X6657Y6107D01*
X6657Y6107D01*
X6597Y6167D01*
Y7147D01*
X6700Y7250D01*
X8250D01*
X8350Y7150D01*
D02*
G37*
G36*
X3000Y5100D02*
X3500D01*
Y4500D01*
X3000D01*
X2550Y4000D01*
X1900D01*
Y4360D01*
X2603D01*
Y4754D01*
Y5187D01*
X1900D01*
Y5550D01*
X2550D01*
X3000Y5100D01*
D02*
G37*
G36*
X6600Y6050D02*
X6600Y3400D01*
X6500Y3300D01*
X3800D01*
X3700Y3400D01*
X3700Y6050D01*
X3800Y6150D01*
X6500D01*
X6600Y6050D01*
D02*
G37*
D10*
X16160Y24210D02*
Y24820D01*
X16865Y23185D02*
Y23505D01*
X16160Y24210D02*
X16865Y23505D01*
X14761Y20830D02*
X14795Y20795D01*
X15190Y20075D02*
X15213Y20052D01*
X14815Y20795D02*
X15190Y20420D01*
Y20075D02*
Y20420D01*
X14795Y20795D02*
X14815D01*
X8557Y9726D02*
Y10098D01*
X8361Y10295D02*
X8557Y10098D01*
X8361Y10295D02*
Y10864D01*
X18035Y11203D02*
X18048Y11190D01*
X18390D01*
X17795Y12067D02*
Y12605D01*
Y12067D02*
X17800Y12062D01*
X17790Y12610D02*
X17795Y12605D01*
X17818Y12080D02*
X17970D01*
X17800Y12062D02*
X17818Y12080D01*
X18035Y11203D02*
Y12015D01*
X17970Y12080D02*
X18035Y12015D01*
X16212Y19542D02*
Y20050D01*
X16210Y19540D02*
X16212Y19542D01*
Y20050D02*
X16213Y20052D01*
X17712Y17792D02*
Y18318D01*
Y17792D02*
X17713Y17790D01*
X17710Y18320D02*
X17712Y18318D01*
X17210Y18320D02*
X17212Y18318D01*
Y17792D02*
X17213Y17790D01*
X17212Y17792D02*
Y18318D01*
X16602Y17205D02*
X16875D01*
X16597Y17200D02*
X16602Y17205D01*
X16875D02*
X16880Y17210D01*
X15298Y17195D02*
X15303Y17200D01*
X15035Y17195D02*
X15298D01*
X15030Y17190D02*
X15035Y17195D01*
X14707Y17797D02*
Y18313D01*
X14700Y18320D02*
X14707Y18313D01*
Y17797D02*
X14713Y17790D01*
X15210Y18320D02*
X15212Y18318D01*
Y17792D02*
X15213Y17790D01*
X15212Y17792D02*
Y18318D01*
X18510Y18410D02*
X18841D01*
X18861Y18430D01*
X18860Y19260D02*
X18861Y19261D01*
X18500Y19260D02*
X18860D01*
X6820Y10060D02*
X7324D01*
X7354Y10090D01*
X7300Y5435D02*
Y5860D01*
X17300Y11606D02*
Y12062D01*
Y11606D02*
X17365Y11540D01*
Y11203D02*
Y11540D01*
X16800Y12062D02*
Y12900D01*
X15435Y13103D02*
X16597D01*
X16800Y12900D01*
X15438Y13700D02*
X17600D01*
X15435Y13703D02*
X15438Y13700D01*
X17800Y13900D02*
Y14700D01*
X17600Y13700D02*
X17800Y13900D01*
X17140Y5042D02*
X17140Y5042D01*
X14047Y13103D02*
X14765D01*
X11850Y15300D02*
Y19191D01*
Y15300D02*
X14047Y13103D01*
X12450Y15650D02*
Y19350D01*
X14397Y13703D02*
X14765D01*
X12450Y15650D02*
X14397Y13703D01*
X11985Y19815D02*
X12450Y19350D01*
X11791Y19250D02*
X11850Y19191D01*
X11285Y19250D02*
X11791D01*
X11261Y19815D02*
X11985D01*
X11261Y19225D02*
X11285Y19250D01*
X17300Y14700D02*
Y15141D01*
X17359Y15200D01*
X17541D01*
X17600Y15259D02*
Y15568D01*
X17541Y15200D02*
X17600Y15259D01*
X16800Y14700D02*
Y15100D01*
X16900Y15200D02*
X16941D01*
X16800Y15100D02*
X16900Y15200D01*
X16941D02*
X17000Y15259D01*
Y15568D01*
X16208Y17251D02*
X16264Y17195D01*
X16200Y17022D02*
Y17197D01*
X16203Y17200D01*
X16208Y17785D02*
X16213Y17790D01*
X16208Y17251D02*
Y17785D01*
X15705Y17782D02*
X15713Y17790D01*
X15705Y17208D02*
Y17782D01*
X15697Y17200D02*
X15705Y17208D01*
X15697Y16903D02*
Y17200D01*
X16200Y17022D02*
X16322Y16900D01*
X16957D01*
X17600Y16238D02*
Y16257D01*
X16957Y16900D02*
X17600Y16257D01*
X16213Y17790D02*
X16236Y17767D01*
X15735Y17217D02*
X15757Y17195D01*
X15713Y17790D02*
X15735Y17768D01*
X15750Y17188D02*
X15757Y17195D01*
X15697Y16903D02*
X15900Y16700D01*
X16850D01*
X17000Y16238D02*
Y16550D01*
X16850Y16700D02*
X17000Y16550D01*
X17213Y20052D02*
Y21363D01*
X17539Y21689D01*
X17961D02*
Y22295D01*
X17965Y22300D01*
X17539Y21689D02*
X17961D01*
X16800Y20600D02*
Y21200D01*
X16850Y21250D01*
Y21595D01*
X16860Y21605D01*
X16713Y20052D02*
Y20513D01*
X16800Y20600D01*
X15700Y20065D02*
X15713Y20052D01*
X15700Y20065D02*
Y20450D01*
X15519Y20500D02*
X15650D01*
X15700Y20450D01*
X15461Y20559D02*
Y20861D01*
Y20559D02*
X15519Y20500D01*
X15713Y20227D02*
X15713Y20226D01*
Y20052D02*
Y20226D01*
X14398Y20052D02*
X14713D01*
X14126Y20324D02*
X14398Y20052D01*
X14126Y20324D02*
Y20795D01*
X14161Y20830D02*
Y21461D01*
X14126Y20795D02*
X14161Y20830D01*
X14761Y20830D02*
Y21461D01*
Y22130D02*
X15230D01*
X15565Y22465D02*
Y23185D01*
X15230Y22130D02*
X15565Y22465D01*
X14160Y22131D02*
Y24820D01*
Y22131D02*
X14161Y22130D01*
X16865Y22280D02*
X16881Y22295D01*
X16865Y22280D02*
Y23185D01*
X16860Y22275D02*
X16865Y22280D01*
X16881Y22295D02*
X17826D01*
X17800Y22269D02*
X17826Y22295D01*
X17600Y20600D02*
Y20888D01*
X17587Y20902D02*
X17600Y20888D01*
Y20600D02*
X17713Y20487D01*
Y20052D02*
Y20487D01*
X8754Y9196D02*
Y9726D01*
Y9196D02*
X8755Y9195D01*
X10295Y6795D02*
X10605D01*
X11445Y4404D02*
Y5955D01*
X10605Y6795D02*
X11445Y5955D01*
X11387Y4345D02*
X11445Y4404D01*
X10451Y4345D02*
X11387D01*
X10295Y6195D02*
X10605D01*
X11145Y5655D01*
Y4904D02*
Y5655D01*
X10451Y4845D02*
X11087D01*
X11145Y4904D01*
X7300Y4765D02*
X7665D01*
X7745Y4845D02*
X8270D01*
X7665Y4765D02*
X7745Y4845D01*
D19*
X9709Y3095D02*
D03*
X10812D02*
D03*
X8912D02*
D03*
X7809D02*
D03*
X7312Y3995D02*
D03*
X6209D02*
D03*
D20*
X17140Y4242D02*
D03*
X17888D02*
D03*
X17888Y5042D02*
D03*
X17140D02*
D03*
X2172Y7399D02*
D03*
X1424D02*
D03*
X3226Y5600D02*
D03*
X3974D02*
D03*
X3238Y4796D02*
D03*
X3986D02*
D03*
X3985Y3995D02*
D03*
X3237D02*
D03*
D21*
X2065Y17000D02*
D03*
X2735D02*
D03*
X8795Y6795D02*
D03*
X8126D02*
D03*
Y6195D02*
D03*
X8795D02*
D03*
X9626Y6795D02*
D03*
X10295D02*
D03*
X9626Y6195D02*
D03*
X10295D02*
D03*
X14795Y20795D02*
D03*
X14126D02*
D03*
X16196Y23185D02*
D03*
X16865D02*
D03*
X14896D02*
D03*
X15565D02*
D03*
X18635Y22300D02*
D03*
X17965D02*
D03*
X16126Y20895D02*
D03*
X16795D02*
D03*
X4695Y21695D02*
D03*
X4026D02*
D03*
X4026Y22195D02*
D03*
X4695D02*
D03*
X16735Y11203D02*
D03*
X16065D02*
D03*
X18035D02*
D03*
X17365D02*
D03*
X14765Y13703D02*
D03*
X15435D02*
D03*
X14765Y13103D02*
D03*
X15435D02*
D03*
X16235Y15403D02*
D03*
X15565D02*
D03*
X15565Y15903D02*
D03*
X16235D02*
D03*
X11795Y10195D02*
D03*
X11126D02*
D03*
X9386Y9195D02*
D03*
X10055D02*
D03*
X8086D02*
D03*
X8755D02*
D03*
D22*
X6292Y17521D02*
D03*
X6882D02*
D03*
X7472D02*
D03*
X8062D02*
D03*
X8662D02*
D03*
X9252D02*
D03*
X9842D02*
D03*
X10432D02*
D03*
D23*
X5463Y22185D02*
D03*
Y21585D02*
D03*
Y20995D02*
D03*
Y20405D02*
D03*
Y19815D02*
D03*
Y19225D02*
D03*
Y18635D02*
D03*
Y18045D02*
D03*
X11261Y22185D02*
D03*
Y21585D02*
D03*
Y20995D02*
D03*
Y20405D02*
D03*
Y19815D02*
D03*
Y19225D02*
D03*
Y18635D02*
D03*
Y18045D02*
D03*
D24*
X17961Y21689D02*
D03*
X18335Y20902D02*
D03*
X17587D02*
D03*
D25*
X18861Y19930D02*
D03*
Y19261D02*
D03*
X16860Y21605D02*
D03*
Y22275D02*
D03*
X15461Y21530D02*
D03*
Y20861D02*
D03*
X14761Y21461D02*
D03*
Y22130D02*
D03*
X14161Y21461D02*
D03*
Y22130D02*
D03*
X18861Y18430D02*
D03*
Y17761D02*
D03*
X17600Y16238D02*
D03*
Y15568D02*
D03*
X17000Y16238D02*
D03*
Y15568D02*
D03*
X7300Y4765D02*
D03*
Y5435D02*
D03*
D26*
X17800Y14700D02*
D03*
X17300D02*
D03*
X16800D02*
D03*
X16300D02*
D03*
X17800Y12062D02*
D03*
X17300D02*
D03*
X16800D02*
D03*
X16300D02*
D03*
D27*
X18213Y20052D02*
D03*
X17713D02*
D03*
X17213D02*
D03*
X16713D02*
D03*
X16213D02*
D03*
X15713D02*
D03*
X15213D02*
D03*
X14713D02*
D03*
X18213Y17790D02*
D03*
X17713D02*
D03*
X17213D02*
D03*
X16713D02*
D03*
X16213D02*
D03*
X15713D02*
D03*
X15213D02*
D03*
X14713D02*
D03*
D28*
X8175Y12209D02*
D03*
X9435D02*
D03*
D29*
X16597Y17200D02*
D03*
X16203D02*
D03*
X15697D02*
D03*
X15303D02*
D03*
D30*
X9461Y10221D02*
D03*
Y10969D02*
D03*
X10161Y10221D02*
D03*
Y10969D02*
D03*
X7354Y10838D02*
D03*
Y10090D02*
D03*
D31*
X8754Y10864D02*
D03*
X8557D02*
D03*
X8361D02*
D03*
X8164D02*
D03*
X7967D02*
D03*
Y9726D02*
D03*
X8164D02*
D03*
X8361D02*
D03*
X8557D02*
D03*
X8754D02*
D03*
D32*
X9361Y4595D02*
D03*
X15164Y5292D02*
D03*
D33*
X10451Y3845D02*
D03*
Y4345D02*
D03*
Y4845D02*
D03*
Y5345D02*
D03*
X8270Y3845D02*
D03*
Y4345D02*
D03*
Y4845D02*
D03*
Y5345D02*
D03*
X16254Y4542D02*
D03*
Y5042D02*
D03*
Y5542D02*
D03*
Y6042D02*
D03*
X14074Y4542D02*
D03*
Y5042D02*
D03*
Y5542D02*
D03*
Y6042D02*
D03*
D34*
X19164Y4341D02*
D03*
Y5443D02*
D03*
D35*
X2229Y5856D02*
D03*
Y3691D02*
D03*
D36*
Y5372D02*
D03*
Y4175D02*
D03*
D37*
Y4970D02*
D03*
Y4576D02*
D03*
D65*
X8361Y10295D02*
D03*
D66*
X17213Y17790D02*
X17713D01*
X14713D02*
X15213D01*
X8795Y6195D02*
X9626D01*
X8795Y6795D02*
X9626D01*
D67*
X18861Y18430D02*
Y19261D01*
X16735Y11203D02*
X17365D01*
X17140Y4242D02*
Y5042D01*
X15565Y23185D02*
X16196D01*
X8755Y9195D02*
X9386D01*
D68*
X16254Y5042D02*
X17140D01*
D69*
X1181Y24409D02*
D03*
X19291D02*
D03*
Y1181D02*
D03*
X1181D02*
D03*
D70*
X998Y16216D02*
D03*
X4620Y15487D02*
D03*
Y13598D02*
D03*
Y11708D02*
D03*
X998Y10980D02*
D03*
D71*
X16160Y24820D02*
D03*
D72*
X15160D02*
D03*
X14160D02*
D03*
D73*
X19164Y6492D02*
D03*
Y3292D02*
D03*
D74*
X674Y6474D02*
D03*
X674Y3073D02*
D03*
X2170Y6474D02*
D03*
Y3073D02*
D03*
D75*
X11607Y6511D02*
D03*
X11170Y7220D02*
D03*
X3230Y990D02*
D03*
X13440Y5190D02*
D03*
X13410Y6380D02*
D03*
X7329Y21207D02*
D03*
X7340Y22110D02*
D03*
X5920Y6910D02*
D03*
X5100Y6950D02*
D03*
X4378Y6965D02*
D03*
X3760Y7020D02*
D03*
X9136Y22301D02*
D03*
X9848Y21732D02*
D03*
X9005Y21765D02*
D03*
X9960Y21120D02*
D03*
X9300D02*
D03*
X8640Y21130D02*
D03*
X8130Y21610D02*
D03*
X8150Y22240D02*
D03*
X8630Y10140D02*
D03*
X8610Y10420D02*
D03*
X8120Y10140D02*
D03*
X8110Y10420D02*
D03*
X16155Y22065D02*
D03*
X16140Y22520D02*
D03*
X3100Y23600D02*
D03*
X2261Y22846D02*
D03*
X1560Y22010D02*
D03*
X1494Y21107D02*
D03*
X1460Y20310D02*
D03*
Y19450D02*
D03*
Y18510D02*
D03*
X17790Y12610D02*
D03*
X18390Y11190D02*
D03*
X15570Y15080D02*
D03*
Y16240D02*
D03*
X16310Y3550D02*
D03*
X15042Y3635D02*
D03*
X13980Y4100D02*
D03*
X13955Y7176D02*
D03*
X12930Y9050D02*
D03*
X13975Y8625D02*
D03*
X15220Y8540D02*
D03*
X16370Y8524D02*
D03*
X17597Y8544D02*
D03*
X18744Y8584D02*
D03*
X19790Y8926D02*
D03*
X19931Y9651D02*
D03*
X19951Y10939D02*
D03*
X20012Y11924D02*
D03*
X20032Y12951D02*
D03*
X19951Y13896D02*
D03*
X19971Y14963D02*
D03*
X19970Y16050D02*
D03*
X19930Y17120D02*
D03*
X19950Y18240D02*
D03*
X19830Y19150D02*
D03*
X19871Y20436D02*
D03*
X19830Y21542D02*
D03*
X18890Y23750D02*
D03*
X18640Y24000D02*
D03*
X18540Y24350D02*
D03*
X18578Y24692D02*
D03*
X18700Y24960D02*
D03*
X9760Y22300D02*
D03*
X10830Y22200D02*
D03*
X11700Y22220D02*
D03*
X11260Y22560D02*
D03*
X16210Y19540D02*
D03*
X17710Y18320D02*
D03*
X17210D02*
D03*
X14700D02*
D03*
X15210D02*
D03*
X15030Y17190D02*
D03*
X16880Y17210D02*
D03*
X18510Y18410D02*
D03*
X18500Y19260D02*
D03*
X18650Y21910D02*
D03*
X19020Y22330D02*
D03*
X18640Y22680D02*
D03*
X16130Y21270D02*
D03*
X15840Y21600D02*
D03*
X15530Y21920D02*
D03*
X14870Y22810D02*
D03*
X14900Y23580D02*
D03*
X15440Y25310D02*
D03*
X14920Y25290D02*
D03*
X15430Y24310D02*
D03*
X14880Y24320D02*
D03*
X12770Y22596D02*
D03*
X12472Y24516D02*
D03*
X11677Y23391D02*
D03*
X4195Y24218D02*
D03*
X1950Y24640D02*
D03*
X1920Y24220D02*
D03*
X1740Y23880D02*
D03*
X1380Y23670D02*
D03*
X990Y23660D02*
D03*
X4010Y22570D02*
D03*
X3630Y22200D02*
D03*
X3620Y21670D02*
D03*
X3950Y21300D02*
D03*
X2543Y15564D02*
D03*
Y14537D02*
D03*
X2624Y13571D02*
D03*
X2664Y12826D02*
D03*
X2624Y11860D02*
D03*
X2704Y10833D02*
D03*
X2624Y9726D02*
D03*
X2600Y8880D02*
D03*
X10340Y12020D02*
D03*
X10330Y12500D02*
D03*
X10186Y12966D02*
D03*
X9668Y13262D02*
D03*
X8120Y13310D02*
D03*
X7386Y13179D02*
D03*
X7260Y12580D02*
D03*
X7250Y12040D02*
D03*
X10280Y11410D02*
D03*
X10636Y11220D02*
D03*
X10640Y10900D02*
D03*
X6820Y10060D02*
D03*
X7700Y8890D02*
D03*
X8100Y8830D02*
D03*
X3160Y16700D02*
D03*
Y17060D02*
D03*
X3060Y17390D02*
D03*
X2690Y17420D02*
D03*
X2680Y7420D02*
D03*
X2650Y7790D02*
D03*
X2180Y7900D02*
D03*
X2940Y6090D02*
D03*
X3320D02*
D03*
X2840Y3540D02*
D03*
X3310Y3510D02*
D03*
X7300Y5860D02*
D03*
X9770Y2530D02*
D03*
X9310D02*
D03*
X8860Y2540D02*
D03*
X18680Y700D02*
D03*
X18500Y1060D02*
D03*
X18540Y1420D02*
D03*
X18720Y1740D02*
D03*
X19040Y1930D02*
D03*
X1830Y680D02*
D03*
X1950Y1020D02*
D03*
X1941Y1340D02*
D03*
X1780Y1690D02*
D03*
X1500Y1900D02*
D03*
X4111Y1011D02*
D03*
X4855D02*
D03*
X5840Y1050D02*
D03*
X6650D02*
D03*
X17170Y1010D02*
D03*
X16240Y1030D02*
D03*
X15307Y1025D02*
D03*
X14533Y968D02*
D03*
X13690Y980D02*
D03*
X12840Y1040D02*
D03*
X11985Y1054D02*
D03*
X11212D02*
D03*
X10400Y1050D02*
D03*
X9610D02*
D03*
X8820D02*
D03*
X8144Y1057D02*
D03*
X7450Y1050D02*
D03*
X9164Y4398D02*
D03*
Y4792D02*
D03*
X9557D02*
D03*
Y4398D02*
D03*
X14967Y5095D02*
D03*
Y5489D02*
D03*
X15361D02*
D03*
Y5095D02*
D03*
M02*
